<svg width="121" height="33" viewBox="0 0 121 33" fill="none" xmlns="http://www.w3.org/2000/svg">
<g clip-path="url(#clip0_4_146)">
<path d="M31.8576 31.7216H32.64V32.2593C32.5625 32.3316 32.454 32.4038 32.3069 32.468C32.1597 32.5322 32.0125 32.5643 31.8576 32.5643C31.6794 32.5643 31.5167 32.5242 31.3618 32.4359C31.2069 32.3556 31.0907 32.2272 31.0055 32.0506C30.9202 31.8741 30.8815 31.6574 30.8815 31.4005C30.8815 31.1919 30.9125 30.9992 30.9822 30.8146C31.0209 30.7103 31.0752 30.614 31.1526 30.5257C31.2224 30.4374 31.3153 30.3652 31.4393 30.317C31.5555 30.2608 31.6949 30.2368 31.8576 30.2368C31.9893 30.2368 32.1132 30.2608 32.2216 30.309C32.3301 30.3571 32.4153 30.4294 32.4773 30.5096C32.5392 30.5979 32.5857 30.7103 32.6245 30.8548L32.9421 30.7584C32.8956 30.5658 32.8259 30.4053 32.7407 30.2849C32.6554 30.1645 32.5315 30.0682 32.3766 30.004C32.2216 29.9318 32.0435 29.8997 31.8576 29.8997C31.5942 29.8997 31.3618 29.9558 31.1526 30.0762C30.9512 30.1966 30.7963 30.3732 30.6879 30.622C30.5794 30.8708 30.5252 31.1276 30.5252 31.4086C30.5252 31.6975 30.5794 31.9543 30.6879 32.1871C30.7963 32.4199 30.959 32.5964 31.1681 32.7168C31.385 32.8372 31.6174 32.9014 31.8808 32.9014C32.0745 32.9014 32.2604 32.8613 32.4463 32.7891C32.6322 32.7168 32.8104 32.6044 32.9808 32.452V31.3765H31.8576V31.7216Z" fill="black"/>
<path d="M36.3427 29.9558L35.9244 31.8179C35.8702 32.0586 35.8237 32.2673 35.7928 32.4519C35.7463 32.1309 35.6843 31.7858 35.5836 31.4246L35.204 29.9558H34.778L34.2744 31.9142C34.259 31.9623 34.2202 32.1389 34.1505 32.4519C34.1195 32.2593 34.0808 32.0586 34.0421 31.858L33.6392 29.9558H33.2752L33.9801 32.8613H34.3364L34.9019 30.6541C34.9251 30.5578 34.9484 30.4454 34.9794 30.317C34.9871 30.3571 35.0181 30.4695 35.0646 30.6541L35.6301 32.8613H35.9709L36.6991 29.9558H36.3427Z" fill="black"/>
<path d="M37.6829 29.9558L36.6604 32.8613H37.0322L37.3265 31.9864H38.442L38.7519 32.8613H39.1547L38.0625 29.9558H37.6829ZM37.4272 31.6654L37.7216 30.8146C37.7836 30.63 37.8301 30.4454 37.8688 30.2608C37.9075 30.4213 37.9695 30.622 38.0547 30.8628L38.3336 31.6654H37.4272Z" fill="black"/>
<path d="M41.2772 32.2352L39.8829 29.9558H39.5188V32.8613H39.8596V30.5818L41.254 32.8613H41.6181V29.9558H41.2772V32.2352Z" fill="black"/>
<path d="M43.5004 31.7216H44.2828V32.2593C44.2054 32.3316 44.0969 32.4038 43.9497 32.468C43.8026 32.5322 43.6554 32.5643 43.5004 32.5643C43.3223 32.5643 43.1596 32.5242 43.0047 32.4359C42.8497 32.3556 42.7258 32.2272 42.6483 32.0506C42.5631 31.8741 42.5244 31.6574 42.5244 31.4005C42.5244 31.1919 42.5554 30.9992 42.6251 30.8146C42.6638 30.7103 42.7181 30.614 42.7955 30.5257C42.8652 30.4374 42.9659 30.3652 43.0821 30.317C43.1983 30.2608 43.3378 30.2368 43.5004 30.2368C43.6321 30.2368 43.7561 30.2608 43.8645 30.309C43.973 30.3571 44.0582 30.4294 44.1202 30.5096C44.1821 30.5979 44.2286 30.7103 44.2673 30.8548L44.585 30.7584C44.5385 30.5658 44.4765 30.4053 44.3835 30.2849C44.2983 30.1645 44.1744 30.0682 44.0195 30.004C43.8645 29.9318 43.6941 29.8997 43.5004 29.8997C43.2371 29.8997 43.0047 29.9558 42.7955 30.0762C42.5941 30.1966 42.4392 30.3732 42.3307 30.622C42.2223 30.8708 42.1681 31.1276 42.1681 31.4086C42.1681 31.6975 42.2223 31.9543 42.3307 32.1871C42.4392 32.4199 42.6019 32.5964 42.811 32.7168C43.0279 32.8372 43.2603 32.9014 43.5237 32.9014C43.7174 32.9014 43.9033 32.8613 44.0892 32.7891C44.2751 32.7168 44.4533 32.6044 44.6237 32.452V31.3765H43.5004V31.7216Z" fill="black"/>
<path d="M46.142 31.9543C46.142 32.1229 46.1265 32.2432 46.1033 32.3155C46.08 32.3957 46.0335 32.4519 45.9716 32.4921C45.9096 32.5402 45.8321 32.5563 45.7392 32.5563C45.623 32.5563 45.5223 32.5161 45.4603 32.4359C45.3906 32.3556 45.3518 32.2031 45.3441 31.9784L45.0265 32.0265C45.0188 32.3155 45.0807 32.5322 45.2047 32.6767C45.3286 32.8211 45.5068 32.9014 45.7392 32.9014C45.8941 32.9014 46.0335 32.8693 46.1497 32.797C46.2659 32.7248 46.3511 32.6285 46.4054 32.4921C46.4596 32.3556 46.4828 32.171 46.4828 31.9302V29.9558H46.1342V31.9543H46.142Z" fill="black"/>
<path d="M48.8842 31.6333C48.8842 31.9944 48.83 32.2432 48.7215 32.3717C48.6131 32.5001 48.4272 32.5643 48.1716 32.5643C48.0166 32.5643 47.8927 32.5322 47.7842 32.468C47.6758 32.4038 47.6061 32.3075 47.5596 32.1871C47.5131 32.0667 47.4976 31.8821 47.4976 31.6333V29.9558H47.1413V31.6333C47.1413 31.9383 47.1723 32.1871 47.242 32.3636C47.3117 32.5402 47.4201 32.6767 47.5828 32.773C47.7377 32.8613 47.9469 32.9094 48.1948 32.9094C48.4504 32.9094 48.6596 32.8532 48.8145 32.7489C48.9694 32.6445 49.0779 32.5001 49.1399 32.3315C49.2018 32.163 49.2328 31.9302 49.2328 31.6333V29.9558H48.8765V31.6333H48.8842Z" fill="black"/>
<path d="M53.261 31.8179C53.2067 32.0586 53.1603 32.2673 53.1293 32.4519C53.0905 32.1309 53.0208 31.7858 52.9201 31.4246L52.5405 29.9558H52.1145L51.6032 31.9142C51.5955 31.9623 51.549 32.1389 51.487 32.4519C51.456 32.2593 51.4173 32.0586 51.3786 31.858L50.9758 29.9558H50.6117L51.3166 32.8613H51.6729L52.2384 30.6541C52.2617 30.5578 52.2849 30.4454 52.3159 30.317C52.3236 30.3571 52.3546 30.4695 52.4011 30.6541L52.9588 32.8613H53.2997L54.0279 29.9558H53.6715L53.261 31.8179Z" fill="black"/>
<path d="M56.1969 30.1001C56.0032 29.9717 55.7785 29.9075 55.5307 29.9075C55.1588 29.9075 54.849 30.0439 54.6088 30.3168C54.3687 30.5897 54.2525 30.9669 54.2525 31.4485C54.2525 31.7053 54.299 31.9461 54.4074 32.1708C54.5081 32.3956 54.6553 32.5802 54.8567 32.7086C55.0504 32.837 55.275 32.9092 55.5307 32.9092C55.7631 32.9092 55.98 32.853 56.1736 32.7327C56.375 32.6123 56.53 32.4357 56.6384 32.2029C56.7469 31.9702 56.8011 31.7053 56.8011 31.4083C56.8011 31.1194 56.7469 30.8626 56.6462 30.6298C56.5454 30.4051 56.3905 30.2285 56.1969 30.1001ZM56.1814 32.2752C56.0109 32.4758 55.794 32.5802 55.5307 32.5802C55.275 32.5802 55.0504 32.4758 54.88 32.2752C54.7095 32.0745 54.6243 31.8016 54.6243 31.4485C54.6243 31.0151 54.7173 30.7021 54.8955 30.5175C55.0736 30.3329 55.2905 30.2365 55.5384 30.2365C55.7166 30.2365 55.8715 30.2847 56.0109 30.381C56.1504 30.4773 56.2588 30.6138 56.3285 30.7903C56.3983 30.9669 56.437 31.1756 56.437 31.4083C56.437 31.7856 56.3518 32.0745 56.1814 32.2752Z" fill="black"/>
<path d="M58.7532 31.9784C58.6912 32.1791 58.6447 32.3396 58.6137 32.4439C58.5905 32.3476 58.544 32.2031 58.4898 32.0185L57.8623 29.9639H57.3356V32.8693H57.6764V30.3973L58.4511 32.8693H58.7687L59.5433 30.4374V32.8693H59.8842V29.9639H59.4116L58.7532 31.9784Z" fill="black"/>
<path d="M60.8602 31.5289H62.3398V31.1918H60.8602V30.3009H62.4327V29.9558H60.5116V32.8613H62.4947V32.5161H60.8602V31.5289Z" fill="black"/>
<path d="M64.7489 32.2352L63.3546 29.9558H62.9905V32.8613H63.3313V30.5818L64.7257 32.8613H65.0898V29.9558H64.7489V32.2352Z" fill="black"/>
<path d="M65.7017 30.3411H65.8721C65.8721 30.4535 65.8489 30.5337 65.8179 30.5979C65.7869 30.6621 65.7327 30.7103 65.6707 30.7344L65.7482 30.8708C65.8567 30.8146 65.9419 30.7344 65.9883 30.63C66.0271 30.5498 66.0426 30.4214 66.0426 30.2448V29.9157H65.694V30.3411H65.7017Z" fill="black"/>
<path d="M68.1806 31.3283C68.0721 31.2801 67.8785 31.2159 67.5919 31.1437C67.3052 31.0715 67.1271 31.0073 67.0574 30.935C66.9876 30.8708 66.9567 30.7825 66.9567 30.6782C66.9567 30.5578 67.0031 30.4535 67.1038 30.3732C67.1968 30.2849 67.3595 30.2448 67.5686 30.2448C67.77 30.2448 67.925 30.2929 68.0334 30.3892C68.1419 30.4856 68.1961 30.622 68.2193 30.8066L68.5602 30.7825C68.5524 30.614 68.5059 30.4615 68.4285 30.325C68.3433 30.1886 68.2348 30.0843 68.0799 30.0201C67.9327 29.9478 67.7545 29.9157 67.5609 29.9157C67.3827 29.9157 67.22 29.9478 67.0728 30.012C66.9257 30.0762 66.8172 30.1725 66.7398 30.301C66.6623 30.4294 66.6236 30.5658 66.6236 30.7103C66.6236 30.8467 66.6545 30.9671 66.7165 31.0715C66.7785 31.1758 66.8714 31.2721 67.0031 31.3444C67.1038 31.4005 67.2743 31.4647 67.5144 31.529C67.7545 31.5932 67.9172 31.6413 67.9869 31.6734C68.0954 31.7216 68.1806 31.7778 68.2271 31.842C68.2735 31.9062 68.2968 31.9864 68.2968 32.0828C68.2968 32.171 68.2735 32.2593 68.2193 32.3316C68.1651 32.4118 68.0954 32.468 67.9869 32.5081C67.8862 32.5483 67.7623 32.5723 67.6306 32.5723C67.4757 32.5723 67.344 32.5402 67.22 32.4841C67.0961 32.4279 67.0109 32.3556 66.9489 32.2593C66.8947 32.163 66.8559 32.0506 66.8405 31.8982L66.5074 31.9303C66.5151 32.1229 66.5616 32.2995 66.6545 32.452C66.7475 32.6044 66.8714 32.7168 67.0341 32.7971C67.1968 32.8693 67.3982 32.9094 67.6383 32.9094C67.832 32.9094 68.0024 32.8693 68.1496 32.7971C68.3045 32.7248 68.4207 32.6125 68.4982 32.476C68.5757 32.3396 68.6221 32.1951 68.6221 32.0426C68.6221 31.8901 68.5834 31.7457 68.5137 31.6333C68.444 31.5049 68.3355 31.4086 68.1806 31.3283Z" fill="black"/>
<path d="M71.6432 31.3123C71.7672 31.248 71.8601 31.1598 71.9221 31.0474C71.9841 30.935 72.0151 30.8227 72.0151 30.6942C72.0151 30.5578 71.9763 30.4374 71.9144 30.309C71.8447 30.1886 71.7439 30.1003 71.6278 30.0361C71.5038 29.9799 71.3411 29.9478 71.1397 29.9478H70.1404V32.8533H71.1552C71.3256 32.8533 71.4651 32.8372 71.5813 32.8051C71.6975 32.773 71.7982 32.7248 71.8679 32.6606C71.9454 32.5964 72.0151 32.5081 72.0615 32.3877C72.1158 32.2674 72.139 32.147 72.139 32.0105C72.139 31.842 72.0925 31.6975 72.0073 31.5691C71.9221 31.4567 71.7982 31.3684 71.6432 31.3123ZM70.4813 30.301H71.0158C71.2094 30.301 71.3411 30.317 71.4186 30.3411C71.4961 30.3652 71.558 30.4133 71.5968 30.4936C71.6355 30.5658 71.6587 30.6541 71.6587 30.7504C71.6587 30.8467 71.6355 30.935 71.589 30.9992C71.5425 31.0634 71.4806 31.1116 71.3876 31.1437C71.3179 31.1678 71.2094 31.1758 71.0545 31.1758H70.4813V30.301ZM71.7207 32.2593C71.682 32.3316 71.6432 32.3797 71.589 32.4198C71.5348 32.46 71.4651 32.4841 71.3876 32.5001C71.3411 32.5081 71.2637 32.5162 71.1475 32.5162H70.489V31.5209H71.101C71.2714 31.5209 71.4031 31.537 71.4883 31.5691C71.5813 31.6012 71.651 31.6574 71.6975 31.7376C71.7517 31.8179 71.7749 31.9142 71.7749 32.0185C71.7749 32.1068 71.7594 32.1951 71.7207 32.2593Z" fill="black"/>
<path d="M74.4784 30.1001C74.2848 29.9717 74.0601 29.9075 73.8122 29.9075C73.4404 29.9075 73.1306 30.0439 72.8904 30.3168C72.658 30.5897 72.5418 30.9669 72.5418 31.4485C72.5418 31.7053 72.5961 31.9461 72.6968 32.1708C72.7975 32.3956 72.9446 32.5802 73.1461 32.7086C73.3397 32.837 73.5644 32.9092 73.82 32.9092C74.0524 32.9092 74.2693 32.853 74.4707 32.7327C74.6721 32.6123 74.827 32.4357 74.9355 32.2029C75.0439 31.9702 75.0982 31.7053 75.0982 31.4083C75.0982 31.1194 75.0439 30.8626 74.9432 30.6298C74.827 30.4051 74.6798 30.2285 74.4784 30.1001ZM74.4629 32.2752C74.2925 32.4758 74.0756 32.5802 73.8122 32.5802C73.5489 32.5802 73.332 32.4758 73.1615 32.2752C72.9911 32.0745 72.9059 31.8016 72.9059 31.4485C72.9059 31.0151 72.9911 30.7021 73.177 30.5175C73.3552 30.3329 73.5721 30.2365 73.82 30.2365C73.9982 30.2365 74.1531 30.2847 74.2925 30.381C74.432 30.4773 74.5404 30.6138 74.6101 30.7903C74.6798 30.9669 74.7186 31.1756 74.7186 31.4083C74.7263 31.7856 74.6334 32.0745 74.4629 32.2752Z" fill="black"/>
<path d="M77.4298 30.1001C77.2362 29.9717 77.0115 29.9075 76.7636 29.9075C76.3918 29.9075 76.0819 30.0439 75.8496 30.3168C75.6094 30.5897 75.4932 30.9669 75.4932 31.4485C75.4932 31.7053 75.5474 31.9461 75.6482 32.1708C75.7489 32.3956 75.9038 32.5802 76.0974 32.7086C76.2911 32.837 76.5157 32.9092 76.7714 32.9092C77.0038 32.9092 77.2207 32.853 77.4143 32.7327C77.6157 32.6123 77.7707 32.4357 77.8791 32.2029C77.9876 31.9702 78.0418 31.7053 78.0418 31.4083C78.0418 31.1194 77.9876 30.8626 77.8869 30.6298C77.7784 30.4051 77.6235 30.2285 77.4298 30.1001ZM77.4143 32.2752C77.2439 32.4758 77.027 32.5802 76.7559 32.5802C76.5003 32.5802 76.2834 32.4758 76.1052 32.2752C75.9348 32.0745 75.8496 31.8016 75.8496 31.4485C75.8496 31.0151 75.9425 30.7021 76.1207 30.5175C76.2989 30.3329 76.5157 30.2365 76.7636 30.2365C76.9418 30.2365 77.0967 30.2847 77.2362 30.381C77.3756 30.4773 77.4841 30.6138 77.5615 30.7903C77.6312 30.9669 77.67 31.1756 77.67 31.4083C77.67 31.7856 77.5848 32.0745 77.4143 32.2752Z" fill="black"/>
<path d="M80.6988 29.9558H80.2263L78.9017 31.3925V29.9558H78.5531V32.8613H78.9017V31.85L79.3354 31.3925L80.2883 32.8613H80.753L79.5833 31.1356L80.6988 29.9558Z" fill="black"/>
<path d="M82.589 32.3958C82.4495 32.5162 82.2868 32.5804 82.0854 32.5804C81.9228 32.5804 81.7756 32.5322 81.6361 32.4439C81.4967 32.3556 81.396 32.2192 81.3263 32.0346C81.2643 31.85 81.2256 31.6333 81.2256 31.3845C81.2256 31.1919 81.2566 31.0073 81.3108 30.8307C81.365 30.6541 81.4657 30.5096 81.5974 30.3973C81.7368 30.2929 81.9073 30.2368 82.1087 30.2368C82.2868 30.2368 82.434 30.2849 82.5502 30.3812C82.6664 30.4775 82.7594 30.63 82.8213 30.8387L83.1699 30.7504C83.1002 30.4856 82.9763 30.2769 82.7904 30.1244C82.6122 29.9799 82.3875 29.8997 82.1164 29.8997C81.884 29.8997 81.6671 29.9558 81.4735 30.0762C81.2798 30.1886 81.1249 30.3652 81.0242 30.5899C80.9157 30.8146 80.8615 31.0795 80.8615 31.3845C80.8615 31.6574 80.908 31.9222 81.0009 32.163C81.0939 32.4038 81.2333 32.5884 81.4115 32.7168C81.5897 32.8452 81.8221 32.9094 82.1087 32.9094C82.3875 32.9094 82.6199 32.8292 82.8136 32.6606C83.0073 32.4921 83.1389 32.2513 83.2087 31.9383L82.8601 31.842C82.8136 32.0828 82.7206 32.2674 82.589 32.3958Z" fill="black"/>
<path d="M84.0453 29.9558H83.6967V32.8613H85.3544V32.5161H84.0453V29.9558Z" fill="black"/>
<path d="M87.477 31.6333C87.477 31.9944 87.4227 32.2432 87.3143 32.3717C87.2058 32.5001 87.0199 32.5643 86.7643 32.5643C86.6094 32.5643 86.4854 32.5322 86.377 32.468C86.2685 32.4038 86.1988 32.3075 86.1523 32.1871C86.1058 32.0667 86.0903 31.8821 86.0903 31.6333V29.9558H85.734V31.6333C85.734 31.9383 85.765 32.1871 85.8347 32.3636C85.9044 32.5402 86.0129 32.6767 86.1756 32.773C86.3382 32.8613 86.5396 32.9094 86.7875 32.9094C87.0432 32.9094 87.2523 32.8532 87.4072 32.7489C87.5622 32.6445 87.6706 32.5001 87.7326 32.3315C87.7946 32.163 87.8255 31.9302 87.8255 31.6333V29.9558H87.4692V31.6333H87.477Z" fill="black"/>
<path d="M90.3509 31.5771C90.2657 31.4567 90.1417 31.3604 89.9791 31.3123C90.103 31.248 90.196 31.1598 90.2579 31.0474C90.3199 30.935 90.3509 30.8227 90.3509 30.6942C90.3509 30.5578 90.3199 30.4374 90.2502 30.309C90.1805 30.1886 90.0875 30.1003 89.9636 30.0361C89.8396 29.9799 89.6769 29.9478 89.4755 29.9478H88.4762V32.8533H89.491C89.6614 32.8533 89.8009 32.8372 89.9171 32.8051C90.0333 32.773 90.134 32.7248 90.2037 32.6606C90.2812 32.5964 90.3509 32.5081 90.3974 32.3877C90.4516 32.2674 90.4748 32.147 90.4748 32.0105C90.4826 31.85 90.4361 31.7055 90.3509 31.5771ZM88.8248 30.301H89.3593C89.553 30.301 89.6847 30.317 89.7622 30.3411C89.8396 30.3652 89.9016 30.4133 89.9403 30.4936C89.979 30.5658 90.0023 30.6541 90.0023 30.7504C90.0023 30.8467 89.979 30.935 89.9326 30.9992C89.8861 31.0634 89.8241 31.1116 89.7312 31.1437C89.6614 31.1678 89.553 31.1758 89.3981 31.1758H88.8248V30.301ZM90.0643 32.2593C90.0255 32.3316 89.9868 32.3797 89.9326 32.4198C89.8783 32.46 89.8086 32.4841 89.7312 32.5001C89.6847 32.5081 89.6072 32.5162 89.491 32.5162H88.8326V31.5209H89.4445C89.615 31.5209 89.7467 31.537 89.8319 31.5691C89.9248 31.6012 89.9945 31.6574 90.041 31.7376C90.0952 31.8179 90.1185 31.9142 90.1185 32.0185C90.1107 32.1068 90.0952 32.1951 90.0643 32.2593Z" fill="black"/>
<path d="M23.8245 22.7484C25.1724 23.535 26.8689 23.9283 28.9139 23.9283C30.9357 23.9283 32.6167 23.4708 33.9723 22.5638C35.328 21.6569 36.3582 20.3727 37.0709 18.7354C37.7836 17.0981 38.1477 14.9952 38.1477 12.4349C38.1477 8.90344 37.3265 6.16654 35.692 4.20818C34.0576 2.24981 31.7259 1.27063 28.697 1.27063C25.7456 1.27063 23.4449 2.26586 21.7872 4.25633C20.1372 6.2468 19.3083 9.03185 19.3083 12.6115C19.3083 15.1718 19.7266 17.3067 20.5633 19.0083C21.3921 20.7178 22.4844 21.9619 23.8245 22.7484ZM25.9548 7.85202C26.6442 6.88889 27.5505 6.3993 28.6815 6.3993C29.8667 6.3993 30.7963 6.87284 31.4935 7.82794C32.1829 8.78305 32.5315 10.2839 32.5315 12.3466C32.5315 14.7946 32.1984 16.4961 31.54 17.4432C30.8815 18.3903 29.9442 18.8638 28.7358 18.8638C27.5583 18.8638 26.6365 18.3822 25.947 17.4111C25.2653 16.448 24.9245 14.8588 24.9245 12.6436C24.9245 10.4123 25.2653 8.81515 25.9548 7.85202Z" fill="black"/>
<path d="M44.5617 22.604C45.9251 23.4949 47.6835 23.9363 49.837 23.9363C51.5877 23.9363 53.106 23.6875 54.3842 23.1979C55.6623 22.7083 57.1342 21.7773 58.7919 20.4128V11.0625H50.1159V15.6213H53.8729V17.684C53.137 18.2137 52.4863 18.5909 51.9131 18.8076C51.3398 19.0243 50.7434 19.1367 50.1159 19.1367C48.7913 19.1367 47.761 18.6311 47.0173 17.6117C46.2737 16.5924 45.9096 14.8989 45.9096 12.5312C45.9096 10.3 46.2737 8.67068 47.0096 7.63532C47.7455 6.60798 48.7215 6.08628 49.9532 6.08628C50.7821 6.08628 51.4638 6.30299 51.9905 6.74442C52.525 7.18585 52.9046 7.81189 53.1293 8.6466L58.5518 7.48282C58.2187 6.07023 57.7306 4.89842 57.0722 3.97542C56.4138 3.05242 55.5849 2.3702 54.5933 1.93679C53.5863 1.48733 52.0835 1.27063 50.0772 1.27063C47.9934 1.27063 46.3356 1.62378 45.104 2.33007C43.5237 3.24505 42.323 4.5854 41.5096 6.35917C40.6885 8.12491 40.2779 10.2037 40.2779 12.6035C40.2779 14.8748 40.6498 16.8894 41.4012 18.6391C42.1448 20.3968 43.1983 21.7131 44.5617 22.604Z" fill="black"/>
<path d="M12.1971 22.9571C13.0957 22.6682 13.9401 22.0903 14.7302 21.2155C15.5126 20.3406 16.1323 19.2651 16.5738 17.9729C17.0154 16.6807 17.24 14.8668 17.24 12.5232C17.24 11.0304 17.0929 9.61776 16.7907 8.2774C16.4886 6.94507 16.0161 5.76524 15.3499 4.76198C14.6915 3.75872 13.8471 2.98019 12.8401 2.44244C11.8563 1.92074 10.5781 1.65588 8.99784 1.63983L0.507746 12.475L0.5 12.4831V23.5591H8.85065C9.84994 23.5591 10.9654 23.3584 12.1971 22.9571ZM5.26406 11.9052C5.2873 11.9052 5.31053 11.9052 5.32603 11.9052C5.41898 11.9052 5.51194 11.9052 5.6049 11.9052C5.49645 11.9052 5.38025 11.9052 5.26406 11.9052ZM5.33377 10.9982C4.41969 10.9982 3.44364 11.1026 2.60703 11.215L6.12391 6.7364L6.22461 6.60798L8.13024 4.17607V6.63206V11.2952C7.61123 11.1828 6.92954 11.0785 6.11616 11.0304C5.96124 11.0223 5.79856 11.0063 5.62814 11.0063C5.53518 11.0063 5.43448 10.9982 5.33377 10.9982ZM6.12391 18.5829V11.9293C7.96756 12.0497 9.00558 12.4831 9.00558 12.4831V6.79258C9.71051 6.99323 10.2605 7.36243 10.6556 7.89215C11.283 8.75094 11.6006 10.3401 11.6006 12.6596C11.6006 14.4174 11.4612 15.6855 11.1823 16.464C10.9035 17.2506 10.5084 17.7963 10.0126 18.1094C9.51685 18.4224 8.68023 18.5829 7.50278 18.5829H6.12391Z" fill="black"/>
<path d="M87.6861 0.909424L80.8538 22.8206H86.5939L87.4847 19.2009H93.8678L94.7818 22.8206H100.669L93.8135 0.909424H87.6861ZM88.6931 14.4655L90.6762 6.59189L92.6826 14.4655H88.6931Z" fill="black"/>
<path d="M117.781 16.4722C117.649 16.1512 117.386 15.7017 116.991 15.1078C116.596 14.5139 116.301 14.1366 116.092 13.952C115.782 13.6791 115.302 13.4143 114.628 13.1414C115.465 12.9086 116.123 12.6197 116.604 12.2746C117.355 11.7288 117.951 11.0145 118.377 10.1316C118.811 9.24874 119.02 8.19732 119.02 6.98538C119.02 5.58885 118.734 4.40901 118.176 3.43785C117.611 2.4667 116.875 1.80053 115.953 1.43936C115.031 1.07819 113.706 0.901611 111.971 0.901611H102.606V22.8128H108.253V13.9279H108.749C109.26 13.9279 109.725 14.0965 110.128 14.4336C110.422 14.6904 110.763 15.2523 111.142 16.1191L114.148 22.8128H120.5L117.781 16.4722ZM113.025 8.79928C112.792 9.16848 112.482 9.39321 112.111 9.48952C111.375 9.69017 110.879 9.78649 110.623 9.78649H108.253V5.33201H110.724C111.747 5.33201 112.451 5.52464 112.823 5.90186C113.195 6.27909 113.381 6.82486 113.381 7.53116C113.381 8.01272 113.265 8.43008 113.025 8.79928Z" fill="black"/>
<path d="M61.2863 18.5989C61.2011 19.3373 61.3172 20.0757 61.6194 20.6857C61.7356 20.9105 61.8672 21.1111 62.0222 21.2797C62.0222 21.2797 62.4637 21.689 62.9672 21.8415L64.4468 22.2027L67.0186 22.8287L72.8362 24.2413L72.8594 24.2894L79.0178 19.0003V17.6117L72.7355 23.0053L67.0186 21.6168L63.037 20.6456C62.7426 20.5734 62.4792 20.3406 62.3088 19.9875C62.1384 19.6343 62.0687 19.2089 62.1151 18.7835L62.2236 17.8846C62.2933 17.3067 62.5644 16.8412 62.9285 16.6486L62.8898 16.6406L72.8362 19.0564L72.8594 19.1046L79.0178 13.8154V12.4269L72.7355 17.8204L63.037 15.4607C62.7426 15.3885 62.4792 15.1558 62.3088 14.8026C62.1384 14.4495 62.0687 14.0241 62.1151 13.5987L62.2236 12.6998C62.2933 12.0978 62.5877 11.6243 62.975 11.4477L64.4546 11.8089L67.0264 12.4349L72.8439 13.8475L72.8672 13.8957L79.0256 8.60647V7.22599L72.7432 12.6195L67.0264 11.231L64.4546 10.605L63.0447 10.2598C62.7503 10.1876 62.487 9.95485 62.3165 9.60171C62.1461 9.24856 62.0764 8.82318 62.1229 8.39779L62.2313 7.49887C62.3243 6.72034 62.7891 6.15852 63.3391 6.15852C63.401 6.15852 63.463 6.16654 63.5327 6.18259L72.9137 8.462L79.0333 3.28518L69.1334 1.33484L62.6419 5.14723C62.6264 5.15526 62.6109 5.17131 62.5877 5.17933L62.5102 5.22749C61.9292 5.60472 61.4954 6.36719 61.387 7.31427L61.2863 8.21319C61.2011 8.95159 61.3172 9.69802 61.6194 10.308C61.7356 10.5408 61.8672 10.7334 62.0222 10.9019C61.6968 11.3113 61.4722 11.8731 61.3947 12.5152L61.2863 13.4141C61.2011 14.1525 61.3172 14.8909 61.6194 15.5009C61.7278 15.7256 61.8595 15.9182 62.0067 16.0868C61.6891 16.4961 61.4722 17.0499 61.3947 17.692L61.2863 18.5989Z" fill="black"/>
</g>
<defs>
<clipPath id="clip0_4_146">
<rect width="120" height="32" fill="white" transform="translate(0.5 0.909424)"/>
</clipPath>
</defs>
</svg>
