<svg width="80" height="80" viewBox="0 0 80 80" fill="none" xmlns="http://www.w3.org/2000/svg">
<path d="M75.5464 46.1404C75.5464 47.4597 75.3075 48.7101 74.8297 49.8917C74.3519 51.0754 73.6352 52.1322 72.6796 53.0641L53.9508 71.2463C51.6759 73.4523 49.1685 75.1289 46.4287 76.2782C43.6889 77.4253 40.7253 78 37.5421 78C35.405 78 33.3453 77.7224 31.3673 77.1649C29.3894 76.6075 27.5342 75.8219 25.806 74.8104C24.0777 73.7988 22.5023 72.5806 21.0818 71.1602C19.6613 69.7375 18.4431 68.1642 17.4316 66.436C16.42 64.7077 15.6345 62.8547 15.077 60.8746C14.5196 58.8967 14.242 56.8391 14.242 54.6998V50.6063L4.96579 25.7758C4.62358 24.8202 4.45355 23.8194 4.45355 22.7734C4.45355 21.6134 4.68169 20.5157 5.13581 19.4827C5.58994 18.4474 6.20978 17.5435 6.99535 16.7708C7.78092 15.9982 8.68917 15.3848 9.72439 14.9285C10.7596 14.4744 11.8573 14.2463 13.0173 14.2463C13.9277 14.2463 14.808 14.3883 15.6603 14.6724C16.5126 14.9565 17.3024 15.3611 18.0321 15.8841C17.9632 15.43 17.8965 14.9694 17.8276 14.5024C17.7587 14.0375 17.7243 13.564 17.7243 13.0862C17.7243 11.9046 17.946 10.7833 18.3893 9.72655C18.8327 8.6698 19.4353 7.75294 20.1972 6.98029C20.9591 6.20763 21.863 5.59425 22.909 5.13797C23.955 4.68385 25.0806 4.45571 26.2859 4.45571C27.4223 4.45571 28.4984 4.66663 29.51 5.08632C30.5215 5.50816 31.4384 6.10433 32.2562 6.87698C32.62 6.14952 33.0741 5.48448 33.6207 4.88185C34.1674 4.27922 34.7743 3.76699 35.4458 3.3473C36.1173 2.92762 36.8383 2.59617 37.611 2.35727C38.3837 2.11837 39.18 2 40 2C41.0912 2 42.12 2.1937 43.0863 2.57895C44.0527 2.96636 44.9157 3.49366 45.6798 4.16516C46.4417 4.83666 47.0723 5.63299 47.5737 6.55415C48.0731 7.47531 48.3916 8.46964 48.5293 9.53931C49.3257 8.72146 50.264 8.07793 51.3445 7.6109C52.4249 7.14601 53.5441 6.91142 54.7041 6.91142C55.8642 6.91142 56.9661 7.1331 58.0121 7.57646C59.0581 8.01982 59.9728 8.62891 60.7584 9.40156C61.5439 10.1742 62.1616 11.0739 62.6179 12.0962C63.072 13.1206 63.3002 14.2226 63.3002 15.4063C63.3002 16.0434 63.2313 16.6697 63.0957 17.2831L58.6255 39.3177C59.2174 38.8399 59.7727 38.4138 60.2978 38.0393C60.8208 37.6648 61.3545 37.3506 61.9012 37.1009C62.4479 36.8513 63.0268 36.6576 63.6402 36.522C64.2536 36.3864 64.9595 36.3175 65.7559 36.3175C67.1204 36.3175 68.3945 36.5736 69.5761 37.0859C70.7577 37.5981 71.7929 38.2976 72.6796 39.1843C73.5664 40.071 74.2659 41.1127 74.7781 42.305C75.2903 43.4974 75.5464 44.7758 75.5464 46.1404ZM70.6673 46.1404C70.6673 45.4581 70.536 44.821 70.2756 44.2292C70.013 43.6373 69.6622 43.1208 69.2188 42.6774C68.7755 42.234 68.2568 41.8811 67.6671 41.6206C67.0752 41.3602 66.4381 41.2289 65.7559 41.2289C65.0284 41.2289 64.4021 41.3538 63.8791 41.6034C63.3561 41.8531 62.8224 42.206 62.2757 42.6602L55.5887 48.3227C55.0872 48.7553 54.5427 48.9706 53.9508 48.9706C53.7464 48.9706 53.5419 48.9426 53.3374 48.8845C53.133 48.8285 52.9393 48.7317 52.7585 48.5939H44.9114C43.3876 48.5939 41.9542 48.8845 40.6134 49.4634C39.2704 50.0424 38.0996 50.8344 37.0988 51.8352C36.098 52.836 35.3081 54.0003 34.727 55.3326C34.148 56.6627 33.8575 58.0896 33.8575 59.6134C33.8575 59.9534 33.7391 60.244 33.5002 60.4829C33.2613 60.7218 32.9708 60.8402 32.6307 60.8402C32.3122 60.8402 32.0345 60.7153 31.7956 60.4657C31.5567 60.216 31.4384 59.9319 31.4384 59.6134C31.4384 57.7495 31.7913 55.9976 32.4951 54.3598C33.1989 52.7219 34.161 51.295 35.377 50.079C36.593 48.8629 38.0199 47.9009 39.6578 47.1971C41.2956 46.4933 43.0454 46.1404 44.9114 46.1404H52.2463L58.3177 16.2565C58.3393 16.1424 58.3565 16.024 58.3694 15.8992C58.3801 15.7744 58.3866 15.656 58.3866 15.5398C58.3866 15.0404 58.2898 14.5626 58.0961 14.1064C57.9024 13.6522 57.6398 13.2541 57.3105 12.9119C56.9812 12.5718 56.5873 12.2985 56.1332 12.094C55.6769 11.8896 55.2013 11.7862 54.6998 11.7862C53.8131 11.7862 53.0447 12.0596 52.3969 12.6041C51.7491 13.1508 51.3229 13.8546 51.1185 14.7198L46.6849 33.8575C46.5708 34.2901 46.3835 34.6302 46.121 34.8798C45.8584 35.1295 45.5011 35.2543 45.047 35.2543C44.6596 35.2543 44.3368 35.1187 44.0742 34.8454C43.8116 34.572 43.6825 34.2428 43.6825 33.8553V10.5595C43.6825 10.0601 43.5856 9.58235 43.3919 9.12608C43.1982 8.67195 42.9313 8.28455 42.5913 7.96602C42.2512 7.64748 41.8574 7.39137 41.414 7.19767C40.9707 7.00396 40.4993 6.90711 39.9978 6.90711C39.4964 6.90711 39.025 7.00396 38.5817 7.19767C38.1383 7.39137 37.7466 7.65394 37.4044 7.98323C37.0643 8.31253 36.7953 8.69993 36.6016 9.14329C36.4079 9.58666 36.3111 10.058 36.3111 10.5595V33.8596C36.3111 34.2471 36.1798 34.5763 35.9193 34.8497C35.6568 35.123 35.3339 35.2586 34.9465 35.2586C34.4235 35.2586 34.0706 35.151 33.8898 34.9336C33.7068 34.7184 33.5712 34.3697 33.4809 33.8941L29.9361 12.5051C29.7768 11.5495 29.3679 10.7876 28.7072 10.2194C28.0464 9.65122 27.2393 9.36713 26.2859 9.36713C25.7629 9.36713 25.2787 9.46398 24.8353 9.65768C24.3919 9.85138 24.0045 10.1075 23.6752 10.426C23.3459 10.7446 23.0834 11.132 22.8897 11.5861C22.696 12.0424 22.5991 12.518 22.5991 13.0195C22.5991 13.2476 22.6099 13.4176 22.6335 13.5317L26.1804 36.5241V36.6942C26.1804 37.1031 25.9867 37.4625 25.6015 37.7681C25.2141 38.0759 24.8288 38.2287 24.4414 38.2287C23.9184 38.2287 23.559 38.1039 23.3675 37.8542C23.1738 37.6046 22.9865 37.2753 22.8036 36.8642C22.8036 36.8427 22.7971 36.8254 22.7864 36.8125C22.7756 36.8018 22.7691 36.7845 22.7691 36.7609L16.4954 21.6134C16.2005 20.8859 15.7442 20.2941 15.1308 19.8399C14.5174 19.3858 13.8115 19.1577 13.0152 19.1577C12.5137 19.1577 12.0424 19.2545 11.599 19.4482C11.1556 19.6419 10.7639 19.9024 10.4217 20.2338C10.0817 20.5631 9.81264 20.9505 9.62109 21.3939C9.42739 21.8372 9.33053 22.3086 9.33053 22.81C9.33053 23.219 9.41017 23.6408 9.56943 24.0712L19.1555 49.7238V54.7041C19.1555 57.2502 19.6376 59.6392 20.6061 61.8689C21.5725 64.0965 22.8854 66.0421 24.5469 67.7015C26.2063 69.3609 28.1519 70.6738 30.3795 71.6423C32.607 72.6086 34.996 73.0929 37.5443 73.0929C40.0237 73.0929 42.3653 72.6323 44.5714 71.7111C46.7774 70.79 48.7682 69.4642 50.5417 67.7359L69.2361 49.5861C69.6902 49.132 70.0432 48.6025 70.2928 47.9999C70.5425 47.3973 70.6673 46.7774 70.6673 46.1404Z" fill="black"/>
</svg>
