<svg width="80" height="80" viewBox="0 0 80 80" fill="none" xmlns="http://www.w3.org/2000/svg">
<path d="M20.9833 2H70.8786V78H20.9833C19.3531 78 17.8166 77.6915 16.374 77.0744C14.9314 76.4573 13.6702 75.6088 12.5903 74.529C11.5104 73.4491 10.6619 72.1879 10.0449 70.7452C9.42987 69.3026 9.12134 67.7662 9.12134 66.1359V13.862C9.12134 12.2317 9.43613 10.6953 10.0636 9.25269C10.6911 7.81007 11.5396 6.55508 12.607 5.48563C13.6743 4.41826 14.9314 3.56978 16.374 2.9402C17.8166 2.31479 19.3531 2 20.9833 2ZM63.7427 73.2406V63.7573H61.364V70.862H20.9833C20.3225 70.862 19.7054 70.7411 19.1321 70.4992C18.5588 70.2574 18.0585 69.9218 17.629 69.4923C17.1996 69.0629 16.8639 68.5625 16.6221 67.9893C16.3803 67.416 16.2594 66.7989 16.2594 66.138C16.2594 65.4772 16.3803 64.8601 16.6221 64.2868C16.8639 63.7135 17.1996 63.2132 17.629 62.7837C18.0585 62.3543 18.5588 62.0124 19.1321 61.7602C19.7054 61.5079 20.3225 61.3807 20.9833 61.3807V6.7573C19.9931 6.7573 19.0675 6.94492 18.2086 7.31808C17.3497 7.69333 16.6013 8.19991 15.9613 8.83783C15.3213 9.47784 14.8147 10.2262 14.4415 11.0851C14.0663 11.944 13.8807 12.8697 13.8807 13.8599V66.1339C13.8807 67.1241 14.0683 68.0497 14.4415 68.9086C14.8168 69.7675 15.3233 70.5159 15.9613 71.1559C16.5992 71.7938 17.3497 72.3004 18.2086 72.6757C19.0675 73.0488 19.9931 73.2365 20.9833 73.2365H63.7427V73.2406ZM58.9833 63.7573H20.9833C20.3433 63.7573 19.7888 63.9929 19.3155 64.4682C18.8423 64.9414 18.6047 65.498 18.6047 66.1359C18.6047 66.7739 18.8402 67.3305 19.3155 67.8037C19.7888 68.2769 20.3454 68.5146 20.9833 68.5146H58.9833V63.7573ZM66.1213 61.3786V6.7573H23.362V61.3786H66.1213ZM35.2594 28.138C35.2594 27.5001 35.0217 26.9435 34.5485 26.4703C34.0753 25.997 33.5186 25.7594 32.8807 25.7594V18.6214C33.5186 18.6214 34.0753 18.3858 34.5485 17.9105C35.0217 17.4372 35.2594 16.8806 35.2594 16.2427H51.8807C51.8807 16.9036 52.1121 17.4643 52.5749 17.9271C53.0377 18.3899 53.5985 18.6214 54.2594 18.6214V25.7594C53.5985 25.7594 53.0356 25.9908 52.5749 26.4536C52.1121 26.9164 51.8807 27.4772 51.8807 28.138H35.2594Z" fill="black"/>
</svg>
