<svg width="80" height="80" viewBox="0 0 80 80" fill="none" xmlns="http://www.w3.org/2000/svg">
<path d="M40 2C43.5023 2 46.8733 2.45238 50.1108 3.35506C53.3484 4.25774 56.3733 5.53566 59.1814 7.18883C61.9895 8.83992 64.5516 10.8225 66.8635 13.1365C69.1775 15.4484 71.1601 18.0105 72.8112 20.8186C74.4643 23.6267 75.7402 26.6516 76.6449 29.8892C77.5476 33.1267 78 36.4977 78 40C78 43.5023 77.5476 46.8733 76.6449 50.1108C75.7423 53.3484 74.4643 56.3733 72.8112 59.1814C71.1601 61.9895 69.1755 64.5516 66.8635 66.8635C64.5495 69.1755 61.9895 71.1601 59.1814 72.8112C56.3733 74.4623 53.3484 75.7402 50.1108 76.6449C46.8733 77.5476 43.5023 78 40 78C36.4977 78 33.1267 77.5476 29.8892 76.6449C26.6516 75.7423 23.6267 74.4643 20.8186 72.8112C18.0105 71.158 15.4484 69.1755 13.1365 66.8635C10.8225 64.5495 8.83992 61.9895 7.18883 59.1814C5.53566 56.3733 4.25982 53.3484 3.35506 50.1108C2.45238 46.8733 2 43.5023 2 40C2 36.4977 2.4503 33.1267 3.35506 29.8892C4.25774 26.6516 5.53566 23.6267 7.18883 20.8186C8.83992 18.0105 10.8246 15.4484 13.1365 13.1365C15.4505 10.8225 18.0105 8.83992 20.8186 7.18883C23.6267 5.53566 26.6516 4.25982 29.8892 3.35506C33.1267 2.45238 36.4977 2 40 2ZM40 73.2406C43.0624 73.2406 46.0081 72.8445 48.8391 72.0503C51.6702 71.2581 54.3178 70.1386 56.786 68.696C59.2523 67.2533 61.4954 65.523 63.5092 63.5092C65.5251 61.4933 67.2533 59.2523 68.6981 56.784C70.1407 54.3178 71.2581 51.6681 72.0523 48.8371C72.8445 46.006 73.2427 43.0603 73.2427 39.9979C73.2427 36.9355 72.8466 33.9898 72.0523 31.1588C71.2602 28.3277 70.1407 25.6802 68.6981 23.2119C67.2554 20.7457 65.5251 18.5025 63.5092 16.4866C61.4933 14.4707 59.2523 12.7425 56.786 11.2999C54.3178 9.85725 51.6702 8.73985 48.8391 7.94558C46.0081 7.15339 43.0624 6.75521 40 6.75521C36.9376 6.75521 33.9919 7.15131 31.1609 7.94558C28.3298 8.73777 25.6802 9.85725 23.214 11.2999C20.7457 12.7446 18.5046 14.4728 16.4887 16.4887C14.4728 18.5046 12.7446 20.7457 11.302 23.214C9.85934 25.6802 8.74194 28.3298 7.94766 31.1609C7.15548 33.9919 6.7573 36.9376 6.7573 40C6.7573 43.0624 7.15339 46.0081 7.94766 48.8391C8.73985 51.6702 9.85934 54.3198 11.302 56.786C12.7446 59.2543 14.4749 61.4954 16.4887 63.5113C18.5046 65.5272 20.7457 67.2554 23.214 68.6981C25.6802 70.1407 28.3298 71.2581 31.1609 72.0523C33.9919 72.8445 36.9376 73.2406 40 73.2406ZM26.9477 25.7573C27.4313 25.7573 27.8899 25.8511 28.3194 26.0387C28.7488 26.2264 29.1283 26.4849 29.4597 26.8142C29.7912 27.1436 30.0497 27.5251 30.2373 27.9546C30.425 28.384 30.5188 28.8406 30.5188 29.3263V34.0523C30.5188 34.5381 30.425 34.9946 30.2373 35.4241C30.0497 35.8535 29.7912 36.2329 29.4597 36.5644C29.1304 36.8959 28.7488 37.1544 28.3194 37.342C27.8899 37.5296 27.4334 37.6234 26.9477 37.6234C26.4411 37.6234 25.972 37.5296 25.5426 37.342C25.1131 37.1544 24.7379 36.9021 24.4189 36.5811C24.1 36.2621 23.8456 35.8869 23.658 35.4574C23.4704 35.028 23.3766 34.561 23.3766 34.0523V29.3263C23.3766 28.8427 23.4704 28.3799 23.658 27.9379C23.8456 27.498 24.0979 27.1186 24.4189 26.7976C24.7379 26.4786 25.1131 26.2243 25.5426 26.0366C25.972 25.8511 26.4411 25.7573 26.9477 25.7573ZM53.0523 25.7573C53.536 25.7573 53.9988 25.8511 54.4408 26.0387C54.8806 26.2264 55.2621 26.4807 55.5811 26.7997C55.9 27.1186 56.1544 27.5001 56.342 27.94C56.5296 28.3819 56.6234 28.8427 56.6234 29.3284V34.0544C56.6234 34.561 56.5296 35.0301 56.342 35.4595C56.1544 35.889 55.9021 36.2642 55.5811 36.5832C55.2621 36.9021 54.8806 37.1565 54.4408 37.3441C53.9988 37.5317 53.5381 37.6255 53.0523 37.6255C52.5458 37.6255 52.0767 37.5317 51.6472 37.3441C51.2178 37.1565 50.8488 36.898 50.5403 36.5665C50.2317 36.2371 49.9837 35.8556 49.796 35.4262C49.6084 34.9967 49.5146 34.5402 49.5146 34.0544V29.3284C49.5146 28.8447 49.6084 28.3861 49.796 27.9567C49.9837 27.5272 50.2317 27.1478 50.5403 26.8163C50.8488 26.4869 51.2178 26.2264 51.6472 26.0408C52.0767 25.8511 52.5437 25.7573 53.0523 25.7573Z" fill="black"/>
</svg>
