<svg width="80" height="80" viewBox="0 0 80 80" fill="none" xmlns="http://www.w3.org/2000/svg">
<path d="M75.6158 2V6.7553C75.6158 9.22101 75.2049 11.6215 74.3764 13.9567C73.548 16.292 72.3804 18.4316 70.8605 20.3689V28.9271C72.3151 29.612 73.4697 30.6296 74.3308 31.9864C75.1918 33.3432 75.6223 34.824 75.6223 36.4286V43.5648C75.6223 45.2413 75.1657 46.7611 74.2525 48.1245C73.3393 49.4878 72.1195 50.5184 70.5996 51.1968C70.2669 53.7538 69.6407 56.1869 68.7144 58.5026C67.7882 60.8183 66.6205 62.9709 65.2116 64.9604C63.8026 66.9565 62.1783 68.7503 60.3388 70.3485C58.4993 71.9466 56.5033 73.3099 54.3442 74.4449C52.185 75.5799 49.902 76.454 47.4884 77.0737C45.0749 77.6869 42.5831 78 40.0065 78C37.4299 78 34.9316 77.6934 32.5246 77.0737C30.111 76.454 27.828 75.5799 25.6688 74.4449C23.5097 73.3099 21.5137 71.9401 19.6742 70.3289C17.8347 68.7242 16.2104 66.9239 14.8015 64.9409C13.3925 62.9579 12.2248 60.8118 11.2986 58.4961C10.3723 56.1804 9.74609 53.7473 9.41342 51.1903C8.66327 50.8576 7.97835 50.4271 7.36518 49.8987C6.74549 49.3704 6.21712 48.7768 5.78008 48.1114C5.33651 47.4526 4.99731 46.735 4.75596 45.9653C4.50156 45.2087 4.37762 44.4063 4.37762 43.5648V36.4286C4.37762 34.824 4.80815 33.3367 5.66919 31.9864C6.53023 30.6296 7.68481 29.612 9.13945 28.9271V16.8008C8.3893 16.142 7.80875 15.3462 7.39127 14.4199C6.9738 13.4936 6.76506 12.5282 6.76506 11.5106C6.76506 10.5387 6.95423 9.61892 7.32604 8.75135C7.69785 7.88379 8.20665 7.12059 8.84591 6.46829C9.48517 5.81598 10.2418 5.30718 11.1094 4.92885C11.977 4.55703 12.8967 4.36787 13.8687 4.36787C14.9906 4.36787 16.0408 4.60922 17.0062 5.09192C17.9782 5.57463 18.8131 6.2465 19.5176 7.10754C21.8333 5.39198 24.3055 4.10694 26.9539 3.25895C29.5892 2.424 32.355 2 35.2382 2H75.6158ZM70.8605 43.5648V36.4286C70.8605 35.9459 70.7692 35.4893 70.58 35.0588C70.3908 34.6283 70.1365 34.2499 69.8168 33.9173C69.4972 33.5846 69.1254 33.3302 68.6949 33.141C68.2643 32.9519 67.8077 32.8605 67.325 32.8605H66.1378V35.2414H61.3825V32.8605H18.6174V35.2414H13.8621V32.8605H12.7076C12.2248 32.8605 11.7682 32.9519 11.3377 33.141C10.9072 33.3302 10.5289 33.5846 10.1962 33.9173C9.86351 34.2499 9.60911 34.6283 9.41994 35.0588C9.23077 35.4893 9.13945 35.9459 9.13945 36.4286V43.5648C9.13945 44.0476 9.23077 44.5042 9.41994 44.9347C9.60911 45.3652 9.86351 45.7435 10.1962 46.0762C10.5289 46.4089 10.9072 46.6633 11.3377 46.8525C11.7682 47.0416 12.2248 47.133 12.7076 47.133H13.8621C13.8621 49.5334 14.1752 51.8491 14.8015 54.0735C15.4277 56.2978 16.3083 58.3722 17.4433 60.303C18.5783 62.2338 19.9351 63.995 21.5267 65.5866C23.1118 67.1848 24.873 68.5481 26.8104 69.6831C28.7477 70.8181 30.8286 71.6922 33.0529 72.3119C35.2773 72.9316 37.593 73.2382 39.9935 73.2382C42.3939 73.2382 44.7096 72.9316 46.934 72.3119C49.1583 71.6922 51.2392 70.8181 53.1765 69.6831C55.1139 68.5481 56.8751 67.1848 58.4602 65.5866C60.0453 63.9885 61.4086 62.2273 62.5436 60.303C63.6786 58.3787 64.5592 56.2978 65.1855 54.0735C65.8117 51.8491 66.1248 49.5334 66.1248 47.133H67.312C67.7947 47.133 68.2513 47.0416 68.6818 46.8525C69.1123 46.6633 69.4841 46.4089 69.8038 46.0762C70.1234 45.7435 70.3778 45.3652 70.567 44.9347C70.7627 44.5107 70.8605 44.0541 70.8605 43.5648ZM15.1798 9.5015C14.958 9.43627 14.7427 9.358 14.534 9.2732C14.3253 9.1884 14.097 9.14273 13.8556 9.14273C13.2164 9.14273 12.6684 9.37756 12.2053 9.85375C11.7421 10.3299 11.5138 10.8844 11.5138 11.5236C11.5138 11.8302 11.5725 12.1433 11.6965 12.463C11.8204 12.7826 12.0096 13.0435 12.277 13.2392C12.7141 13.6567 13.249 13.8654 13.8621 13.8654V30.5188H66.1378V13.8654C66.7771 13.8654 67.3315 13.6371 67.8077 13.174C68.2839 12.7108 68.5187 12.1629 68.5187 11.5236C68.5187 10.8844 68.2839 10.3299 67.8077 9.85375C67.3315 9.37756 66.7771 9.14273 66.1378 9.14273C65.479 9.14273 64.918 9.37104 64.4549 9.83418C63.9917 10.2973 63.7634 10.8583 63.7634 11.5171C63.7634 11.8889 63.8548 12.2347 64.0439 12.5412C64.2331 12.8478 64.4549 13.1283 64.7223 13.3697C63.7308 14.6221 62.7785 15.9006 61.8652 17.1856C60.952 18.4707 59.9996 19.7492 59.0081 21.0016H56.6272L50.913 13.3697C51.2 13.0631 51.4284 12.7891 51.6045 12.5412C51.7806 12.2999 51.8719 11.9607 51.8719 11.5171C51.8719 10.8583 51.6436 10.2973 51.1935 9.83418C50.7434 9.37104 50.189 9.14273 49.5236 9.14273C48.7539 9.14273 48.1603 9.39061 47.7559 9.88636C47.3515 10.3821 47.1427 10.9953 47.1427 11.7193C47.1427 12.0716 47.2275 12.3651 47.4102 12.5934C47.5863 12.8217 47.795 13.0631 48.0364 13.3044L42.3874 21.0016H37.6321C36.6863 19.7231 35.7404 18.4446 34.8076 17.1661C33.8683 15.8876 32.9094 14.6221 31.9179 13.3631C32.2049 13.1414 32.4332 12.8739 32.6094 12.5543C32.7855 12.2347 32.8768 11.8889 32.8768 11.5106C32.8768 10.8713 32.6485 10.3169 32.1854 9.8407C31.7222 9.36452 31.1743 9.12969 30.535 9.12969C29.8762 9.12969 29.3152 9.358 28.8521 9.82113C28.389 10.2843 28.1606 10.8452 28.1606 11.5041C28.1606 11.8759 28.2454 12.2281 28.4281 12.5478C28.6042 12.8674 28.8325 13.1348 29.1195 13.3566L23.4053 20.9886H21.0244C20.0329 19.7362 19.0675 18.4642 18.1347 17.1856C17.1954 15.9071 16.2561 14.6286 15.3102 13.3501C15.6168 13.1544 15.8582 12.8804 16.0213 12.5412C16.1843 12.202 16.2691 11.8498 16.2691 11.4976C16.2691 11.0344 16.1713 10.6626 15.9691 10.3756C15.7408 10.1081 15.4929 9.80809 15.1798 9.5015ZM23.3793 28.1378C22.7204 28.1378 22.1594 27.9095 21.6963 27.4464C21.2332 26.9833 21.0049 26.4223 21.0049 25.7635C21.0049 25.1046 21.2332 24.5436 21.6963 24.0805C22.1594 23.6174 22.7204 23.3891 23.3793 23.3891C24.0381 23.3891 24.5991 23.6174 25.0622 24.0805C25.5253 24.5436 25.7536 25.1046 25.7536 25.7635C25.7536 26.4223 25.5253 26.9833 25.0622 27.4464C24.5991 27.903 24.0381 28.1378 23.3793 28.1378ZM30.5155 41.1905C30.5155 41.6732 30.4241 42.1298 30.235 42.5603C30.0458 42.9908 29.7914 43.3692 29.4587 43.7018C29.1261 44.0345 28.7477 44.2889 28.3172 44.4781C27.8867 44.6672 27.4301 44.7586 26.9474 44.7586C26.4386 44.7586 25.9754 44.6672 25.5449 44.4781C25.1144 44.2889 24.7426 44.0345 24.4229 43.7149C24.1033 43.3952 23.8489 43.0234 23.6597 42.5929C23.4706 42.1624 23.3793 41.6927 23.3793 41.1905V36.4352C23.3793 35.9524 23.4706 35.4893 23.6597 35.0457C23.8489 34.6022 24.1033 34.2304 24.436 33.9238C24.7687 33.6172 25.147 33.3693 25.5775 33.1802C26.008 32.991 26.4647 32.8997 26.9474 32.8997C27.4301 32.8997 27.8867 32.991 28.3172 33.1802C28.7477 33.3693 29.1261 33.6237 29.4587 33.9434C29.7914 34.263 30.0458 34.6348 30.235 35.0653C30.4241 35.4958 30.5155 35.9524 30.5155 36.4352V41.1905ZM40 58.9658C40.7958 58.9658 41.5394 58.9136 42.2439 58.8157C42.9484 58.7179 43.6398 58.5809 44.3117 58.4048C44.9836 58.2287 45.6489 58.0134 46.3078 57.759C46.9666 57.5046 47.6646 57.2241 48.3886 56.9175C48.5647 56.8327 48.7474 56.7544 48.9366 56.7023C49.1257 56.6501 49.3149 56.6175 49.5171 56.6175C50.1564 56.6175 50.7108 56.8523 51.187 57.3285C51.6632 57.8047 51.898 58.3591 51.898 58.9984C51.898 59.5724 51.6697 60.0877 51.2066 60.5509C50.7434 61.014 50.1433 61.4184 49.4062 61.7707C48.6691 62.1229 47.8407 62.423 46.9275 62.6774C46.0142 62.9318 45.114 63.134 44.2334 63.2905C43.3528 63.4471 42.5374 63.558 41.7873 63.6363C41.0371 63.7145 40.4435 63.7537 40 63.7537C39.5564 63.7537 38.9628 63.7145 38.2127 63.6363C37.4625 63.558 36.6471 63.4471 35.7665 63.2905C34.8859 63.134 33.9857 62.9318 33.0725 62.6774C32.1593 62.423 31.3308 62.1229 30.5937 61.7707C29.8566 61.4184 29.2565 61.0075 28.7934 60.5509C28.3302 60.0877 28.1019 59.5724 28.1019 58.9984C28.1019 58.3591 28.3368 57.8047 28.813 57.3285C29.2891 56.8523 29.8436 56.6175 30.4829 56.6175C30.6785 56.6175 30.8742 56.6436 31.0634 56.7023C31.2526 56.7544 31.4287 56.8262 31.6113 56.9175C32.3354 57.2241 33.0334 57.5046 33.6922 57.759C34.351 58.0134 35.0164 58.2287 35.6882 58.4048C36.3601 58.5809 37.045 58.7179 37.7561 58.8157C38.454 58.9136 39.2042 58.9658 40 58.9658ZM40 51.8622C39.3412 51.8622 38.7215 51.7382 38.1474 51.4969C37.5734 51.2555 37.0711 50.9163 36.6471 50.4923C36.2231 50.0683 35.8774 49.5595 35.623 48.992C35.3686 48.418 35.2447 47.8048 35.2447 47.1395H44.7553C44.7553 47.7983 44.6313 48.418 44.3769 48.992C44.1225 49.566 43.7833 50.0683 43.3528 50.4923C42.9223 50.9228 42.42 51.2555 41.8525 51.4969C41.272 51.7382 40.6588 51.8622 40 51.8622ZM40 28.1378C39.3412 28.1378 38.7802 27.9095 38.317 27.4464C37.8539 26.9833 37.6256 26.4223 37.6256 25.7635C37.6256 25.1242 37.8604 24.5697 38.3366 24.0936C38.8128 23.6174 39.3672 23.3825 40.0065 23.3825C40.6458 23.3825 41.2002 23.6174 41.6764 24.0936C42.1526 24.5697 42.3874 25.1242 42.3874 25.7635C42.3874 26.4223 42.1526 26.9833 41.696 27.4464C41.2198 27.903 40.6588 28.1378 40 28.1378ZM53.0461 32.8931C53.5288 32.8931 53.9854 32.9845 54.4159 33.1736C54.8464 33.3628 55.2248 33.6107 55.5574 33.9173C55.8901 34.2238 56.1445 34.6022 56.3337 35.0392C56.5229 35.4828 56.6142 35.9394 56.6142 36.4286V41.1839C56.6142 41.6927 56.5229 42.1559 56.3337 42.5864C56.1445 43.0169 55.8901 43.3887 55.5705 43.7084C55.2509 44.028 54.8725 44.2824 54.429 44.4715C53.9854 44.6607 53.5288 44.752 53.0395 44.752C52.5307 44.752 52.0611 44.6607 51.6371 44.4715C51.2131 44.2824 50.8413 44.028 50.5282 43.6953C50.2216 43.3626 49.9737 42.9843 49.7845 42.5538C49.5954 42.1232 49.5041 41.6666 49.5041 41.1839V36.4286C49.5041 35.9459 49.5954 35.4893 49.7845 35.0588C49.9737 34.6283 50.2281 34.2565 50.5477 33.9368C50.8674 33.6172 51.2392 33.3628 51.6697 33.1736C52.1068 32.991 52.5634 32.8931 53.0461 32.8931ZM56.6142 28.1378C55.9749 28.1378 55.4205 27.903 54.9443 27.4268C54.4681 26.9506 54.2333 26.3962 54.2333 25.7569C54.2333 25.0981 54.4616 24.5371 54.9247 24.074C55.3878 23.6108 55.9488 23.3825 56.6077 23.3825C57.2665 23.3825 57.8275 23.6108 58.2906 24.074C58.7537 24.5371 58.982 25.0981 58.982 25.7569C58.982 26.4158 58.7537 26.9767 58.2906 27.4399C57.8405 27.903 57.2795 28.1378 56.6142 28.1378Z" fill="black"/>
</svg>
