<svg width="80" height="80" viewBox="0 0 80 80" fill="none" xmlns="http://www.w3.org/2000/svg">
<path d="M68.3176 21.6609C69.2432 22.0132 70.0792 22.4864 70.8297 23.0826C71.5781 23.6768 72.2181 24.3605 72.7455 25.1319C73.275 25.9032 73.6878 26.7454 73.9859 27.6606C74.284 28.5758 74.432 29.5285 74.432 30.5188V49.5188C74.432 50.2672 74.3174 50.9885 74.086 51.6827C73.8546 52.3769 73.5356 53.0148 73.127 53.5985C72.7184 54.1822 72.2243 54.7013 71.6406 55.1516C71.0569 55.604 70.4127 55.9605 69.7081 56.2253V67.9559C70.4565 68.6167 71.036 69.4152 71.4426 70.3512C71.8491 71.2873 72.0534 72.2504 72.0534 73.2427V78H43.568C43.568 77.4496 43.5576 76.9035 43.5346 76.3635C43.5117 75.8236 43.5013 75.2899 43.5013 74.7604C43.5013 73.4824 43.6451 72.265 43.9307 71.1101C44.2163 69.953 44.8897 68.9024 45.9466 67.9538V50.607L45.8486 50.805C45.6944 50.9155 45.5568 51.0427 45.4359 51.1844C45.315 51.3283 45.1878 51.4659 45.0565 51.5972C44.3518 52.3018 43.5867 52.8314 42.7591 53.1837C41.9336 53.536 41.0121 53.7132 39.999 53.7132C39.3819 53.7132 38.8253 53.659 38.3312 53.5485C37.835 53.438 37.3722 53.2733 36.9428 53.0523C36.5133 52.8314 36.1006 52.5562 35.7045 52.2268C35.3084 51.8974 34.9123 51.5222 34.5141 51.1031C34.4265 51.0156 34.3432 50.9322 34.266 50.8551C34.1889 50.7779 34.118 50.6841 34.0513 50.5736V67.9538C34.8226 68.6147 35.4105 69.4069 35.8191 70.3325C36.2256 71.2581 36.4299 72.2275 36.4299 73.2406V77.9979H7.94663C7.94663 77.4476 7.9362 76.9014 7.91327 76.3614C7.89034 75.8215 7.87992 75.2878 7.87992 74.7583C7.87992 73.4804 8.02376 72.2629 8.30936 71.108C8.59497 69.951 9.26833 68.9003 10.3253 67.9517V56.2232C9.62064 55.9584 8.97647 55.6061 8.39275 55.1662C7.80904 54.7264 7.30662 54.2073 6.88968 53.6131C6.47066 53.019 6.14544 52.3748 5.91404 51.6806C5.68264 50.9864 5.56798 50.2651 5.56798 49.5167V30.5167C5.56798 29.5264 5.71599 28.5737 6.0141 27.6585C6.31222 26.7454 6.72499 25.9011 7.25242 25.1298C7.78193 24.3585 8.41985 23.6768 9.16826 23.0805C9.91667 22.4864 10.7547 22.0132 11.6803 21.6588C10.7777 19.9848 10.3253 18.1794 10.3253 16.2406V13.862C10.3253 12.2317 10.6338 10.6953 11.2509 9.25269C11.868 7.81007 12.7164 6.55508 13.7942 5.48563C14.8741 4.41826 16.1353 3.56978 17.578 2.9402C19.0227 2.31479 20.5591 2 22.1893 2C23.8196 2 25.356 2.31479 26.7986 2.94229C28.2412 3.56978 29.4962 4.41826 30.5657 5.48771C31.633 6.55717 32.4815 7.81216 33.1111 9.25477C33.7386 10.6974 34.0534 12.2338 34.0534 13.8641V14.4916C34.0534 15.0857 34.0471 15.6527 34.0367 16.1927C34.0263 16.7326 33.9867 17.2621 33.922 17.7791C33.8553 18.2961 33.7574 18.8152 33.6239 19.3322C33.4926 19.8492 33.305 20.4059 33.0631 21L40.001 32.3992L46.941 21C46.6096 20.2516 46.3615 19.474 46.1968 18.6714C46.0321 17.8667 45.9487 17.0578 45.9487 16.2427V13.862C45.9487 12.2317 46.2572 10.6953 46.8743 9.25269C47.4914 7.81007 48.3399 6.55508 49.4197 5.48563C50.4996 4.41826 51.7609 3.56978 53.2035 2.9402C54.6419 2.31479 56.1784 2 57.8086 2C59.4159 2 60.9419 2.31479 62.3845 2.94229C63.8271 3.56978 65.0946 4.42451 66.1849 5.5023C67.2752 6.58218 68.1341 7.84343 68.7616 9.28604C69.3891 10.7287 69.7039 12.2547 69.7039 13.862V14.3915C69.7039 15.0961 69.6977 15.7465 69.6872 16.3407C69.6768 16.9348 69.6268 17.5144 69.5392 18.0752C69.4517 18.6359 69.312 19.2092 69.1265 19.793C68.9388 20.3767 68.6699 21 68.3176 21.6609ZM10.3253 34.0523H16.2417V47.138H29.3274V32.8953L29.9882 34.0523H35.4731L31.3766 26.9477C30.9138 26.1763 30.23 25.7907 29.3274 25.7907H15.0513C14.3904 25.7907 13.7671 25.9178 13.1834 26.1701C12.5997 26.4244 12.0973 26.7642 11.6803 27.1937C11.2613 27.6231 10.9319 28.1255 10.688 28.6967C10.4462 29.27 10.3253 29.8746 10.3253 30.5146V34.0523ZM10.3253 49.5167C10.3253 50.1567 10.5608 50.707 11.0362 51.1678C11.5094 51.6306 12.066 51.862 12.7039 51.862C13.3418 51.862 13.8943 51.6306 14.355 51.1678C14.8178 50.705 15.0492 50.1546 15.0492 49.5167V35.2427H10.3253V49.5167ZM19.8086 68.5167H15.0513V70.862C14.4113 70.862 13.8609 71.0975 13.4002 71.5729C12.9374 72.0461 12.706 72.6027 12.706 73.2406H19.8107V68.5167H19.8086ZM15.0513 16.2406C15.0513 17.2309 15.2389 18.1565 15.6121 19.0154C15.9873 19.8743 16.4981 20.6289 17.1485 21.2794C17.7989 21.9298 18.5536 22.4405 19.4125 22.8158C20.2714 23.191 21.197 23.3766 22.1872 23.3766C23.1775 23.3766 24.1031 23.1889 24.962 22.8158C25.8209 22.4405 26.5755 21.9298 27.226 21.2794C27.8764 20.6289 28.3872 19.8743 28.7624 19.0154C29.1377 18.1565 29.3232 17.2309 29.3232 16.2406V13.862H17.4299L15.0513 16.2406ZM18.6203 18.6214C18.2888 18.6214 18.0095 18.5067 17.7781 18.2753C17.5467 18.0439 17.432 17.7625 17.432 17.4331C17.432 17.1037 17.5488 16.8223 17.7781 16.5908C18.0074 16.3594 18.2909 16.2448 18.6203 16.2448C18.9497 16.2448 19.2311 16.3594 19.4625 16.5908C19.6939 16.8223 19.8086 17.1037 19.8086 17.4331C19.8086 17.7625 19.6919 18.0439 19.4625 18.2753C19.2311 18.5046 18.9497 18.6214 18.6203 18.6214ZM25.7583 18.6214C25.429 18.6214 25.1475 18.5067 24.9161 18.2753C24.6847 18.0439 24.5701 17.7625 24.5701 17.4331C24.5701 17.1037 24.6847 16.8223 24.9161 16.5908C25.1475 16.3594 25.429 16.2448 25.7583 16.2448C26.0877 16.2448 26.3692 16.3594 26.6006 16.5908C26.832 16.8223 26.9466 17.1037 26.9466 17.4331C26.9466 17.7625 26.832 18.0439 26.6006 18.2753C26.3692 18.5046 26.0877 18.6214 25.7583 18.6214ZM31.706 73.2406C31.706 72.6006 31.4684 72.0461 30.9951 71.5729C30.5219 71.0996 29.9653 70.862 29.3274 70.862V68.5167H24.568V73.2427H31.706V73.2406ZM36.628 45.5516C37.0032 44.6927 37.4327 43.8713 37.9163 43.0895C38.4 42.3078 38.8628 41.5093 39.3048 40.6942L36.1652 35.2427H30.6803L36.628 45.5516ZM39.999 48.9872C40.3951 48.9872 40.787 48.8829 41.1726 48.6724C41.5583 48.4639 41.8502 48.1825 42.0482 47.8302L49.3176 35.2406H43.8327C43.1927 36.3643 42.5548 37.4713 41.9169 38.5616C41.2769 39.6519 40.639 40.7588 40.001 41.8825L37.9518 45.4515C37.7537 45.8268 37.6537 46.2124 37.6537 46.6085C37.6537 47.2485 37.8851 47.8031 38.3479 48.2763C38.8086 48.7516 39.359 48.9872 39.999 48.9872ZM69.7039 30.5167C69.7039 29.8558 69.5768 29.2388 69.3245 28.6655C69.0702 28.0922 68.7304 27.5918 68.3009 27.1624C67.8715 26.7329 67.3711 26.391 66.7978 26.1388C66.2245 25.8865 65.6075 25.7594 64.9466 25.7594H50.706C50.287 25.7594 49.8909 25.8636 49.5156 26.0742C49.1404 26.2847 48.8444 26.5766 48.6234 26.9497L44.5269 34.0544H50.0118L50.6726 32.8974V47.1401H63.7583V34.0544H69.706V30.5167H69.7039ZM55.4299 68.5167H50.7039V70.862C50.0639 70.862 49.5094 71.0975 49.0362 71.5729C48.5629 72.0461 48.3253 72.6027 48.3253 73.2406H55.4299V68.5167ZM50.7039 16.2406C50.7039 17.2309 50.8915 18.1565 51.2668 19.0154C51.64 19.8743 52.1465 20.6289 52.7865 21.2794C53.4245 21.9298 54.175 22.4405 55.0339 22.8158C55.8927 23.191 56.8184 23.3766 57.8086 23.3766C58.7988 23.3766 59.7244 23.1889 60.5833 22.8158C61.4422 22.4405 62.1969 21.9298 62.8473 21.2794C63.4978 20.6289 64.0085 19.8743 64.3838 19.0154C64.7569 18.1565 64.9445 17.2309 64.9445 16.2406V13.862H53.0492L50.7039 16.2406ZM54.2417 18.6214C53.9331 18.6214 53.6579 18.5004 53.4161 18.2586C53.1743 18.0168 53.0534 17.7416 53.0534 17.4331C53.0534 17.1245 53.1743 16.8494 53.4161 16.6075C53.6579 16.3657 53.9331 16.2448 54.2417 16.2448C54.571 16.2448 54.8525 16.3594 55.0839 16.5908C55.3153 16.8223 55.4299 17.1037 55.4299 17.4331C55.4299 17.7625 55.3153 18.0439 55.0839 18.2753C54.8525 18.5046 54.571 18.6214 54.2417 18.6214ZM61.3776 18.6214C61.0461 18.6214 60.7668 18.5067 60.5354 18.2753C60.304 18.0439 60.1893 17.7625 60.1893 17.4331C60.1893 17.1037 60.304 16.8223 60.5354 16.5908C60.7668 16.3594 61.0482 16.2448 61.3776 16.2448C61.707 16.2448 61.9884 16.3594 62.2198 16.5908C62.4512 16.8223 62.5659 17.1037 62.5659 17.4331C62.5659 17.7625 62.4512 18.0439 62.2198 18.2753C61.9884 18.5046 61.7091 18.6214 61.3776 18.6214ZM67.3253 73.2406C67.3253 72.6006 67.0876 72.0461 66.6144 71.5729C66.1412 71.0996 65.5845 70.862 64.9466 70.862V68.5167H60.1872V73.2427H67.3253V73.2406ZM69.7039 35.2406H64.9466V49.5146C64.9466 50.1546 65.1822 50.705 65.6575 51.1657C66.1307 51.6285 66.6874 51.8599 67.3253 51.8599C67.9632 51.8599 68.5198 51.6285 68.9951 51.1657C69.4683 50.7029 69.706 50.1525 69.706 49.5146V35.2406H69.7039Z" fill="black"/>
</svg>
