<svg width="80" height="80" viewBox="0 0 80 80" fill="none" xmlns="http://www.w3.org/2000/svg">
<path d="M51.1511 54.9019C52.9123 56.7283 54.7062 58.5091 56.5392 60.2377C58.3656 61.9664 60.2182 63.6884 62.0903 65.4105L53.6951 78H41.6666C41.6666 77.4521 41.6601 76.9041 41.6536 76.3627C41.6405 75.8213 41.634 75.2799 41.634 74.7254C41.634 73.4013 41.7514 72.1619 41.9797 70.9942C42.208 69.8266 42.7364 68.6916 43.5518 67.5892L36.9113 60.8183V78H17.9097V73.2447C17.9097 71.5291 18.3337 69.9375 19.1817 68.4894C20.0297 67.0348 21.1908 65.8802 22.665 65.0191V53.1472C22.665 52.4427 22.7693 51.7643 22.9781 51.112C23.1868 50.4597 23.4804 49.827 23.8522 49.2138L27.3877 43.3952V30.5122C27.3877 29.5403 27.5312 28.6075 27.8182 27.7008C28.1052 26.8006 28.5096 25.9526 29.038 25.1568C28.2422 24.4719 27.5899 23.7544 27.0746 22.9912C26.5592 22.228 26.1483 21.4322 25.8547 20.5972C25.5547 19.7623 25.3459 18.8816 25.2285 17.9554C25.1046 17.0291 25.0459 16.0637 25.0459 15.0461C25.0459 13.2392 25.3851 11.5432 26.07 9.95812C26.7549 8.37301 27.6812 6.99013 28.8619 5.80946C30.0425 4.62879 31.4254 3.70251 33.0105 3.0176C34.5956 2.3392 36.2916 2 38.0985 2C39.9054 2 41.6014 2.3392 43.1865 3.02412C44.7716 3.70904 46.1545 4.63531 47.3351 5.81598C48.5158 6.99665 49.4421 8.37954 50.127 9.96464C50.8119 11.5497 51.1511 13.2457 51.1511 15.0526V54.9019ZM32.1495 66.1346H27.3942V68.5155C26.7354 68.5155 26.1157 68.6394 25.5416 68.8808C24.9676 69.1221 24.4653 69.4613 24.0348 69.8853C23.6043 70.3159 23.2716 70.8181 23.0303 71.3856C22.7889 71.9597 22.665 72.5728 22.665 73.2382H32.1495V66.1346ZM29.9056 13.8654C29.8599 14.2633 29.8273 14.6612 29.8077 15.0526C29.7881 15.4505 29.7751 15.8484 29.7751 16.2398C29.7751 17.2313 29.9643 18.1576 30.3361 19.0121C30.7079 19.8731 31.2167 20.6233 31.8559 21.2756C32.4952 21.9279 33.2454 22.4367 34.0999 22.815C34.9609 23.1869 35.8872 23.376 36.8722 23.376C37.668 23.376 38.4703 23.2325 39.2857 22.9455V11.8498C39.1748 12.4695 38.9074 12.9587 38.4899 13.3175C38.0724 13.6828 37.544 13.8654 36.9048 13.8654H29.9056ZM36.9113 25.7569C36.2525 25.7569 35.6328 25.8809 35.0588 26.1353C34.4847 26.3897 33.9825 26.7289 33.5585 27.1594C33.1279 27.5899 32.7887 28.0922 32.5343 28.6662C32.2799 29.2402 32.156 29.8534 32.156 30.5188V44.2628C32.2017 43.891 32.2865 43.5192 32.4235 43.1539C32.5539 42.7886 32.73 42.4429 32.9518 42.1102L36.9178 36.1938V28.1378H45.7631C45.3195 27.4334 44.739 26.8593 44.0149 26.4223C43.2909 25.9852 42.5081 25.7635 41.6666 25.7635H36.9113V25.7569ZM36.9113 47.133C37.3092 47.133 37.6354 47.0612 37.9028 46.9177C38.1703 46.7742 38.4116 46.585 38.6269 46.3567C38.8421 46.1284 39.0378 45.874 39.2074 45.5935C39.3705 45.3195 39.5531 45.0391 39.7554 44.752L43.6561 38.9335C43.9236 38.5356 44.054 38.0985 44.054 37.6093V30.5122H39.2987V36.8918L34.9348 43.4344C34.6674 43.8323 34.5369 44.2628 34.5369 44.7259C34.5369 45.3848 34.7652 45.9523 35.2284 46.4285C35.685 46.8981 36.246 47.133 36.9113 47.133ZM46.3893 44.7586V38.1181C46.3436 38.516 46.2523 38.8943 46.1088 39.2596C45.9653 39.6249 45.7957 39.9576 45.5935 40.2707L42.619 44.7651H46.3893V44.7586ZM55.9064 66.1346L52.2079 62.6969L48.7702 66.1346V69.1417C48.0657 69.5788 47.4917 70.1658 47.0547 70.8899C46.6176 71.6139 46.3958 72.3967 46.3958 73.2382H51.1511L55.9064 66.1346Z" fill="black"/>
</svg>
