<svg width="80" height="80" viewBox="0 0 80 80" fill="none" xmlns="http://www.w3.org/2000/svg">
<path d="M20.9833 2H70.8786V78H20.9833C19.3531 78 17.8166 77.6915 16.374 77.0744C14.9314 76.4573 13.6702 75.6088 12.5903 74.529C11.5104 73.4491 10.6619 72.1879 10.0449 70.7452C9.42987 69.3026 9.12134 67.7662 9.12134 66.1359V13.862C9.12134 12.2317 9.42987 10.6953 10.0469 9.25269C10.664 7.81007 11.5125 6.55508 12.5924 5.48563C13.6722 4.41826 14.9335 3.56978 16.3761 2.9402C17.8166 2.31271 19.3531 2 20.9833 2ZM20.9833 73.2406H63.7406V63.7573H61.362V70.862H20.9833C20.3225 70.862 19.7054 70.7411 19.1321 70.4992C18.5588 70.2574 18.0585 69.9218 17.629 69.4923C17.1996 69.0629 16.8639 68.5625 16.6221 67.9893C16.3803 67.416 16.2594 66.7989 16.2594 66.138C16.2594 65.4772 16.3803 64.8601 16.6221 64.2868C16.8639 63.7135 17.1996 63.2132 17.629 62.7837C18.0585 62.3543 18.5588 62.0124 19.1321 61.7602C19.7054 61.5079 20.3225 61.3807 20.9833 61.3807V6.76147C19.9931 6.76147 19.0675 6.94909 18.2086 7.32225C17.3497 7.6975 16.6013 8.20408 15.9613 8.842C15.3213 9.48201 14.8147 10.2304 14.4415 11.0893C14.0663 11.9482 13.8807 12.8738 13.8807 13.8641V66.138C13.8807 67.1283 14.0683 68.0539 14.4415 68.9128C14.8168 69.7717 15.3233 70.5201 15.9613 71.1601C16.5992 71.798 17.3497 72.3046 18.2086 72.6798C19.0675 73.053 19.9931 73.2406 20.9833 73.2406ZM58.9833 63.7573H20.9833C20.3433 63.7573 19.7929 63.9929 19.3322 64.4682C18.8694 64.9414 18.638 65.498 18.638 66.1359C18.638 66.7739 18.8694 67.3305 19.3322 67.8037C19.795 68.2769 20.3454 68.5146 20.9833 68.5146H58.9833V63.7573ZM66.1213 6.7573H61.364L23.362 44.7239V49.5146L66.1213 6.7573ZM56.638 6.7573H51.8474L23.362 35.2406V40.0313L56.638 6.7573ZM47.1547 6.7573H42.364L23.362 25.7239V30.5146L47.1547 6.7573ZM37.638 6.7573H32.8474L23.362 16.2406V21.0334L37.638 6.7573ZM28.1547 6.7573H23.362V11.5146L28.1547 6.7573ZM23.362 59.0334L66.1193 16.2761V11.4833L23.362 54.2406V59.0334ZM30.5333 61.3786L66.1213 25.7573V20.9666L25.7093 61.3786H30.5333ZM40.0167 61.3786L66.1213 35.274V30.4833L35.226 61.3786H40.0167ZM49.5333 61.3786L66.1213 44.7907V39.9666L44.7093 61.3786H49.5333ZM59.0167 61.3786L66.1213 54.274V49.4833L54.226 61.3786H59.0167ZM63.7093 61.3786H66.1213V58.9666L63.7093 61.3786Z" fill="black"/>
</svg>
