<svg width="80" height="80" viewBox="0 0 80 80" fill="none" xmlns="http://www.w3.org/2000/svg">
<path d="M48.325 3.34131C49.1401 3.34131 49.9052 3.49496 50.6223 3.80227C51.3374 4.10958 51.9648 4.53109 52.5068 5.06887C53.0468 5.60666 53.4699 6.23789 53.7785 6.96047C54.087 7.68514 54.2413 8.4534 54.2413 9.26528V17.5252C54.2413 19.3254 54.5227 21.053 55.0835 22.7079C55.6463 24.3648 56.4281 25.8848 57.4287 27.2656C58.4293 28.6464 59.6426 29.8611 61.0643 30.9014C62.486 31.9437 64.0558 32.739 65.7735 33.2871C66.8305 33.6152 67.8936 33.8187 68.961 33.8955C70.0283 33.9723 71.1144 34.0554 72.2151 34.1426C73.0302 34.2091 73.7953 34.3959 74.5124 34.7012C75.2274 35.0085 75.8403 35.4154 76.3469 35.9179C76.8534 36.4225 77.2558 37.0205 77.5539 37.7119C77.852 38.4034 78 39.1758 78 40.0313C78 40.866 77.8457 41.6384 77.5372 42.3506C77.2287 43.0649 76.8055 43.6899 76.2656 44.2277C75.7256 44.7655 75.0919 45.187 74.3665 45.4943C73.6389 45.8016 72.8676 45.9552 72.0525 45.9552H70.07C67.8436 45.9552 65.7735 46.41 63.8577 47.3215C61.942 48.2331 60.268 49.4498 58.8358 50.9739C57.4037 52.5001 56.2801 54.2546 55.465 56.2397C54.6499 58.2247 54.2413 60.3052 54.2413 62.4771V70.7371C54.2413 71.5489 54.087 72.3172 53.7785 73.0398C53.4699 73.7645 53.0468 74.3936 52.5068 74.9314C51.9669 75.4692 51.3394 75.8907 50.6223 76.198C49.9052 76.5053 49.1401 76.659 48.325 76.659C47.487 76.659 46.7115 76.5053 45.9944 76.198C45.2794 75.8907 44.6498 75.4692 44.112 74.9314C43.572 74.3936 43.1468 73.7686 42.8403 73.0564C42.5318 72.3421 42.3775 71.5697 42.3775 70.7371V63.6275C41.3206 64.4394 40.1303 64.8442 38.8086 64.8442C38.3667 64.8442 37.9331 64.865 37.5036 64.9107C37.0742 64.9543 36.6948 65.054 36.3633 65.2076C36.034 65.3613 35.763 65.598 35.5545 65.9157C35.3439 66.2334 35.2397 66.6673 35.2397 67.2155V70.7371C35.2397 71.5489 35.0854 72.3172 34.7769 73.0398C34.4684 73.7645 34.0452 74.3936 33.5053 74.9314C32.9654 75.4692 32.3379 75.8907 31.6228 76.198C30.9057 76.5053 30.1407 76.659 29.3256 76.659C28.4875 76.659 27.712 76.5053 26.997 76.198C26.2799 75.8907 25.6524 75.4692 25.1146 74.9314C24.5746 74.3936 24.1515 73.7686 23.8429 73.0564C23.5344 72.3421 23.3801 71.5697 23.3801 70.7371V67.2155C23.3801 66.5573 23.1488 65.9987 22.686 65.5378C22.2232 65.0768 21.6624 64.8463 21.0016 64.8463H19.8112C18.9732 64.8463 18.1977 64.6927 17.4827 64.3854C16.7656 64.0781 16.1381 63.6566 15.6002 63.1188C15.0603 62.581 14.6371 61.956 14.3286 61.2417C14.0201 60.5295 13.8658 59.755 13.8658 58.9224C13.8658 58.1105 14.0201 57.3422 14.3286 56.6176C14.6371 55.8929 15.0603 55.2637 15.6002 54.726C16.1402 54.1882 16.7676 53.7667 17.4827 53.4594C18.1977 53.152 18.9753 52.9984 19.8112 52.9984H21.0016C21.6624 52.9984 22.2232 52.7679 22.686 52.307C23.1488 51.846 23.3801 51.2874 23.3801 50.6292V45.9283H22.1252C21.5519 46.6301 20.8577 47.2011 20.0426 47.6392C19.2275 48.0773 18.3582 48.2974 17.4326 48.2974C16.5946 48.2974 15.8191 48.1438 15.1041 47.8365C14.387 47.5292 13.7595 47.1076 13.2217 46.5699C12.6817 46.0321 12.2586 45.4071 11.95 44.6928C11.6415 43.9806 11.4872 43.2061 11.4872 42.3735V38.8187C11.4872 38.1833 11.2558 37.6289 10.793 37.1575C10.3303 36.6862 9.7799 36.4495 9.142 36.4495H7.95167C7.11364 36.4495 6.33815 36.2958 5.62312 35.9885C4.906 35.6812 4.27852 35.2597 3.74068 34.7219C3.20076 34.1841 2.77757 33.5591 2.46905 32.8469C2.15426 32.1347 2 31.3602 2 30.5255C2 29.7137 2.15426 28.9516 2.46279 28.2373C2.77132 27.5251 3.1945 26.9001 3.73443 26.3603C4.27435 25.8225 4.90808 25.401 5.63354 25.0937C6.36108 24.7864 7.13032 24.6327 7.9475 24.6327H9.13783C9.66733 24.6327 10.0905 24.5185 10.4095 24.288C10.7284 24.0575 10.9702 23.7668 11.137 23.4159C11.3017 23.065 11.4122 22.6705 11.4664 22.2303C11.5206 21.7922 11.5498 21.3645 11.5498 20.9471C11.5498 20.5733 11.5393 20.2017 11.5164 19.8279C11.4935 19.4542 11.4831 19.0825 11.4831 18.7087C11.4831 17.8969 11.6373 17.1286 11.9459 16.4039C12.2544 15.6793 12.6776 15.0501 13.2175 14.5123C13.7574 13.9745 14.3849 13.553 15.0999 13.2457C15.815 12.9384 16.5925 12.7848 17.4285 12.7848C18.2436 12.7848 19.0149 12.9384 19.7424 13.2457C20.47 13.553 21.1016 13.9745 21.6416 14.5123C22.1815 15.0501 22.6047 15.6813 22.9132 16.4039C23.2217 17.1286 23.376 17.8969 23.376 18.7087V22.2635C23.376 22.9218 23.6074 23.4803 24.0702 23.9413C24.533 24.4022 25.0937 24.6327 25.7546 24.6327H26.9449C27.76 24.6327 28.5251 24.7864 29.2422 25.0937C29.9572 25.401 30.5847 25.8225 31.1246 26.3603C31.6645 26.8981 32.0877 27.5231 32.3962 28.2373C32.7048 28.9495 32.859 29.7137 32.859 30.5255C32.859 31.271 32.7277 31.9728 32.463 32.631C33.9597 31.9728 35.321 31.1235 36.5447 30.0812C37.7663 29.0388 38.8086 27.8594 39.6675 26.543C40.5264 25.2266 41.1935 23.8001 41.6667 22.2635C42.1399 20.727 42.3775 19.1489 42.3775 17.5252V9.26528C42.3775 8.4534 42.5318 7.68514 42.8403 6.96047C43.1489 6.23581 43.572 5.60666 44.112 5.06887C44.6519 4.53109 45.2794 4.10958 45.9944 3.80227C46.7115 3.49496 47.487 3.34131 48.325 3.34131ZM17.4306 43.5591C17.7599 43.5591 18.0414 43.4428 18.2728 43.2123C18.5042 42.9818 18.6188 42.7015 18.6188 42.3735V38.8187C18.6188 37.8324 18.8064 36.9105 19.1796 36.055C19.5548 35.1995 20.0656 34.4478 20.716 33.8C21.3664 33.1522 22.121 32.6435 22.9799 32.2697C23.8388 31.898 24.7644 31.7111 25.7546 31.7111H26.9449C27.2764 31.7111 27.5557 31.5969 27.7871 31.3665C28.0185 31.136 28.1331 30.8557 28.1331 30.5276C28.1331 30.2203 28.0122 29.9524 27.7704 29.722C27.5286 29.4915 27.2534 29.3752 26.9449 29.3752H25.7546C24.7644 29.3752 23.8388 29.1883 22.9799 28.8166C22.121 28.4429 21.3664 27.9342 20.716 27.2863C20.0656 26.6385 19.5527 25.8868 19.1796 25.0314C18.8043 24.1759 18.6188 23.254 18.6188 22.2677V18.7108C18.6188 18.3827 18.5042 18.1024 18.2728 17.872C18.0414 17.6415 17.7599 17.5273 17.4306 17.5273C17.1012 17.5273 16.8198 17.6415 16.5884 17.872C16.357 18.1024 16.2423 18.3827 16.2423 18.7108V22.2656C16.2423 23.2519 16.0547 24.1738 15.6815 25.0293C15.3063 25.8848 14.7997 26.6364 14.1618 27.2843C13.5218 27.9321 12.7735 28.4408 11.9146 28.8146C11.0557 29.1883 10.1301 29.3731 9.13992 29.3731H7.94958C7.64106 29.3731 7.36588 29.4873 7.12406 29.7199C6.88224 29.9504 6.76133 30.2182 6.76133 30.5255C6.76133 30.8536 6.87808 31.1339 7.10739 31.3644C7.3367 31.5949 7.62021 31.7091 7.94958 31.7091H9.13992C10.1301 31.7091 11.0557 31.8959 11.9146 32.2676C12.7735 32.6414 13.5218 33.1501 14.1618 33.7979C14.7997 34.4458 15.3063 35.1974 15.6815 36.0529C16.0568 36.9084 16.2423 37.8303 16.2423 38.8166V42.3714C16.2423 42.6995 16.357 42.9798 16.5884 43.2102C16.8198 43.4407 17.1012 43.5591 17.4306 43.5591ZM29.3256 71.9289C29.6341 71.9289 29.903 71.8085 30.1344 71.5676C30.3658 71.3268 30.4805 71.0527 30.4805 70.7454V67.2238C30.4805 66.2375 30.6681 65.3156 31.0412 64.4601C31.4165 63.6046 31.9272 62.853 32.5776 62.2051C33.228 61.5573 33.9827 61.0486 34.8415 60.6748C35.7004 60.3011 36.626 60.1163 37.6162 60.1163H38.8065C39.1359 60.1163 39.4173 60.0021 39.6487 59.7716C39.8801 59.5411 39.9948 59.2608 39.9948 58.9327C39.9948 58.6047 39.8801 58.3244 39.6487 58.0939C39.4173 57.8634 39.1359 57.7492 38.8065 57.7492H37.6162C36.6239 57.7492 35.7004 57.5623 34.8415 57.1906C33.9827 56.8169 33.228 56.3082 32.5776 55.6603C31.9272 55.0125 31.4165 54.2608 31.0412 53.4054C30.666 52.5499 30.4805 51.628 30.4805 50.6417V47.1201C30.4805 46.8128 30.3658 46.5387 30.1344 46.2979C29.903 46.057 29.6341 45.9366 29.3256 45.9366C28.9941 45.9366 28.7148 46.0508 28.4834 46.2812C28.252 46.5117 28.1373 46.792 28.1373 47.1201V50.6417C28.1373 51.628 27.9497 52.5499 27.5765 53.4054C27.2013 54.2608 26.6906 55.0125 26.0402 55.6603C25.3897 56.3082 24.6351 56.819 23.7762 57.1906C22.9174 57.5644 21.9918 57.7492 21.0016 57.7492H19.8112C19.4819 57.7492 19.2004 57.8634 18.969 58.0939C18.7376 58.3244 18.623 58.6047 18.623 58.9327C18.623 59.2608 18.7376 59.5411 18.969 59.7716C19.2004 60.0021 19.4819 60.1163 19.8112 60.1163H21.0016C21.9918 60.1163 22.9174 60.3032 23.7762 60.6748C24.6351 61.0486 25.3897 61.5573 26.0402 62.2051C26.6906 62.853 27.2013 63.6046 27.5765 64.4601C27.9518 65.3156 28.1373 66.2375 28.1373 67.2238V70.7454C28.1373 71.0734 28.252 71.3538 28.4834 71.5842C28.7148 71.8147 28.9962 71.9289 29.3256 71.9289ZM48.325 71.9289C48.6336 71.9289 48.9025 71.8085 49.1339 71.5676C49.3653 71.3268 49.4799 71.0527 49.4799 70.7454V62.4855C49.4799 60.5772 49.7218 58.7334 50.2075 56.956C50.6911 55.1786 51.3811 53.5175 52.2734 51.9706C53.1656 50.4237 54.2329 49.0076 55.4795 47.7243C56.7241 46.4411 58.1062 45.3282 59.6259 44.3834C61.1456 43.4407 62.7862 42.6932 64.5498 42.1451C66.3114 41.5969 68.1521 41.2896 70.0679 41.2231C70.266 41.2231 70.464 41.2294 70.662 41.2397C70.8601 41.2501 71.0581 41.2564 71.2562 41.2564C71.4542 41.2564 71.6689 41.246 71.9003 41.2231C72.1317 41.2024 72.3464 41.1463 72.5445 41.0591C72.7425 40.9719 72.9072 40.8452 73.0406 40.6812C73.172 40.5172 73.2387 40.3033 73.2387 40.0396C73.2387 39.7323 73.1615 39.4956 73.0073 39.3315C72.853 39.1675 72.6654 39.0471 72.4465 38.9702C72.2255 38.8934 71.9837 38.8498 71.719 38.8394C71.4542 38.829 71.2124 38.8228 70.9914 38.8228H70.8601C67.9082 38.8228 65.1377 38.2643 62.5507 37.1451C59.9615 36.0259 57.6976 34.5018 55.761 32.5708C53.8223 30.6397 52.2921 28.3868 51.1685 25.8079C50.0449 23.2291 49.4841 20.4716 49.4841 17.5314V9.26528C49.4841 8.95797 49.3694 8.68388 49.1381 8.44302C48.9067 8.20216 48.6377 8.08173 48.3292 8.08173C47.9977 8.08173 47.7184 8.19593 47.487 8.42641C47.2556 8.65689 47.141 8.9372 47.141 9.26528V17.5252C47.141 19.5227 46.8825 21.4371 46.3655 23.2685C45.8485 25.0999 45.1209 26.8005 44.1849 28.3702C43.2489 29.94 42.119 31.3706 40.7974 32.6642C39.4757 33.9599 38.0165 35.0625 36.4196 35.9719C34.8228 36.8835 33.0988 37.5853 31.2476 38.0774C29.3964 38.5716 27.4806 38.8187 25.4981 38.8187C25.2772 38.8187 25.0458 38.8249 24.804 38.8353C24.5621 38.8457 24.3349 38.8955 24.1264 38.9827C23.9159 39.0699 23.7408 39.1966 23.5969 39.3606C23.4531 39.5246 23.3822 39.751 23.3822 40.0354C23.3822 40.5628 23.5907 40.8971 24.0097 41.0383C24.4287 41.1816 24.879 41.2522 25.3647 41.2522C25.6066 41.2522 25.8213 41.2481 26.0089 41.2356C26.1965 41.2252 26.3779 41.219 26.5551 41.219C28.4271 41.219 30.2386 41.4868 31.9897 42.0246C33.7408 42.5624 35.3815 43.3141 36.9137 44.2796C38.4438 45.2451 39.8384 46.3851 41.0934 47.7015C42.3484 49.0179 43.4219 50.4652 44.3142 52.0453C45.2064 53.6255 45.9006 55.299 46.3967 57.064C46.8929 58.831 47.141 60.6354 47.141 62.4771V70.7371C47.141 71.0651 47.2556 71.3455 47.487 71.5759C47.7184 71.8064 47.9957 71.9289 48.325 71.9289Z" fill="black"/>
</svg>
