<svg width="80" height="80" viewBox="0 0 80 80" fill="none" xmlns="http://www.w3.org/2000/svg">
<path d="M39.999 2L73.2417 35.2406V42.3787H68.5156V63.1965C68.7575 63.4383 68.9951 63.6864 69.2265 63.9408C69.4579 64.193 69.6601 64.4744 69.8373 64.783C70.8943 65.4209 71.7261 66.2798 72.3327 67.3597C72.9373 68.4395 73.2417 69.607 73.2417 70.862V78H6.75833V70.862C6.75833 69.607 7.06061 68.4375 7.66726 67.3597C8.27391 66.2798 9.10571 65.4209 10.1627 64.783C10.515 64.2097 10.9674 63.6822 11.5177 63.1965V42.3787H6.75833V35.2406L39.999 2ZM11.5156 37.6214H16.2417L39.999 13.862L63.7563 37.6193H68.5136L39.999 9.13803L11.5156 37.6214ZM23.3797 73.2406H37.6203V72.019C37.6203 71.6 37.6412 71.1809 37.687 70.764C37.7308 70.345 37.835 69.9718 38.0018 69.6403C38.1686 69.3089 38.4083 69.0399 38.7294 68.8315C39.0483 68.6209 39.4736 68.5167 40.001 68.5167H63.7583V40H62.766L39.999 17.2329L17.234 40H16.2417V68.5167C16.8796 68.5167 17.5029 68.5104 18.1096 68.5C18.7141 68.4896 19.3374 68.4833 19.9774 68.4833C20.7696 68.4833 21.393 68.5542 21.8453 68.6981C22.2956 68.8419 22.6375 69.0441 22.8689 69.3089C23.1003 69.5736 23.2442 69.903 23.2984 70.2991C23.3526 70.6952 23.3818 71.158 23.3818 71.6875V73.2406H23.3797ZM25.7583 42.3787V32.862H35.2417V42.3787H25.7583ZM25.7583 70.862V51.862H35.2417V70.862H25.7583ZM54.2417 32.862V42.3787H44.7583V32.862H54.2417ZM54.2417 51.862V61.3786H44.7583V51.862H54.2417Z" fill="black"/>
</svg>
