<svg width="80" height="80" viewBox="0 0 80 80" fill="none" xmlns="http://www.w3.org/2000/svg">
<path d="M70.8693 54.5938C73.1376 56.5753 74.8844 58.9153 76.1163 61.6072C77.3482 64.3057 77.9674 67.1606 77.9674 70.1784V78H13.0611L2.03259 50.4679V11.575C2.03259 10.2779 2.3259 9.0916 2.90601 8.02264C3.48611 6.95369 4.33997 6.09983 5.46758 5.46106C5.90429 4.71149 6.40618 4.10532 6.96673 3.64254C7.52728 3.17976 8.13345 2.82779 8.78525 2.58662C9.43705 2.34545 10.1149 2.1825 10.8319 2.11081C11.5489 2.03911 12.2789 2 13.0285 2C13.576 2 14.1235 2.01304 14.6645 2.03259C15.2055 2.05214 15.7465 2.06518 16.3005 2.06518C17.376 2.06518 18.3537 2.26072 19.2206 2.64528C20.0875 3.02985 20.8305 3.55129 21.4497 4.21612C22.0624 4.87444 22.5448 5.6566 22.8837 6.56261C23.2226 7.46209 23.3986 8.44631 23.3986 9.50223C24.3698 9.78902 25.2172 10.2583 25.9407 10.9036C26.6642 11.5554 27.2312 12.3376 27.6223 13.2631C30.0209 11.1969 32.6868 9.60652 35.6134 8.49194C38.54 7.37736 41.5904 6.82333 44.7582 6.82333C47.1568 6.82333 49.4642 7.13619 51.6933 7.76192C53.916 8.38765 55.9952 9.26758 57.9311 10.4017C59.8669 11.5358 61.6268 12.8916 63.2106 14.482C64.7945 16.0659 66.1568 17.8257 67.2909 19.7616C68.4251 21.6974 69.305 23.7767 69.9307 25.9993C70.5564 28.222 70.8693 30.5358 70.8693 32.9345V54.5938ZM73.2158 70.1784C73.2158 67.9753 72.8052 65.9156 71.9774 63.9863C71.1496 62.0635 70.022 60.3753 68.5945 58.9348C67.1606 57.4943 65.4854 56.3537 63.5626 55.5194C61.6333 54.6851 59.5736 54.2679 57.3705 54.2679H49.6141C50.2528 54.3136 50.7873 54.5612 51.2175 55.011C51.6477 55.4607 51.8628 56.0082 51.8628 56.647C51.8628 56.823 51.7585 57.1684 51.5499 57.6899C51.3413 58.2048 51.0741 58.8175 50.7417 59.5214C50.4093 60.2254 50.0508 60.9815 49.6532 61.7832C49.2556 62.5849 48.8775 63.3475 48.5125 64.0645C48.1475 64.7815 47.8151 65.4202 47.5088 65.9938C47.2024 66.5674 46.9808 66.965 46.8504 67.1801C46.6093 67.5973 46.329 67.9297 46.0096 68.1708C45.6902 68.412 45.2796 68.5359 44.7712 68.5359C44.2628 68.5359 43.8391 68.412 43.5002 68.1708C43.1612 67.9297 42.8679 67.6103 42.6268 67.2127C42.4964 66.9911 42.2813 66.6 41.9815 66.0395C41.6817 65.4789 41.3492 64.8336 40.9777 64.1101C40.6062 63.3866 40.2216 62.611 39.8371 61.7962C39.4525 60.9815 39.094 60.2254 38.7616 59.5149C38.4292 58.811 38.1619 58.1918 37.9534 57.6638C37.7448 57.1359 37.6405 56.7969 37.6405 56.6405C37.6405 56.0213 37.8425 55.4933 38.2532 55.0371C38.6573 54.5873 39.1722 54.3396 39.7849 54.294H28.1503C26.788 54.294 25.5887 53.9681 24.5654 53.3228C23.542 52.6775 22.623 51.8237 21.8082 50.7612C21.6779 50.6309 21.5214 50.4288 21.3455 50.1485C21.1695 49.8748 21.0587 49.6662 21.013 49.5359L16.7568 28.1763H6.78422V49.5359L16.2614 73.2419H73.2158V70.1784ZM6.81681 25.8038H16.2614V23.4247L22.8316 17.4477C23.0271 17.2717 23.1835 17.0436 23.2943 16.7698C23.4052 16.4961 23.4573 16.2223 23.4573 15.9616C23.4573 15.4988 23.366 15.1338 23.177 14.8535C22.988 14.5798 22.7403 14.3712 22.434 14.2278C22.1276 14.0844 21.7822 13.9931 21.3911 13.9475C21.0065 13.9019 20.6154 13.8823 20.2178 13.8823C19.9311 13.8823 19.6508 13.8889 19.377 13.9019C19.1033 13.9149 18.8556 13.9214 18.634 13.9214V9.2024C18.634 8.49846 18.4189 7.92487 17.9887 7.48816C17.5585 7.05146 16.9914 6.82985 16.2875 6.82985H11.5359C10.8319 6.82985 10.2648 7.05146 9.83465 7.48816C9.40446 7.93139 9.18937 8.49846 9.18937 9.2024C8.48542 9.2024 7.91184 9.42401 7.47513 9.86072C7.03191 10.3039 6.81681 10.871 6.81681 11.575V25.8038ZM28.1503 35.2484C28.1503 37.5362 28.587 39.6937 29.4539 41.7208C30.3208 43.7479 31.507 45.5142 33.0062 47.0199C34.5053 48.5256 36.2652 49.7184 38.2858 50.5853C40.3064 51.4521 42.4703 51.8889 44.7582 51.8889C47.046 51.8889 49.1969 51.4456 51.211 50.5657C53.225 49.6858 54.9849 48.493 56.4971 46.9808C58.0028 45.4751 59.189 43.7153 60.0624 41.7012C60.9293 39.6871 61.366 37.5362 61.366 35.2484V30.5293C59.893 30.5293 58.4395 30.2816 57.0055 29.7863C55.5715 29.2909 54.2288 28.613 52.9578 27.7527C51.6933 26.8923 50.5527 25.895 49.5424 24.7479C48.5321 23.6007 47.7173 22.3688 47.0981 21.0521V28.1828C46.2377 28.1828 45.3383 28.0916 44.3931 27.9026C43.448 27.7136 42.542 27.4268 41.6686 27.0422C40.8017 26.6576 40 26.1753 39.2765 25.5887C38.553 25.0086 37.9794 24.3046 37.5623 23.4899C36.9039 25.693 35.7437 27.4072 34.0947 28.6391C32.4456 29.871 30.4642 30.4967 28.1503 30.5228V35.2484ZM37.6275 37.66C36.9691 37.66 36.4021 37.4319 35.9458 36.9691C35.483 36.5063 35.2549 35.9458 35.2549 35.2875V32.9084C35.2549 32.2696 35.4895 31.7221 35.9654 31.2593C36.4412 30.7966 36.9952 30.5684 37.634 30.5684C38.2727 30.5684 38.8268 30.7966 39.3026 31.2593C39.7784 31.7221 40.013 32.2696 40.013 32.9084V35.2875C40.013 35.9458 39.7784 36.5063 39.3221 36.9691C38.8463 37.4254 38.2858 37.66 37.6275 37.66ZM44.7582 47.1633C44.0998 47.1633 43.4806 47.0395 42.907 46.7852C42.3335 46.531 41.8316 46.1921 41.4079 45.7619C40.9777 45.3317 40.6388 44.8298 40.3846 44.2628C40.1304 43.6957 40.0065 43.0765 40.0065 42.4117H49.4837C49.4837 43.07 49.3599 43.6892 49.1187 44.2628C48.8775 44.8364 48.5386 45.3383 48.1149 45.7619C47.6847 46.1921 47.1829 46.531 46.6158 46.7852C46.0292 47.0395 45.4165 47.1633 44.7582 47.1633ZM44.7582 40.0326C44.0998 40.0326 43.5328 39.8045 43.0765 39.3417C42.6202 38.8789 42.3856 38.3184 42.3856 37.66H47.1372C47.1372 38.2988 46.9026 38.8528 46.4268 39.3286C45.951 39.7979 45.3969 40.0326 44.7582 40.0326ZM51.8563 37.66C51.2175 37.66 50.6635 37.4254 50.1877 36.9496C49.7118 36.4738 49.4772 35.9197 49.4772 35.281V32.9019C49.4772 32.2631 49.7118 31.7156 50.1877 31.2528C50.6635 30.7901 51.2175 30.5619 51.8563 30.5619C52.495 30.5619 53.0491 30.7901 53.5249 31.2528C54.0007 31.7156 54.2353 32.2631 54.2353 32.9019V35.281C54.2353 35.9393 54.0072 36.4998 53.5444 36.9626C53.0751 37.4254 52.5146 37.66 51.8563 37.66Z" fill="black"/>
</svg>
