<svg width="80" height="80" viewBox="0 0 80 80" fill="none" xmlns="http://www.w3.org/2000/svg">
<path d="M60.6519 2L77.9967 14.6221L71.1214 35.2414H63.7504V78H16.243V35.2414H8.872L2.00323 14.6221L19.348 2H37.6191V6.7553C37.6191 7.39456 37.8539 7.94902 38.3301 8.4252C38.8063 8.90138 39.3607 9.13621 40 9.13621C40.6392 9.13621 41.1937 8.90138 41.6699 8.4252C42.1395 7.94902 42.3809 7.39456 42.3809 6.7553V2H60.6519ZM59.0342 30.5122H63.7569V10.5582L59.0342 6.7553V20.9951H21.0375V6.7553L16.2822 10.5582V30.5122H21.0375V35.2349H59.0342V30.5122ZM21.0375 49.5139V63.7537H59.0342V49.5139H21.0375ZM32.8964 6.7553H28.1411C28.1411 8.38606 28.4542 9.91898 29.0804 11.3671C29.7066 12.8087 30.5611 14.0742 31.644 15.1505C32.7203 16.2268 33.9857 17.0813 35.4273 17.6944C36.8689 18.3141 38.4084 18.6207 40.0391 18.6207C41.6699 18.6207 43.2028 18.3076 44.6509 17.6814C46.0925 17.0552 47.3514 16.2072 48.4212 15.1374C49.491 14.0676 50.339 12.8152 50.9652 11.3671C51.5914 9.9255 51.9045 8.38606 51.9045 6.7553H47.1492C47.1492 7.7468 46.9601 8.67308 46.5882 9.52759C46.2164 10.3886 45.7076 11.1323 45.0684 11.7715C44.4291 12.4108 43.679 12.9196 42.8245 13.2914C41.9634 13.6632 41.0371 13.8524 40.0456 13.8524C39.0541 13.8524 38.1279 13.6632 37.2668 13.2914C36.4058 12.9196 35.6556 12.4108 35.0033 11.7715C34.351 11.1323 33.8422 10.3821 33.4704 9.52759C33.0855 8.67308 32.8964 7.7468 32.8964 6.7553Z" fill="black"/>
</svg>
