<svg width="16" height="16" viewBox="0 0 16 16" fill="none" xmlns="http://www.w3.org/2000/svg">
<path d="M10.7261 10.6505C10.8123 10.7233 10.8799 10.8093 10.9265 10.9107C10.9755 11.0121 10.9988 11.118 10.9988 11.2238C10.9988 11.3297 10.9778 11.4289 10.9335 11.5215C10.8916 11.6141 10.8309 11.6957 10.7564 11.7685C10.6818 11.8412 10.5955 11.8964 10.4953 11.9361C10.3974 11.978 10.2925 12 10.1806 12H5.81929C5.70507 12 5.60018 11.9802 5.49994 11.9383C5.40204 11.8986 5.3158 11.8412 5.23887 11.7707C5.16195 11.7001 5.10601 11.6185 5.06172 11.5237C5.01976 11.4333 4.99878 11.3319 4.99878 11.2238C4.99878 11.1158 5.02209 11.0121 5.07104 10.9107C5.11999 10.8093 5.18526 10.7211 5.27151 10.6505C5.2785 10.2668 5.35542 9.9118 5.50228 9.58545C5.6468 9.2591 5.85193 8.95039 6.11067 8.66152C6.15263 8.61301 6.19691 8.5667 6.2412 8.5226C6.28549 8.4785 6.33211 8.4366 6.38339 8.39471C6.40904 8.37486 6.43468 8.35502 6.46032 8.33517C6.48596 8.31533 6.50927 8.29327 6.53025 8.26902C6.56521 8.23153 6.59085 8.18964 6.60717 8.14333C6.62349 8.09702 6.63281 8.05072 6.63281 8C6.63281 7.94928 6.62349 7.90077 6.60717 7.85667C6.59085 7.81036 6.56521 7.76847 6.53025 7.73098C6.50927 7.70673 6.48596 7.68467 6.46032 7.66483C6.43468 7.64498 6.4067 7.62514 6.38339 7.60529C6.33211 7.5656 6.28549 7.5215 6.2412 7.4774C6.19691 7.4333 6.15263 7.38699 6.11067 7.33848C5.8496 7.04961 5.6468 6.7409 5.50228 6.41455C5.35775 6.0882 5.2785 5.73319 5.27151 5.3495C5.18526 5.27894 5.11766 5.19074 5.07104 5.08931C5.02209 4.98787 4.99878 4.88423 4.99878 4.77619C4.99878 4.66814 5.01976 4.56891 5.06405 4.47409C5.10601 4.38148 5.16661 4.29989 5.2412 4.22712C5.3158 4.15436 5.40204 4.10143 5.50228 4.05954C5.59785 4.01985 5.70507 4 5.81929 4H10.1829C10.2948 4 10.3997 4.01985 10.4976 4.06395C10.5955 4.10584 10.6818 4.16318 10.7587 4.23153C10.8333 4.30209 10.8916 4.38589 10.9358 4.4785C10.9801 4.57111 11.0011 4.67255 11.0011 4.77398C11.0011 4.88203 10.9778 4.98567 10.9288 5.0871C10.8799 5.18853 10.8146 5.27674 10.7284 5.3473C10.7214 5.73098 10.6445 6.086 10.4976 6.41235C10.3508 6.7387 10.148 7.04741 9.88922 7.33627C9.84726 7.38479 9.80297 7.43109 9.75869 7.47519C9.7144 7.51929 9.66778 7.56119 9.61649 7.60309C9.59085 7.62293 9.56521 7.64278 9.53957 7.66262C9.51393 7.68247 9.49062 7.70452 9.46731 7.72878C9.43235 7.76626 9.4067 7.80816 9.39039 7.85447C9.37407 7.90077 9.36475 7.94708 9.36475 7.99779C9.36475 8.04851 9.37407 8.09702 9.39039 8.14112C9.4067 8.18523 9.43235 8.22933 9.46731 8.26681C9.49062 8.29107 9.51393 8.31312 9.53957 8.33297C9.56521 8.35281 9.59085 8.37266 9.61649 8.3925C9.66778 8.43219 9.7144 8.4763 9.75869 8.5204C9.80297 8.5645 9.84726 8.61081 9.88922 8.65932C10.1503 8.94818 10.3531 9.25689 10.4976 9.58324C10.6421 9.9118 10.7191 10.2668 10.7261 10.6505ZM5.54423 4.77619C5.54423 4.84675 5.57221 4.90628 5.62582 4.9548C5.68176 5.00551 5.7447 5.02977 5.81929 5.02977H10.1829C10.2575 5.02977 10.3205 5.00551 10.3717 4.9548C10.4254 4.90408 10.451 4.84454 10.451 4.77619C10.451 4.70783 10.4254 4.64609 10.3717 4.59537C10.3181 4.54465 10.2552 4.51819 10.1829 4.51819H5.81929C5.74237 4.51819 5.67943 4.54245 5.62582 4.59316C5.57221 4.64388 5.54423 4.70342 5.54423 4.77619ZM10.4533 11.2238C10.4533 11.1533 10.4277 11.0937 10.3741 11.0452C10.3205 10.9945 10.2575 10.9702 10.1853 10.9702H5.81929C5.74703 10.9702 5.68176 10.9945 5.62815 11.0452C5.57454 11.0959 5.54656 11.1555 5.54656 11.2238C5.54656 11.2966 5.57221 11.3561 5.62582 11.4068C5.67943 11.4576 5.74237 11.4818 5.81929 11.4818H10.1829C10.2575 11.4818 10.3205 11.4553 10.3717 11.4046C10.423 11.3539 10.4533 11.2944 10.4533 11.2238ZM7.1806 8C7.1806 8.12128 7.15729 8.23815 7.11067 8.35061C7.06405 8.46086 6.99645 8.56009 6.90787 8.64609C6.85426 8.69901 6.79831 8.74752 6.74004 8.79603C6.68176 8.84234 6.62349 8.89305 6.57221 8.94818C6.33444 9.19294 6.15029 9.46417 6.01743 9.76185C5.88689 10.0595 5.81929 10.3771 5.81929 10.7122H6.08969C6.08969 10.6439 6.11533 10.5821 6.16894 10.5314C6.22256 10.4807 6.28549 10.4542 6.36242 10.4542H7.45566C7.53258 10.4542 7.59552 10.43 7.64913 10.3793C7.70274 10.3286 7.72838 10.269 7.72838 10.1963V8.38809C7.72838 8.25138 7.71207 8.12348 7.68176 8.00662C7.65146 7.88975 7.60484 7.77729 7.54423 7.67144C7.48363 7.5656 7.4137 7.46637 7.32745 7.37155C7.24353 7.27674 7.14796 7.18633 7.0454 7.09592C6.90088 6.97244 6.77034 6.84454 6.65146 6.71224C6.53258 6.57993 6.43235 6.43881 6.35076 6.29327C6.26684 6.14553 6.20158 5.98897 6.15729 5.82139C6.11067 5.65601 6.08736 5.4774 6.08736 5.28997H5.81929C5.81929 5.62514 5.88456 5.94267 6.01743 6.24035C6.15029 6.53804 6.33444 6.80926 6.57221 7.05402C6.62582 7.10915 6.68176 7.15987 6.74004 7.20617C6.79831 7.25248 6.85659 7.3032 6.90787 7.35612C6.99645 7.44212 7.06405 7.54135 7.11067 7.6516C7.15729 7.76185 7.1806 7.87652 7.1806 8ZM8.81696 8C8.81696 7.87872 8.84027 7.76185 8.88689 7.64939C8.93351 7.53914 9.00111 7.43991 9.08969 7.35391C9.1433 7.30099 9.19925 7.25248 9.25752 7.20397C9.3158 7.15546 9.37407 7.10695 9.42535 7.05182C9.66311 6.80706 9.84959 6.53583 9.98246 6.23815C10.1153 5.94046 10.1806 5.62293 10.1806 5.28776H9.90787C9.90787 5.4774 9.88456 5.6538 9.84027 5.81918C9.79598 5.98456 9.73071 6.14112 9.6468 6.28886C9.56288 6.4366 9.46265 6.57773 9.3461 6.71003C9.22955 6.84234 9.09668 6.97023 8.95216 7.09151C8.84726 7.17971 8.75402 7.27233 8.67011 7.36714C8.58619 7.46196 8.51393 7.56119 8.45332 7.66703C8.39272 7.77288 8.34843 7.88534 8.3158 8.00221C8.28316 8.11907 8.26918 8.24917 8.26918 8.38368V10.1896C8.26918 10.258 8.29715 10.3197 8.35076 10.3705C8.40437 10.4212 8.46964 10.4476 8.5419 10.4476H9.63514C9.71207 10.4476 9.775 10.4719 9.82862 10.5226C9.88223 10.5733 9.90787 10.6329 9.90787 10.7056H10.1806C10.1806 10.3705 10.1153 10.0529 9.98246 9.75524C9.84959 9.45755 9.66311 9.18633 9.42535 8.94157C9.37174 8.88644 9.3158 8.83572 9.25752 8.78942C9.19925 8.74311 9.14097 8.69239 9.08969 8.63947C9.00111 8.55347 8.93351 8.45425 8.88689 8.34399C8.84027 8.23815 8.81696 8.12128 8.81696 8ZM8.4067 6.32415C8.444 6.32415 8.47663 6.31092 8.50461 6.28666C8.53025 6.2624 8.54423 6.23153 8.54423 6.19405C8.54423 6.15877 8.53025 6.12789 8.50461 6.10143C8.47897 6.07718 8.44633 6.06395 8.4067 6.06395C8.37174 6.06395 8.33911 6.07718 8.31113 6.10364C8.28316 6.1301 8.26918 6.15877 8.26918 6.19405C8.26918 6.22712 8.28316 6.25799 8.31113 6.28445C8.33911 6.31092 8.37174 6.32415 8.4067 6.32415ZM8.54423 6.96582C8.54423 6.93275 8.53025 6.90187 8.50228 6.87762C8.4743 6.85336 8.444 6.84013 8.4067 6.84013C8.36941 6.84013 8.33911 6.85336 8.31113 6.87762C8.28316 6.90187 8.26918 6.93275 8.26918 6.96582C8.26918 6.9989 8.28316 7.02977 8.31113 7.05623C8.33911 7.08269 8.36941 7.09592 8.4067 7.09592C8.444 7.09592 8.47663 7.08269 8.50461 7.05843C8.53025 7.03197 8.54423 7.0011 8.54423 6.96582ZM9.36242 6.19405C9.36242 6.15877 9.34843 6.12789 9.32279 6.10143C9.29715 6.07718 9.26451 6.06395 9.22489 6.06395C9.18759 6.06395 9.15496 6.07718 9.12698 6.10143C9.10134 6.12569 9.08736 6.15656 9.08736 6.19405C9.08736 6.22933 9.10134 6.2602 9.12698 6.28666C9.15263 6.31092 9.18526 6.32415 9.22489 6.32415C9.26218 6.32415 9.29482 6.31092 9.32279 6.28666C9.35076 6.2602 9.36242 6.22933 9.36242 6.19405Z" fill="black"/>
</svg>
