<svg width="209" height="114" viewBox="0 0 209 114" fill="none" xmlns="http://www.w3.org/2000/svg">
<path d="M93.125 27.125H91.5V27.9375H88.25V28.75H86.625V27.9375H85.8125V27.125H87.4375V24.6875H88.25V25.5H89.0625V27.125H91.5V26.3125H93.125V27.125ZM98 25.5H95.5625V27.9375H94.75V29.5625H95.5625V32H94.75V32.8125H90.6875V32H89.875V29.5625H90.6875V28.75H93.9375V22.25H93.125V21.4375H94.75V22.25H95.5625V24.6875H96.375V23.875H97.1875V24.6875H98V25.5ZM91.5 32H93.9375V31.1875V30.375V29.5625H91.5V30.375V32ZM90.6875 24.6875V25.5H89.875V23.0625H88.25V23.875H87.4375V23.0625H86.625V22.25H91.5V24.6875H90.6875ZM109.148 27.9375H104.273V32H103.46V32.8125H102.648V27.9375H99.3975V28.75H98.585V27.9375H97.7725V27.125H106.71V26.3125H108.335V27.125H109.148V27.9375ZM107.523 25.5H105.085V24.6875H104.273V23.875H103.46V24.6875H101.835V25.5H100.21V26.3125H98.585V25.5H100.21V24.6875H101.023V23.875H101.835V23.0625H100.21V22.25H105.898V23.0625H105.085V23.875H106.71V24.6875H107.523V25.5ZM119.483 32V32.8125H118.67V27.9375H114.608V28.75H113.795V29.5625H111.358V28.75H110.545V27.9375H109.733V25.5H110.545V24.6875H111.358V23.875H113.795V24.6875H114.608V25.5H115.42V24.6875H118.67V22.25H117.858V21.4375H119.483V22.25H120.295V32H119.483ZM112.17 28.75H112.983V27.9375H113.795V25.5H112.983V24.6875H112.17V25.5H111.358V27.9375H112.17V28.75ZM115.42 27.125H118.67V26.3125V25.5H115.42V27.125ZM127.38 32H126.568V29.5625H127.38V28.75H131.443V29.5625H132.255V32H131.443V32.8125H127.38V32ZM128.193 32H130.63V31.1875V30.375V29.5625H128.193V30.375V32ZM122.505 27.125V27.9375H121.693V27.125H122.505ZM122.505 27.125V26.3125H123.318V25.5H124.13V24.6875H124.943V22.25H125.755V23.0625H126.568V24.6875H125.755V25.5H126.568V26.3125H127.38V27.9375H126.568V27.125H125.755V26.3125H124.13V27.125H122.505ZM131.443 27.125V27.9375H130.63V25.5H127.38V24.6875H130.63V22.25H129.818V21.4375H131.443V22.25H132.255V27.125H131.443ZM145.028 27.9375H135.278V28.75H134.465V27.9375H133.653V27.125H138.528V25.5H137.715V24.6875H136.903V23.0625H136.09V22.25H142.59V23.0625H138.528V24.6875H142.59V25.5H140.153V27.125H143.403V26.3125H144.215V27.125H145.028V27.9375ZM141.778 32V32.8125H140.965V29.5625H137.715V30.375H136.903V29.5625H136.09V28.75H142.59V32H141.778ZM155.362 32V32.8125H154.55V27.125H151.3V27.9375H152.112V29.5625H150.487V27.9375H148.862V28.75H148.05V29.5625H146.425V30.375H145.612V29.5625H146.425V28.75H147.237V27.9375H148.05V26.3125H148.862V23.0625H149.675V23.875H150.487V27.125H151.3V26.3125H154.55V22.25H153.737V21.4375H155.362V22.25H156.175V32H155.362ZM168.948 31.1875H159.198V32H158.385V31.1875H157.573V30.375H162.448V27.125H160.823V27.9375H160.01V23.875H159.198V23.0625H166.51V24.6875H165.698V25.5H164.885V26.3125H165.698V27.125H163.26V27.9375H164.073V30.375H166.51V29.5625H168.135V30.375H168.948V31.1875ZM161.635 26.3125H164.073V25.5V24.6875V23.875H161.635V24.6875V26.3125ZM180.095 32.8125H174.408V29.5625H173.595V28.75H180.095V31.1875H179.283V32H180.095V32.8125ZM176.033 32H178.47V31.1875V30.375V29.5625H176.033V30.375V32ZM179.283 27.125V27.9375H178.47V22.25H177.658V21.4375H179.283V22.25H180.095V27.125H179.283ZM171.158 26.3125H170.345V23.875H171.158V23.0625H174.408V23.875H175.22V26.3125H174.408V27.125H171.158V26.3125ZM171.97 26.3125H173.595V25.5V24.6875V23.875H171.97V24.6875V26.3125ZM97.1875 50.1875H87.4375V51H86.625V50.1875H85.8125V49.375H90.6875V46.125H88.25V45.3125H87.4375V42.875H86.625V42.0625H93.125V41.25H93.9375V42.0625H94.75V42.875H89.0625V45.3125H93.125V44.5H93.9375V45.3125H94.75V46.125H91.5V46.9375H92.3125V49.375H94.75V48.5625H96.375V49.375H97.1875V50.1875ZM109.148 50.1875H99.3975V51H98.585V50.1875H97.7725V49.375H106.71V48.5625H108.335V49.375H109.148V50.1875ZM105.085 46.9375V47.75H104.273V46.9375H105.085ZM105.085 46.9375V42.875H101.835V43.6875H100.21V42.875H99.3975V42.0625H106.71V46.125H105.898V46.9375H105.085ZM119.483 51V51.8125H118.67V41.25H117.858V40.4375H119.483V41.25H120.295V51H119.483ZM111.358 47.75H110.545V46.9375H109.733V44.5H110.545V43.6875H111.358V42.875H113.795V43.6875H114.608V44.5H115.42V46.9375H114.608V47.75H113.795V48.5625H111.358V47.75ZM112.17 47.75H112.983V46.9375H113.795V44.5H112.983V43.6875H112.17V44.5H111.358V46.9375H112.17V47.75ZM131.443 51V51.8125H130.63V46.125H127.38V46.9375H126.568V47.75H125.755V48.5625H123.318V47.75H122.505V46.9375H121.693V44.5H122.505V43.6875H123.318V42.875H125.755V43.6875H126.568V44.5H127.38V45.3125H130.63V41.25H129.818V40.4375H131.443V41.25H132.255V51H131.443ZM124.13 47.75H124.943V46.9375H125.755V44.5H124.943V43.6875H124.13V44.5H123.318V46.9375H124.13V47.75ZM150.487 46.9375H145.612V51H144.8V51.8125H143.987V46.9375H140.737V47.75H139.925V46.9375H139.112V46.125H148.05V45.3125H149.675V46.125H150.487V46.9375ZM146.425 44.5V45.3125H145.612V44.5H146.425ZM146.425 44.5V42.0625H142.362V42.875H141.55V42.0625H140.737V41.25H148.05V43.6875H147.237V44.5H146.425ZM156.76 51H155.948V48.5625H156.76V47.75H160.823V48.5625H161.635V51H160.823V51.8125H156.76V51ZM157.573 51H160.01V50.1875V49.375V48.5625H157.573V49.375V51ZM151.885 46.9375V47.75H151.073V46.9375H151.885ZM151.885 46.9375V46.125H152.698V45.3125H153.51V44.5H154.323V43.6875H155.135V42.875H151.885V42.0625H156.76V42.875H160.01V41.25H159.198V40.4375H160.823V41.25H161.635V46.125H160.823V46.9375H160.01V45.3125H156.76V44.5H160.01V43.6875H155.948V44.5H155.135V45.3125H154.323V46.125H153.51V46.9375H151.885ZM175.22 46.125H172.783V51H171.97V51.8125H171.158V41.25H170.345V40.4375H171.97V41.25H172.783V45.3125H173.595V44.5H174.408V45.3125H175.22V46.125ZM169.533 44.5H167.095V45.3125H167.908V46.125H168.72V47.75H167.908V48.5625H164.658V47.75H163.845V46.125H164.658V45.3125H163.845V44.5H163.033V43.6875H166.283V42.875H165.47V42.0625H164.658V41.25H166.283V42.0625H167.095V43.6875H167.908V42.875H168.72V43.6875H169.533V44.5ZM165.47 47.75H167.095V46.9375V46.125H165.47V47.75ZM164.658 45.3125H165.47V44.5H164.658V45.3125ZM184.743 51V51.8125H183.93V41.25H183.118V40.4375H184.743V41.25H185.555V51H184.743ZM175.805 48.5625V49.375H174.993V48.5625H175.805ZM175.805 48.5625V47.75H176.618V46.9375H177.43V46.125H178.243V45.3125H179.055V44.5H179.868V43.6875H177.43V44.5H176.618V43.6875H175.805V42.875H181.493V44.5H180.68V45.3125H179.868V46.125H179.055V46.9375H178.243V47.75H177.43V48.5625H175.805Z" fill="black"/>
<rect x="1.5" y="1.5" width="206" height="102" rx="3.5" stroke="black" stroke-width="3"/>
<path d="M64.2438 50.0021L46.5688 19.3866C45.9864 18.3786 44.9438 17.7759 43.7791 17.7759C42.6143 17.7759 41.5718 18.3786 40.9894 19.3866L23.3124 50.0021C22.73 51.0101 22.73 52.2156 23.3124 53.2235C23.8948 54.2315 24.9373 54.8342 26.1021 54.8342H61.452C62.6168 54.8342 63.6593 54.2315 64.2417 53.2235C64.8261 52.2156 64.8261 51.0101 64.2438 50.0021Z" fill="#FFCE00"/>
<path d="M42.6408 44.2027H44.9174L45.679 28.9937H41.8793L42.6408 44.2027Z" fill="white"/>
<path d="M45.1231 47.0454C44.95 46.8723 44.7464 46.7359 44.5142 46.6381C44.2821 46.5404 44.0337 46.4895 43.773 46.4895C43.5124 46.4895 43.266 46.5384 43.0379 46.6381C42.8078 46.7379 42.6083 46.8723 42.4352 47.0454C42.2621 47.2185 42.1257 47.4221 42.0279 47.6543C41.9281 47.8864 41.8793 48.1348 41.8793 48.3955C41.8793 48.6561 41.9281 48.9025 42.0279 49.1306C42.1257 49.3607 42.2621 49.5602 42.4352 49.7333C42.6083 49.9064 42.8099 50.0428 43.0379 50.1406C43.268 50.2383 43.5124 50.2892 43.773 50.2892C44.0337 50.2892 44.2801 50.2403 44.5142 50.1406C44.7464 50.0408 44.95 49.9064 45.1231 49.7333C45.2962 49.5602 45.4326 49.3586 45.5303 49.1306C45.6281 48.9005 45.679 48.6561 45.679 48.3955C45.679 48.1348 45.6301 47.8884 45.5303 47.6543C45.4306 47.4201 45.2962 47.2165 45.1231 47.0454Z" fill="white"/>
<path d="M46.4506 46.2553L47.202 27.4685H40.354L41.1054 46.2553C40.859 46.5526 40.6717 46.8845 40.5454 47.2551C40.4192 47.6257 40.354 48.0044 40.354 48.3934C40.354 48.8658 40.4436 49.3097 40.6248 49.721C40.8061 50.1324 41.0504 50.4948 41.3599 50.8064C41.6694 51.1159 42.0319 51.3623 42.4453 51.5415C42.8586 51.7207 43.3005 51.8123 43.7729 51.8123C44.2453 51.8123 44.6893 51.7227 45.1067 51.5415C45.5221 51.3623 45.8866 51.1159 46.1961 50.8064C46.5056 50.4948 46.752 50.1344 46.9312 49.721C47.1104 49.3077 47.202 48.8658 47.202 48.3934C47.202 48.0044 47.1389 47.6257 47.0106 47.2551C46.8844 46.8865 46.697 46.5526 46.4506 46.2553ZM45.5302 49.1285C45.4305 49.3586 45.2961 49.5581 45.123 49.7312C44.9499 49.9043 44.7463 50.0407 44.5141 50.1385C44.282 50.2362 44.0336 50.2871 43.7729 50.2871C43.5123 50.2871 43.2659 50.2382 43.0378 50.1385C42.8077 50.0387 42.6082 49.9043 42.4351 49.7312C42.262 49.5581 42.1256 49.3565 42.0278 49.1285C41.9281 48.8984 41.8792 48.654 41.8792 48.3934C41.8792 48.1327 41.9281 47.8863 42.0278 47.6522C42.1256 47.42 42.262 47.2164 42.4351 47.0433C42.6082 46.8702 42.8098 46.7338 43.0378 46.6361C43.2679 46.5383 43.5123 46.4874 43.7729 46.4874C44.0336 46.4874 44.28 46.5363 44.5141 46.6361C44.7463 46.7358 44.9499 46.8702 45.123 47.0433C45.2961 47.2164 45.4325 47.42 45.5302 47.6522C45.628 47.8843 45.6789 48.1327 45.6789 48.3934C45.6789 48.654 45.628 48.9004 45.5302 49.1285ZM44.9173 44.2027H42.6408L41.8792 28.9937H45.6789L44.9173 44.2027Z" fill="black"/>
<path d="M62.1932 55.61H25.3629C24.1493 55.61 23.0619 54.9828 22.4551 53.9321C21.8483 52.8814 21.8483 51.627 22.4551 50.5743L40.8713 18.6779C41.4781 17.6272 42.5655 17 43.7791 17C44.9927 17 46.0801 17.6272 46.6869 18.6779L65.1031 50.5743C65.7099 51.625 65.7099 52.8793 65.1031 53.9321C64.4942 54.9828 63.4068 55.61 62.1932 55.61ZM42.317 19.5128L23.9009 51.4091C23.5954 51.9365 23.5954 52.5678 23.9009 53.0972C24.2063 53.6246 24.752 53.9403 25.3629 53.9403H62.1932C62.8041 53.9403 63.3498 53.6246 63.6553 53.0972C63.9607 52.5698 63.9607 51.9386 63.6553 51.4091L45.2411 19.5128C44.9357 18.9854 44.39 18.6698 43.7791 18.6698C43.1682 18.6698 42.6225 18.9854 42.317 19.5128Z" fill="black"/>
<path d="M47.375 84.625H43V84H42.375V82.125H41.75V81.5H43V82.125H43.625V84H46.125V83.375H46.75V84H47.375V84.625ZM46.125 80.25V80.875H45.5V76.5H44.875V75.875H46.125V76.5H46.75V80.25H46.125ZM39.875 79.625H39.25V77.75H39.875V77.125H42.375V77.75H43V79.625H42.375V80.25H39.875V79.625ZM40.5 79.625H41.75V79V78.375V77.75H40.5V78.375V79.625ZM56.575 83.375H49.075V84H48.45V83.375H47.825V82.75H54.7V82.125H55.95V82.75H56.575V83.375ZM55.325 80.25H53.45V79.625H50.95V80.25H49.7V80.875H48.45V80.25H49.7V79.625H50.325V79H50.95V78.375H51.575V76.5H52.2V77.125H52.825V78.375H52.2V79H54.7V79.625H55.325V80.25ZM62.025 81.5H61.4V82.125H60.15V82.75H58.275V82.125H57.65V78.375H57.025V77.75H60.15V77.125H60.775V77.75H61.4V78.375H58.9V79.625H60.15V79H60.775V79.625H61.4V80.25H58.9V81.5H61.4V80.875H62.025V81.5ZM66.4 80.25H64.525V84H63.9V84.625H63.275V76.5H62.65V75.875H63.9V76.5H64.525V79.625H65.15V79H65.775V79.625H66.4V80.25ZM74.975 83.375H67.475V84H66.85V83.375H66.225V82.75H73.1V82.125H74.35V82.75H74.975V83.375ZM71.85 80.875V81.5H71.225V80.875H71.85ZM71.85 80.875V77.75H69.35V78.375H68.1V77.75H67.475V77.125H73.1V80.25H72.475V80.875H71.85ZM83.55 84.625H79.175V82.125H78.55V81.5H83.55V83.375H82.925V84H83.55V84.625ZM80.425 80.25H79.175V80.875H76.675V80.25H76.05V79H75.425V78.375H78.55V77.75H76.05V77.125H79.8V78.375H79.175V79H77.3V80.25H79.175V79.625H80.425V80.25ZM80.425 84H82.3V83.375V82.75V82.125H80.425V82.75V84ZM81.675 80.25V80.875H81.05V77.125H80.425V76.5H81.675V77.125H82.3V77.75H82.925V76.5H82.3V75.875H83.55V76.5H84.175V80.25H83.55V80.875H82.925V78.375H82.3V80.25H81.675Z" fill="black"/>
<rect x="29.5" y="69.5" width="67" height="22" rx="2.5" stroke="black"/>
<rect x="31.5" y="71.5" width="63" height="18" rx="1.5" stroke="black"/>
<path d="M139.125 84.625H134.125V84H133.5V82.75H137.25V82.125H133.5V81.5H138.5V82.75H137.875V83.375H134.75V84H137.875V83.375H138.5V84H139.125V84.625ZM140.375 80.875H132.875V81.5H132.25V80.875H131.625V80.25H134.125V77.125H133.5V76.5H134.75V77.125H135.375V77.75H137.25V77.125H136.625V76.5H137.875V77.125H138.5V79H137.875V79.625H134.75V80.25H139.125V79.625H139.75V80.25H140.375V80.875ZM135.375 79H137.25V78.375H135.375V79ZM149.575 83.375H142.075V84H141.45V83.375H140.825V82.75H144.575V80.875H143.325V80.25H142.7V79H142.075V78.375H146.45V77.75H142.7V77.125H147.7V78.375H147.075V79H143.95V80.25H146.45V79.625H147.075V80.25H147.7V80.875H145.825V82.75H147.7V82.125H148.95V82.75H149.575V83.375ZM158.775 83.375H151.275V84H150.65V83.375H150.025V82.75H156.9V82.125H158.15V82.75H158.775V83.375ZM155.65 80.875V81.5H155.025V80.875H155.65ZM155.65 80.875V77.75H153.15V78.375H151.9V77.75H151.275V77.125H156.9V80.25H156.275V80.875H155.65Z" fill="black"/>
<rect x="111.5" y="69.5" width="67" height="22" rx="2.5" stroke="black"/>
<rect x="113.5" y="71.5" width="63" height="18" rx="1.5" stroke="black"/>
<path d="M171.693 83.2787L170 81.6533V84V107.643V109.769L171.638 108.414L176.258 104.588L180.084 111.485L180.573 112.366L181.45 111.871L185.228 109.737L186.088 109.251L185.613 108.385L181.986 101.777L188.074 101.322L190.309 101.156L188.693 99.6038L171.693 83.2787Z" fill="white" stroke="black" stroke-width="2"/>
</svg>
