<svg width="29" height="29" viewBox="0 0 29 29" fill="none" xmlns="http://www.w3.org/2000/svg">
<path d="M28.6832 14.1046C28.6832 16.9322 28.7089 19.7612 28.6746 22.5888C28.6489 24.7384 27.6477 26.3603 25.8013 27.4473C24.956 27.945 24.0264 28.1609 23.0452 28.1595C17.3901 28.1581 11.7335 28.1581 6.07842 28.1581C3.37958 28.1581 0.971068 26.0585 0.602069 23.3883C0.550581 23.0193 0.524837 22.6503 0.524837 22.277C0.527697 16.7177 0.501953 11.1598 0.539139 5.6005C0.553441 3.46231 1.55889 1.8247 3.40675 0.73343C4.27204 0.222838 5.22314 0.00544343 6.22573 0.00687366C11.8551 0.00687366 17.4831 -0.0145798 23.1125 0.0183155C25.2492 0.0311876 26.8768 1.0395 27.9638 2.88021C28.4687 3.73405 28.6861 4.67371 28.6846 5.66772C28.6803 8.48242 28.6832 11.2942 28.6832 14.1046ZM14.6112 2.16366C11.9509 2.16366 9.28929 2.16366 6.62906 2.16366C6.48317 2.16366 6.33729 2.16795 6.19284 2.1751C4.15333 2.27236 2.56148 3.93858 2.56148 5.98094C2.56005 9.00302 2.56005 12.0251 2.56148 15.0472C2.56148 17.1696 4.25917 18.8687 6.37734 18.8702C8.21232 18.8702 10.0473 18.8716 11.8823 18.8673C11.9981 18.8673 12.0668 18.9002 12.1269 19.0018C12.3843 19.4323 12.6489 19.8585 12.9135 20.2861C13.2939 20.9011 13.6658 21.5218 14.0577 22.1282C14.3394 22.5645 14.8743 22.5559 15.1733 22.1282C15.2076 22.0796 15.239 22.0296 15.2705 21.9795C15.8812 20.9869 16.4934 19.9958 17.0998 19.0003C17.1613 18.8988 17.2299 18.8687 17.3458 18.8687C19.1908 18.873 21.0372 18.873 22.8822 18.8716C24.9431 18.8702 26.658 17.1725 26.6623 15.113C26.6694 12.0537 26.6709 8.99301 26.6594 5.93375C26.6551 4.85535 26.2389 3.93715 25.4523 3.19772C24.7057 2.4969 23.809 2.16652 22.7878 2.16652C20.0618 2.16366 17.3358 2.16366 14.6112 2.16366Z" fill="white"/>
<path d="M22.5904 9.35304C22.619 8.96831 22.619 8.96831 22.9752 8.96831C23.2884 8.96831 23.6016 8.97117 23.9148 8.96688C24.0135 8.96545 24.045 8.99692 24.045 9.0956C24.0421 10.4987 24.0607 11.9017 24.0378 13.3048C24.0164 14.5891 23.1096 15.4458 21.8238 15.4487C21.6894 15.4487 21.5535 15.4458 21.4191 15.4501C21.3419 15.4515 21.3004 15.4315 21.3018 15.3428C21.3061 14.9753 21.3047 14.6091 21.3018 14.2416C21.3004 14.1558 21.3361 14.1272 21.4177 14.1314C21.5206 14.1357 21.6222 14.1357 21.7252 14.1314C22.1914 14.1129 22.4746 13.8711 22.5747 13.4149C22.6219 13.2032 22.5976 12.9901 22.6047 12.7456C22.097 13.2676 21.4977 13.3477 20.8513 13.239C20.3064 13.1474 19.8873 12.8571 19.6241 12.3751C19.1951 11.5885 19.1436 10.7647 19.5054 9.94373C19.833 9.20001 20.468 8.88393 21.2489 8.82815C21.7638 8.78953 22.2071 8.96831 22.5904 9.35304ZM20.7812 11.0951C20.7783 11.62 21.2031 12.0505 21.7223 12.049C22.2372 12.0476 22.6605 11.6271 22.6648 11.1122C22.6691 10.5888 22.2458 10.1611 21.7223 10.1597C21.2074 10.1597 20.7826 10.5802 20.7812 11.0951Z" fill="white"/>
<path d="M6.67914 12.7546C6.67914 12.8976 6.67628 12.9948 6.68057 13.0907C6.68343 13.1751 6.64911 13.2022 6.56616 13.2022C6.14567 13.1994 5.72375 13.1965 5.30326 13.2037C5.17883 13.2051 5.18026 13.1407 5.18026 13.0521C5.18169 12.4528 5.18169 11.8535 5.18169 11.2543C5.18169 9.90984 5.18312 8.56685 5.17883 7.22244C5.17883 7.08228 5.20887 7.03651 5.35618 7.0408C5.74377 7.05224 6.1328 7.04795 6.52182 7.04223C6.63767 7.0408 6.6677 7.07942 6.66627 7.19097C6.66198 7.84459 6.66484 8.49677 6.66484 9.15039C6.66484 9.20903 6.66484 9.26624 6.66484 9.32345C6.73921 9.3449 6.7621 9.28912 6.79499 9.26052C7.76326 8.45816 9.12198 8.74563 9.6812 9.87122C9.95437 10.4233 10.0702 11.0011 9.95294 11.6132C9.77702 12.5357 9.12198 13.1579 8.15371 13.3224C7.57161 13.4225 7.09248 13.238 6.67914 12.7546ZM6.65054 11.1069C6.65197 11.6247 7.07246 12.0509 7.58305 12.0509C8.10365 12.0509 8.53415 11.6218 8.53272 11.1027C8.53129 10.5878 8.10937 10.163 7.59449 10.1616C7.06817 10.1587 6.65054 10.5778 6.65054 11.1069Z" fill="white"/>
<path d="M16.113 8.82422C16.7466 8.83852 17.353 8.96581 17.8379 9.42349C19.0907 10.6049 18.6345 12.6529 17.0026 13.1836C16.4877 13.3509 15.9614 13.401 15.4222 13.3023C14.4311 13.1206 13.8032 12.5099 13.6344 11.5102C13.4742 10.5662 13.7917 9.61371 14.7457 9.14316C15.1748 8.93149 15.6282 8.82708 16.113 8.82422ZM16.9826 11.104C16.9812 10.582 16.5549 10.1572 16.0343 10.1615C15.5123 10.1658 15.089 10.5948 15.0947 11.114C15.099 11.6232 15.528 12.0494 16.0372 12.0508C16.5564 12.0522 16.984 11.6246 16.9826 11.104Z" fill="white"/>
<path d="M12.5617 11.011C12.5617 11.6847 12.5575 12.3597 12.5646 13.0334C12.566 13.1707 12.5231 13.2064 12.3901 13.2036C12.0283 13.195 11.6664 13.1936 11.306 13.205C11.1573 13.2093 11.1287 13.1592 11.1301 13.0205C11.1358 11.8549 11.1329 10.6907 11.1329 9.52503C11.1329 9.26902 11.1072 9.01873 11.0057 8.78131C10.9141 8.56821 10.7754 8.4023 10.5394 8.34652C10.4679 8.32936 10.4579 8.2936 10.4579 8.23353C10.4593 7.82878 10.4622 7.42402 10.4564 7.01927C10.455 6.89913 10.5251 6.90628 10.6038 6.91057C11.326 6.94346 11.891 7.24381 12.2428 7.89171C12.4588 8.28645 12.5603 8.71552 12.5617 9.16604C12.5632 9.78104 12.5617 10.396 12.5617 11.011Z" fill="white"/>
</svg>
