<svg width="209" height="117" viewBox="0 0 209 117" fill="none" xmlns="http://www.w3.org/2000/svg">
<path d="M62.25 28.25H53.25V29H52.5V28.25H51.75V27.5H56.25V26H55.5V25.25H54.75V23.75H54V23H60V23.75H56.25V25.25H60V26H57.75V27.5H60.75V26.75H61.5V27.5H62.25V28.25ZM59.25 32V32.75H58.5V29.75H55.5V30.5H54.75V29.75H54V29H60V32H59.25ZM71.79 32V32.75H71.04V27.5H68.04V28.25H68.79V29.75H67.29V28.25H65.79V29H65.04V29.75H63.54V30.5H62.79V29.75H63.54V29H64.29V28.25H65.04V26.75H65.79V23.75H66.54V24.5H67.29V27.5H68.04V26.75H71.04V23H70.29V22.25H71.79V23H72.54V32H71.79ZM84.33 31.25H75.33V32H74.58V31.25H73.83V30.5H78.33V27.5H76.83V28.25H76.08V24.5H75.33V23.75H82.08V25.25H81.33V26H80.58V26.75H81.33V27.5H79.08V28.25H79.83V30.5H82.08V29.75H83.58V30.5H84.33V31.25ZM77.58 26.75H79.83V26V25.25V24.5H77.58V25.25V26.75ZM94.62 32.75H89.37V29.75H88.62V29H94.62V31.25H93.87V32H94.62V32.75ZM90.87 32H93.12V31.25V30.5V29.75H90.87V30.5V32ZM93.87 27.5V28.25H93.12V23H92.37V22.25H93.87V23H94.62V27.5H93.87ZM86.37 26.75H85.62V24.5H86.37V23.75H89.37V24.5H90.12V26.75H89.37V27.5H86.37V26.75ZM87.12 26.75H88.62V26V25.25V24.5H87.12V25.25V26.75ZM107.16 27.5H104.91V32H104.16V32.75H103.41V23H102.66V22.25H104.16V23H104.91V26.75H105.66V26H106.41V26.75H107.16V27.5ZM101.91 26H99.66V26.75H100.41V27.5H101.16V29H100.41V29.75H97.41V29H96.66V27.5H97.41V26.75H96.66V26H95.91V25.25H98.91V24.5H98.16V23.75H97.41V23H98.91V23.75H99.66V25.25H100.41V24.5H101.16V25.25H101.91V26ZM98.16 29H99.66V28.25V27.5H98.16V29ZM97.41 26.75H98.16V26H97.41V26.75ZM115.95 32.75H110.7V32H109.95V29.75H109.2V29H110.7V29.75H111.45V32H114.45V31.25H115.2V32H115.95V32.75ZM117.45 28.25H108.45V29H107.7V28.25H106.95V27.5H115.95V26.75H116.7V27.5H117.45V28.25ZM115.2 26H110.7V25.25H109.95V23.75H109.2V23H110.7V23.75H111.45V25.25H113.7V24.5H114.45V25.25H115.2V26ZM122.28 29H123.03V28.25H123.78V27.5H124.53V26.75H125.28V26H126.03V24.5H123.78V25.25H122.28V24.5H123.03V23.75H126.78V24.5H127.53V26H126.78V26.75H126.03V27.5H125.28V28.25H124.53V29H123.78V29.75H126.03V29H127.53V30.5H122.28V29ZM128.82 29.75H128.07V29H127.32V25.25H128.07V24.5H128.82V23.75H131.07V24.5H131.82V25.25H132.57V29H131.82V29.75H131.07V30.5H128.82V29.75ZM129.57 29.75H130.32V29H131.07V25.25H130.32V24.5H129.57V25.25H128.82V29H129.57V29.75ZM133.11 29.75H132.36V29H133.86V29.75H136.11V27.5H133.86V26.75H136.11V24.5H133.86V25.25H132.36V24.5H133.11V23.75H136.86V24.5H137.61V26.75H136.86V27.5H137.61V29.75H136.86V30.5H133.11V29.75ZM138.9 29.75H138.15V29H137.4V25.25H138.15V24.5H138.9V23.75H141.15V24.5H141.9V25.25H142.65V29H141.9V29.75H141.15V30.5H138.9V29.75ZM139.65 29.75H140.4V29H141.15V25.25H140.4V24.5H139.65V25.25H138.9V29H139.65V29.75ZM157.23 32V32.75H156.48V28.25H152.73V29H151.98V29.75H149.73V29H148.98V28.25H148.23V26H148.98V25.25H149.73V24.5H151.98V25.25H152.73V26H153.48V25.25H156.48V23H155.73V22.25H157.23V23H157.98V32H157.23ZM150.48 29H151.23V28.25H151.98V26H151.23V25.25H150.48V26H149.73V28.25H150.48V29ZM153.48 27.5H156.48V26.75V26H153.48V27.5ZM164.52 32H163.77V29.75H164.52V29H168.27V29.75H169.02V32H168.27V32.75H164.52V32ZM165.27 32H167.52V31.25V30.5V29.75H165.27V30.5V32ZM160.02 27.5V28.25H159.27V27.5H160.02ZM160.02 27.5V26.75H160.77V26H161.52V25.25H162.27V23H163.02V23.75H163.77V25.25H163.02V26H163.77V26.75H164.52V28.25H163.77V27.5H163.02V26.75H161.52V27.5H160.02ZM168.27 27.5V28.25H167.52V26H164.52V25.25H167.52V23H166.77V22.25H168.27V23H169.02V27.5H168.27ZM179.31 32.75H173.31V32H172.56V30.5H177.06V29.75H172.56V29H178.56V30.5H177.81V31.25H174.06V32H177.81V31.25H178.56V32H179.31V32.75ZM180.81 28.25H171.81V29H171.06V28.25H170.31V27.5H179.31V26.75H180.06V27.5H180.81V28.25ZM178.56 26H174.06V25.25H173.31V23.75H172.56V23H178.56V23.75H174.81V25.25H178.56V26ZM190.35 32V32.75H189.6V23H188.85V22.25H190.35V23H191.1V32H190.35ZM182.85 29H182.1V28.25H181.35V26H182.1V25.25H182.85V24.5H185.1V25.25H185.85V26H186.6V28.25H185.85V29H185.1V29.75H182.85V29ZM183.6 29H184.35V28.25H185.1V26H184.35V25.25H183.6V26H182.85V28.25H183.6V29ZM61.5 49.75H56.25V49H55.5V46.75H54.75V46H56.25V46.75H57V49H60V48.25H60.75V49H61.5V49.75ZM57 44.5H53.25V45.25H52.5V41.5H51.75V40.75H57V43H56.25V43.75H57V44.5ZM63 43H60.75V44.5H60V45.25H59.25V40H58.5V39.25H60V40H60.75V42.25H63V43ZM54 43.75H55.5V43V42.25V41.5H54V42.25V43.75ZM71.79 49.75H66.54V49H65.79V46.75H65.04V46H66.54V46.75H67.29V49H70.29V48.25H71.04V49H71.79V49.75ZM73.29 45.25H64.29V46H63.54V45.25H62.79V44.5H71.79V43.75H72.54V44.5H73.29V45.25ZM71.04 43H66.54V42.25H65.79V40.75H65.04V40H71.04V40.75H67.29V42.25H71.04V43ZM84.12 44.5H82.62V43.75H81.12V44.5H79.62V45.25H78.87V44.5H79.62V43.75H80.37V43H81.12V42.25H79.62V41.5H81.12V40.75H80.37V40H81.87V40.75H82.62V41.5H83.37V42.25H82.62V43H83.37V43.75H84.12V44.5ZM87.87 49V49.75H87.12V46.75H83.37V47.5H82.62V46.75H81.87V46H88.62V49H87.87ZM86.37 44.5V45.25H85.62V40.75H84.87V40H86.37V40.75H87.12V41.5H87.87V40H87.12V39.25H88.62V40H89.37V44.5H88.62V45.25H87.87V42.25H87.12V44.5H86.37ZM98.91 49V49.75H98.16V40H97.41V39.25H98.91V40H99.66V49H98.91ZM91.41 46H90.66V45.25H89.91V43H90.66V42.25H91.41V41.5H93.66V42.25H94.41V43H95.16V45.25H94.41V46H93.66V46.75H91.41V46ZM92.16 46H92.91V45.25H93.66V43H92.91V42.25H92.16V43H91.41V45.25H92.16V46ZM116.49 44.5H111.99V46H113.49V46.75H114.24V49H113.49V49.75H109.74V49H108.99V46.75H109.74V46H110.49V44.5H107.49V45.25H106.74V44.5H105.99V43.75H111.99V43H112.74V43.75H114.99V43H115.74V43.75H116.49V44.5ZM110.49 49H112.74V48.25V47.5V46.75H110.49V47.5V49ZM112.74 43V40.75H109.74V41.5H108.99V40.75H108.24V40H114.24V42.25H113.49V43H112.74ZM125.28 49.75H120.03V46.75H119.28V46H125.28V48.25H124.53V49H125.28V49.75ZM127.53 44.5H118.53V45.25H117.78V44.5H117.03V43.75H123.03V43H123.78V43.75H126.03V43H126.78V43.75H127.53V44.5ZM121.53 49H123.78V48.25V47.5V46.75H121.53V47.5V49ZM123.78 43V40.75H120.78V41.5H120.03V40.75H119.28V40H125.28V42.25H124.53V43H123.78ZM139.32 44.5H137.07V49H136.32V49.75H135.57V40H134.82V39.25H136.32V40H137.07V43.75H137.82V43H138.57V43.75H139.32V44.5ZM134.07 43H131.82V43.75H132.57V44.5H133.32V46H132.57V46.75H129.57V46H128.82V44.5H129.57V43.75H128.82V43H128.07V42.25H131.07V41.5H130.32V40.75H129.57V40H131.07V40.75H131.82V42.25H132.57V41.5H133.32V42.25H134.07V43ZM130.32 46H131.82V45.25V44.5H130.32V46ZM129.57 43.75H130.32V43H129.57V43.75ZM145.11 46H144.36V46.75H142.86V47.5H140.61V46.75H139.86V42.25H139.11V41.5H142.86V40.75H143.61V41.5H144.36V42.25H141.36V46H144.36V45.25H145.11V46ZM150.36 44.5H148.11V49H147.36V49.75H146.61V40H145.86V39.25H147.36V40H148.11V43.75H148.86V43H149.61V43.75H150.36V44.5ZM160.65 49.75H155.4V49H154.65V46.75H153.9V46H155.4V46.75H156.15V49H159.15V48.25H159.9V49H160.65V49.75ZM151.65 44.5V45.25H150.9V41.5H150.15V40.75H155.4V41.5H158.4V40H157.65V39.25H159.15V40H159.9V44.5H159.15V45.25H158.4V43.75H155.4V43H154.65V43.75H155.4V44.5H151.65ZM152.4 43.75H153.9V43V42.25V41.5H152.4V42.25V43.75ZM155.4 43H158.4V42.25H155.4V43ZM162.69 46H164.19V47.5H162.69V46ZM162.69 43.75H163.44V43H164.19V41.5H161.94V43H160.44V41.5H161.19V40.75H164.94V41.5H165.69V43H164.94V43.75H164.19V45.25H162.69V43.75Z" fill="black"/>
<rect x="1.5" y="1.5" width="206" height="102" rx="3.5" stroke="black" stroke-width="3"/>
<path d="M41.2589 44.5143L30.2721 25.4836C29.9101 24.8571 29.2621 24.4824 28.5381 24.4824C27.814 24.4824 27.166 24.8571 26.804 25.4836L15.8159 44.5143C15.4539 45.1408 15.4539 45.8902 15.8159 46.5167C16.1779 47.1433 16.826 47.5179 17.55 47.5179H39.5235C40.2476 47.5179 40.8956 47.1433 41.2576 46.5167C41.6209 45.8902 41.6209 45.1408 41.2589 44.5143Z" fill="#FFCE00"/>
<path d="M27.8304 40.9093H29.2456L29.719 31.4553H27.3571L27.8304 40.9093Z" fill="white"/>
<path d="M29.3734 42.6761C29.2658 42.5685 29.1392 42.4837 28.9949 42.423C28.8506 42.3622 28.6962 42.3306 28.5342 42.3306C28.3722 42.3306 28.219 42.3609 28.0773 42.423C27.9342 42.485 27.8102 42.5685 27.7026 42.6761C27.595 42.7837 27.5102 42.9103 27.4495 43.0546C27.3874 43.1989 27.3571 43.3533 27.3571 43.5153C27.3571 43.6773 27.3874 43.8305 27.4495 43.9723C27.5102 44.1153 27.595 44.2393 27.7026 44.3469C27.8102 44.4545 27.9355 44.5393 28.0773 44.6001C28.2203 44.6608 28.3722 44.6925 28.5342 44.6925C28.6962 44.6925 28.8494 44.6621 28.9949 44.6001C29.1392 44.538 29.2658 44.4545 29.3734 44.3469C29.481 44.2393 29.5658 44.114 29.6266 43.9723C29.6873 43.8292 29.719 43.6773 29.719 43.5153C29.719 43.3533 29.6886 43.2001 29.6266 43.0546C29.5645 42.909 29.481 42.7824 29.3734 42.6761Z" fill="white"/>
<path d="M30.1984 42.1852L30.6654 30.5073H26.4087L26.8758 42.1852C26.7226 42.37 26.6061 42.5763 26.5277 42.8067C26.4492 43.037 26.4087 43.2725 26.4087 43.5142C26.4087 43.8079 26.4644 44.0838 26.577 44.3395C26.6897 44.5952 26.8416 44.8205 27.034 45.0142C27.2264 45.2065 27.4517 45.3597 27.7086 45.4711C27.9656 45.5825 28.2402 45.6394 28.5339 45.6394C28.8276 45.6394 29.1035 45.5837 29.363 45.4711C29.6212 45.3597 29.8478 45.2065 30.0401 45.0142C30.2325 44.8205 30.3857 44.5965 30.4971 44.3395C30.6085 44.0826 30.6654 43.8079 30.6654 43.5142C30.6654 43.2725 30.6262 43.037 30.5464 42.8067C30.468 42.5776 30.3515 42.37 30.1984 42.1852ZM29.6262 43.9712C29.5642 44.1142 29.4807 44.2382 29.3731 44.3458C29.2655 44.4534 29.1389 44.5382 28.9946 44.599C28.8503 44.6597 28.6959 44.6914 28.5339 44.6914C28.3719 44.6914 28.2187 44.661 28.077 44.599C27.9339 44.537 27.8099 44.4534 27.7023 44.3458C27.5947 44.2382 27.5099 44.1129 27.4491 43.9712C27.3871 43.8281 27.3567 43.6762 27.3567 43.5142C27.3567 43.3522 27.3871 43.1991 27.4491 43.0535C27.5099 42.9092 27.5947 42.7826 27.7023 42.675C27.8099 42.5674 27.9352 42.4826 28.077 42.4219C28.22 42.3611 28.3719 42.3295 28.5339 42.3295C28.6959 42.3295 28.8491 42.3599 28.9946 42.4219C29.1389 42.4839 29.2655 42.5674 29.3731 42.675C29.4807 42.7826 29.5655 42.9092 29.6262 43.0535C29.687 43.1978 29.7186 43.3522 29.7186 43.5142C29.7186 43.6762 29.687 43.8294 29.6262 43.9712ZM29.2453 40.9093H27.8301L27.3567 31.4554H29.7186L29.2453 40.9093Z" fill="black"/>
<path d="M39.9841 48H17.0904C16.336 48 15.6601 47.6101 15.2829 46.957C14.9057 46.3039 14.9057 45.5242 15.2829 44.8698L26.7304 25.043C27.1076 24.3899 27.7835 24 28.5379 24C29.2923 24 29.9682 24.3899 30.3454 25.043L41.7929 44.8698C42.1701 45.5229 42.1701 46.3026 41.7929 46.957C41.4144 47.6101 40.7385 48 39.9841 48ZM27.6291 25.5619L16.1816 45.3887C15.9917 45.7166 15.9917 46.109 16.1816 46.4381C16.3714 46.7659 16.7107 46.9621 17.0904 46.9621H39.9841C40.3639 46.9621 40.7031 46.7659 40.8929 46.4381C41.0828 46.1102 41.0828 45.7178 40.8929 45.3887L29.4467 25.5619C29.2568 25.2341 28.9176 25.0379 28.5379 25.0379C28.1582 25.0379 27.8189 25.2341 27.6291 25.5619Z" fill="black"/>
<path d="M45.25 77.25H44V77.875H41.5V78.5H40.25V77.875H39.625V77.25H40.875V75.375H41.5V76H42.125V77.25H44V76.625H45.25V77.25ZM49 76H47.125V77.875H46.5V79.125H47.125V81H46.5V81.625H43.375V81H42.75V79.125H43.375V78.5H45.875V73.5H45.25V72.875H46.5V73.5H47.125V75.375H47.75V74.75H48.375V75.375H49V76ZM44 81H45.875V80.375V79.75V79.125H44V79.75V81ZM43.375 75.375V76H42.75V74.125H41.5V74.75H40.875V74.125H40.25V73.5H44V75.375H43.375ZM57.575 77.875H53.825V81H53.2V81.625H52.575V77.875H50.075V78.5H49.45V77.875H48.825V77.25H55.7V76.625H56.95V77.25H57.575V77.875ZM56.325 76H54.45V75.375H53.825V74.75H53.2V75.375H51.95V76H50.7V76.625H49.45V76H50.7V75.375H51.325V74.75H51.95V74.125H50.7V73.5H55.075V74.125H54.45V74.75H55.7V75.375H56.325V76ZM65.525 81V81.625H64.9V77.875H61.775V78.5H61.15V79.125H59.275V78.5H58.65V77.875H58.025V76H58.65V75.375H59.275V74.75H61.15V75.375H61.775V76H62.4V75.375H64.9V73.5H64.275V72.875H65.525V73.5H66.15V81H65.525ZM59.9 78.5H60.525V77.875H61.15V76H60.525V75.375H59.9V76H59.275V77.875H59.9V78.5ZM62.4 77.25H64.9V76.625V76H62.4V77.25ZM71.6 81H70.975V79.125H71.6V78.5H74.725V79.125H75.35V81H74.725V81.625H71.6V81ZM72.225 81H74.1V80.375V79.75V79.125H72.225V79.75V81ZM67.85 77.25V77.875H67.225V77.25H67.85ZM67.85 77.25V76.625H68.475V76H69.1V75.375H69.725V73.5H70.35V74.125H70.975V75.375H70.35V76H70.975V76.625H71.6V77.875H70.975V77.25H70.35V76.625H69.1V77.25H67.85ZM74.725 77.25V77.875H74.1V76H71.6V75.375H74.1V73.5H73.475V72.875H74.725V73.5H75.35V77.25H74.725ZM85.175 77.875H77.675V78.5H77.05V77.875H76.425V77.25H80.175V76H79.55V75.375H78.925V74.125H78.3V73.5H83.3V74.125H80.175V75.375H83.3V76H81.425V77.25H83.925V76.625H84.55V77.25H85.175V77.875ZM82.675 81V81.625H82.05V79.125H79.55V79.75H78.925V79.125H78.3V78.5H83.3V81H82.675ZM93.125 81V81.625H92.5V77.25H90V77.875H90.625V79.125H89.375V77.875H88.125V78.5H87.5V79.125H86.25V79.75H85.625V79.125H86.25V78.5H86.875V77.875H87.5V76.625H88.125V74.125H88.75V74.75H89.375V77.25H90V76.625H92.5V73.5H91.875V72.875H93.125V73.5H93.75V81H93.125ZM103.575 80.375H96.075V81H95.45V80.375H94.825V79.75H98.575V77.25H97.325V77.875H96.7V74.75H96.075V74.125H101.7V75.375H101.075V76H100.45V76.625H101.075V77.25H99.2V77.875H99.825V79.75H101.7V79.125H102.95V79.75H103.575V80.375ZM97.95 76.625H99.825V76V75.375V74.75H97.95V75.375V76.625ZM112.15 81.625H107.775V79.125H107.15V78.5H112.15V80.375H111.525V81H112.15V81.625ZM109.025 81H110.9V80.375V79.75V79.125H109.025V79.75V81ZM111.525 77.25V77.875H110.9V73.5H110.275V72.875H111.525V73.5H112.15V77.25H111.525ZM105.275 76.625H104.65V74.75H105.275V74.125H107.775V74.75H108.4V76.625H107.775V77.25H105.275V76.625ZM105.9 76.625H107.15V76V75.375V74.75H105.9V75.375V76.625ZM121.8 77.25H120.55V76.625H119.3V77.25H118.05V77.875H117.425V77.25H118.05V76.625H118.675V76H119.3V75.375H118.05V74.75H119.3V74.125H118.675V73.5H119.925V74.125H120.55V74.75H121.175V75.375H120.55V76H121.175V76.625H121.8V77.25ZM124.925 81V81.625H124.3V79.125H121.175V79.75H120.55V79.125H119.925V78.5H125.55V81H124.925ZM123.675 77.25V77.875H123.05V74.125H122.425V73.5H123.675V74.125H124.3V74.75H124.925V73.5H124.3V72.875H125.55V73.5H126.175V77.25H125.55V77.875H124.925V75.375H124.3V77.25H123.675ZM139.575 77.875H135.825V81H135.2V81.625H134.575V77.875H132.075V78.5H131.45V77.875H130.825V77.25H137.7V76.625H138.95V77.25H139.575V77.875ZM136.45 76V76.625H135.825V76H136.45ZM136.45 76V74.125H133.325V74.75H132.7V74.125H132.075V73.5H137.7V75.375H137.075V76H136.45ZM144.4 81H143.775V79.125H144.4V78.5H147.525V79.125H148.15V81H147.525V81.625H144.4V81ZM145.025 81H146.9V80.375V79.75V79.125H145.025V79.75V81ZM140.65 77.875V78.5H140.025V77.875H140.65ZM140.65 77.875V77.25H141.275V76.625H141.9V76H142.525V75.375H143.15V74.75H140.65V74.125H144.4V74.75H146.9V73.5H146.275V72.875H147.525V73.5H148.15V77.25H147.525V77.875H146.9V76.625H144.4V76H146.9V75.375H143.775V76H143.15V76.625H142.525V77.25H141.9V77.875H140.65ZM158.6 77.25H156.725V81H156.1V81.625H155.475V73.5H154.85V72.875H156.1V73.5H156.725V76.625H157.35V76H157.975V76.625H158.6V77.25ZM154.225 76H152.35V76.625H152.975V77.25H153.6V78.5H152.975V79.125H150.475V78.5H149.85V77.25H150.475V76.625H149.85V76H149.225V75.375H151.725V74.75H151.1V74.125H150.475V73.5H151.725V74.125H152.35V75.375H152.975V74.75H153.6V75.375H154.225V76ZM151.1 78.5H152.35V77.875V77.25H151.1V78.5ZM150.475 76.625H151.1V76H150.475V76.625ZM165.925 81V81.625H165.3V73.5H164.675V72.875H165.925V73.5H166.55V81H165.925ZM159.05 79.125V79.75H158.425V79.125H159.05ZM159.05 79.125V78.5H159.675V77.875H160.3V77.25H160.925V76.625H161.55V76H162.175V75.375H160.3V76H159.675V75.375H159.05V74.75H163.425V76H162.8V76.625H162.175V77.25H161.55V77.875H160.925V78.5H160.3V79.125H159.05Z" fill="black"/>
<rect x="32.5" y="66.5" width="143" height="22" rx="2.5" stroke="black"/>
<rect x="34.5" y="68.5" width="139" height="18" rx="1.5" stroke="black"/>
<path d="M170.693 86.2787L169 84.6533V87V110.643V112.769L170.638 111.414L175.258 107.588L179.084 114.485L179.573 115.366L180.45 114.871L184.228 112.737L185.088 112.251L184.613 111.385L180.986 104.777L187.074 104.322L189.309 104.156L187.693 102.604L170.693 86.2787Z" fill="white" stroke="black" stroke-width="2"/>
</svg>
