
<svg width="116" height="37" viewBox="0 0 116 37" fill="none" xmlns="http://www.w3.org/2000/svg">
<path d="M6.25 27.25H5V27.875H2.5V28.5H1.25V27.875H0.625V27.25H1.875V25.375H2.5V26H3.125V27.25H5V26.625H6.25V27.25ZM10 26H8.125V27.875H7.5V29.125H8.125V31H7.5V31.625H4.375V31H3.75V29.125H4.375V28.5H6.875V23.5H6.25V22.875H7.5V23.5H8.125V25.375H8.75V24.75H9.375V25.375H10V26ZM5 31H6.875V30.375V29.75V29.125H5V29.75V31ZM4.375 25.375V26H3.75V24.125H2.5V24.75H1.875V24.125H1.25V23.5H5V25.375H4.375ZM18.575 27.875H14.825V31H14.2V31.625H13.575V27.875H11.075V28.5H10.45V27.875H9.825V27.25H16.7V26.625H17.95V27.25H18.575V27.875ZM17.325 26H15.45V25.375H14.825V24.75H14.2V25.375H12.95V26H11.7V26.625H10.45V26H11.7V25.375H12.325V24.75H12.95V24.125H11.7V23.5H16.075V24.125H15.45V24.75H16.7V25.375H17.325V26ZM26.525 31V31.625H25.9V27.875H22.775V28.5H22.15V29.125H20.275V28.5H19.65V27.875H19.025V26H19.65V25.375H20.275V24.75H22.15V25.375H22.775V26H23.4V25.375H25.9V23.5H25.275V22.875H26.525V23.5H27.15V31H26.525ZM20.9 28.5H21.525V27.875H22.15V26H21.525V25.375H20.9V26H20.275V27.875H20.9V28.5ZM23.4 27.25H25.9V26.625V26H23.4V27.25ZM32.6 31H31.975V29.125H32.6V28.5H35.725V29.125H36.35V31H35.725V31.625H32.6V31ZM33.225 31H35.1V30.375V29.75V29.125H33.225V29.75V31ZM28.85 27.25V27.875H28.225V27.25H28.85ZM28.85 27.25V26.625H29.475V26H30.1V25.375H30.725V23.5H31.35V24.125H31.975V25.375H31.35V26H31.975V26.625H32.6V27.875H31.975V27.25H31.35V26.625H30.1V27.25H28.85ZM35.725 27.25V27.875H35.1V26H32.6V25.375H35.1V23.5H34.475V22.875H35.725V23.5H36.35V27.25H35.725ZM46.175 27.875H38.675V28.5H38.05V27.875H37.425V27.25H41.175V26H40.55V25.375H39.925V24.125H39.3V23.5H44.3V24.125H41.175V25.375H44.3V26H42.425V27.25H44.925V26.625H45.55V27.25H46.175V27.875ZM43.675 31V31.625H43.05V29.125H40.55V29.75H39.925V29.125H39.3V28.5H44.3V31H43.675ZM54.125 31V31.625H53.5V27.25H51V27.875H51.625V29.125H50.375V27.875H49.125V28.5H48.5V29.125H47.25V29.75H46.625V29.125H47.25V28.5H47.875V27.875H48.5V26.625H49.125V24.125H49.75V24.75H50.375V27.25H51V26.625H53.5V23.5H52.875V22.875H54.125V23.5H54.75V31H54.125ZM64.575 30.375H57.075V31H56.45V30.375H55.825V29.75H59.575V27.25H58.325V27.875H57.7V24.75H57.075V24.125H62.7V25.375H62.075V26H61.45V26.625H62.075V27.25H60.2V27.875H60.825V29.75H62.7V29.125H63.95V29.75H64.575V30.375ZM58.95 26.625H60.825V26V25.375V24.75H58.95V25.375V26.625ZM73.15 31.625H68.775V29.125H68.15V28.5H73.15V30.375H72.525V31H73.15V31.625ZM70.025 31H71.9V30.375V29.75V29.125H70.025V29.75V31ZM72.525 27.25V27.875H71.9V23.5H71.275V22.875H72.525V23.5H73.15V27.25H72.525ZM66.275 26.625H65.65V24.75H66.275V24.125H68.775V24.75H69.4V26.625H68.775V27.25H66.275V26.625ZM66.9 26.625H68.15V26V25.375V24.75H66.9V25.375V26.625ZM87.175 30.375H79.675V31H79.05V30.375H78.425V29.75H82.175V27.25H80.3V26.625H79.675V24.75H79.05V24.125H84.05V23.5H84.675V24.125H85.3V24.75H80.925V26.625H84.05V26H84.675V26.625H85.3V27.25H82.8V27.875H83.425V29.75H85.3V29.125H86.55V29.75H87.175V30.375ZM96.375 30.375H88.875V31H88.25V30.375H87.625V29.75H94.5V29.125H95.75V29.75H96.375V30.375ZM93.25 27.875V28.5H92.625V27.875H93.25ZM93.25 27.875V24.75H90.75V25.375H89.5V24.75H88.875V24.125H94.5V27.25H93.875V27.875H93.25ZM104.325 31V31.625H103.7V23.5H103.075V22.875H104.325V23.5H104.95V31H104.325ZM98.075 28.5H97.45V27.875H96.825V26H97.45V25.375H98.075V24.75H99.95V25.375H100.575V26H101.2V27.875H100.575V28.5H99.95V29.125H98.075V28.5ZM98.7 28.5H99.325V27.875H99.95V26H99.325V25.375H98.7V26H98.075V27.875H98.7V28.5ZM113.525 31V31.625H112.9V27.25H110.4V27.875H109.775V28.5H109.15V29.125H107.275V28.5H106.65V27.875H106.025V26H106.65V25.375H107.275V24.75H109.15V25.375H109.775V26H110.4V26.625H112.9V23.5H112.275V22.875H113.525V23.5H114.15V31H113.525ZM107.9 28.5H108.525V27.875H109.15V26H108.525V25.375H107.9V26H107.275V27.875H107.9V28.5Z" fill="white"/>
<path d="M14.8004 12.5824C15.5979 13.0123 16.6016 13.2273 17.8116 13.2273C19.0078 13.2273 20.0024 12.9772 20.8045 12.4815C21.6066 11.9857 22.2162 11.2837 22.6378 10.3886C23.0595 9.4936 23.2749 8.34409 23.2749 6.94449C23.2749 5.01402 22.7891 3.5179 21.822 2.44736C20.8549 1.37682 19.4753 0.841553 17.6833 0.841553C15.937 0.841553 14.5758 1.3856 13.595 2.47368C12.6187 3.56177 12.1283 5.08421 12.1283 7.04102C12.1283 8.44061 12.3758 9.60767 12.8708 10.5378C13.3612 11.4723 14.0075 12.1524 14.8004 12.5824ZM16.0608 4.43926C16.4687 3.91277 17.0049 3.64513 17.6741 3.64513C18.3753 3.64513 18.9253 3.90399 19.3378 4.4261C19.7458 4.9482 19.952 5.76866 19.952 6.89623C19.952 8.2344 19.7549 9.16454 19.3653 9.68226C18.9758 10.2 18.4212 10.4588 17.7062 10.4588C17.0095 10.4588 16.4641 10.1956 16.0562 9.66471C15.6529 9.13822 15.4512 8.2695 15.4512 7.05857C15.4512 5.83886 15.6529 4.96575 16.0608 4.43926Z" fill="white"/>
<path d="M27.0698 12.5034C27.8765 12.9904 28.9169 13.2317 30.1911 13.2317C31.2269 13.2317 32.1252 13.0957 32.8815 12.8281C33.6377 12.5604 34.5086 12.0515 35.4894 11.3056V6.19424H30.3561V8.68631H32.579V9.81388C32.1436 10.1035 31.7586 10.3097 31.4194 10.4281C31.0802 10.5466 30.7273 10.608 30.3561 10.608C29.5723 10.608 28.9628 10.3316 28.5228 9.77439C28.0828 9.21719 27.8673 8.29144 27.8673 6.99714C27.8673 5.77743 28.0828 4.88678 28.5182 4.3208C28.9536 3.75921 29.5311 3.47402 30.2598 3.47402C30.7502 3.47402 31.1536 3.59248 31.4652 3.83379C31.7815 4.0751 32.0061 4.41732 32.139 4.87362L35.3473 4.23744C35.1502 3.46525 34.8615 2.82468 34.4719 2.32012C34.0823 1.81557 33.5919 1.44263 33.0052 1.20571C32.4094 0.960014 31.5202 0.841553 30.3332 0.841553C29.1003 0.841553 28.1194 1.0346 27.3907 1.4207C26.4557 1.92086 25.7453 2.65357 25.264 3.62319C24.7782 4.58843 24.5353 5.72478 24.5353 7.03663C24.5353 8.27828 24.7553 9.37952 25.1999 10.336C25.6399 11.2968 26.2632 12.0164 27.0698 12.5034Z" fill="white"/>
<path d="M7.92079 12.6963C8.45246 12.5383 8.95204 12.2224 9.41953 11.7442C9.88245 11.266 10.2491 10.678 10.5104 9.97167C10.7716 9.26529 10.9045 8.27373 10.9045 6.99259C10.9045 6.17653 10.8174 5.40434 10.6387 4.67163C10.4599 3.94332 10.1804 3.29836 9.7862 2.74993C9.39662 2.2015 8.89704 1.77592 8.30121 1.48196C7.71913 1.19677 6.96288 1.05199 6.02789 1.04321L1.00458 6.96627L1 6.97066V13.0253H5.9408C6.53205 13.0253 7.19205 12.9156 7.92079 12.6963ZM3.81873 6.65476C3.83248 6.65476 3.84623 6.65476 3.8554 6.65476C3.9104 6.65476 3.9654 6.65476 4.0204 6.65476C3.95623 6.65476 3.88748 6.65476 3.81873 6.65476ZM3.85998 6.15898C3.31915 6.15898 2.74166 6.21601 2.24666 6.27744L4.32748 3.82924L4.38706 3.75904L5.51456 2.42965V3.77221V6.32131C5.20748 6.25989 4.80414 6.20285 4.3229 6.17653C4.23123 6.17214 4.13498 6.16336 4.03415 6.16336C3.97915 6.16336 3.91957 6.15898 3.85998 6.15898ZM4.32748 10.3051V6.66792C5.41831 6.73373 6.03247 6.97066 6.03247 6.97066V3.85995C6.44955 3.96964 6.77497 4.17146 7.00871 4.46103C7.37996 4.93049 7.56788 5.79921 7.56788 7.06718C7.56788 8.02803 7.48538 8.72125 7.32038 9.14683C7.15538 9.5768 6.92163 9.87515 6.6283 10.0463C6.33497 10.2174 5.83997 10.3051 5.14331 10.3051H4.32748Z" fill="white"/>
<path d="M52.5851 0.644043L48.5427 12.6218H51.9389L52.466 10.643H56.2426L56.7834 12.6218H60.2668L56.2105 0.644043H52.5851ZM53.181 8.05444L54.3543 3.75036L55.5414 8.05444H53.181Z" fill="white"/>
<path d="M70.3912 9.15154C70.3133 8.97604 70.1575 8.73035 69.9237 8.40567C69.69 8.081 69.5158 7.87479 69.3921 7.77388C69.2087 7.62471 68.9246 7.47992 68.5258 7.33075C69.0208 7.20351 69.4104 7.04557 69.6946 6.85691C70.1392 6.55856 70.4921 6.16808 70.7441 5.68546C71.0008 5.20284 71.1246 4.62808 71.1246 3.96558C71.1246 3.20216 70.955 2.55721 70.625 2.02633C70.2904 1.49544 69.855 1.13129 69.3096 0.933852C68.7642 0.736416 67.9804 0.639893 66.9538 0.639893H61.4125V12.6176H64.7538V7.76072H65.0471C65.3496 7.76072 65.6246 7.85286 65.8629 8.03713C66.0371 8.17753 66.2388 8.48465 66.4633 8.95849L68.2417 12.6176H72L70.3912 9.15154ZM67.5771 4.95714C67.4396 5.15896 67.2563 5.28181 67.0363 5.33446C66.6008 5.44415 66.3075 5.4968 66.1563 5.4968H64.7538V3.06176H66.2158C66.8208 3.06176 67.2379 3.16706 67.4579 3.37327C67.6779 3.57948 67.7879 3.87783 67.7879 4.26392C67.7879 4.52717 67.7192 4.75532 67.5771 4.95714Z" fill="white"/>
<path d="M36.9652 10.3141C36.9148 10.7178 36.9835 11.1214 37.1623 11.4548C37.231 11.5777 37.3089 11.6874 37.4006 11.7795C37.4006 11.7795 37.6618 12.0033 37.9598 12.0866L38.8352 12.2841L40.3568 12.6263L43.7989 13.3985L43.8126 13.4248L47.4564 10.5335V9.77445L43.7393 12.7228L40.3568 11.9638L38.001 11.4329C37.8268 11.3934 37.671 11.2662 37.5702 11.0731C37.4693 10.8801 37.4281 10.6476 37.4556 10.415L37.5198 9.92363C37.561 9.60773 37.7214 9.35326 37.9368 9.24796L37.9139 9.24357L43.7989 10.5642L43.8126 10.5905L47.4564 7.69919V6.94016L43.7393 9.88853L38.001 8.59862C37.8268 8.55913 37.671 8.43189 37.5702 8.23885C37.4693 8.0458 37.4281 7.81326 37.4556 7.58073L37.5198 7.08934C37.561 6.76028 37.7352 6.50142 37.9643 6.40489L38.8398 6.60233L40.3614 6.94455L43.8035 7.71674L43.8172 7.74307L47.461 4.85174V4.0971L43.7439 7.04546L40.3614 6.28643L38.8398 5.94421L38.0056 5.75555C37.8314 5.71606 37.6756 5.58883 37.5748 5.39578C37.4739 5.20273 37.4327 4.9702 37.4602 4.73766L37.5243 4.24627C37.5793 3.82069 37.8543 3.51357 38.1798 3.51357C38.2164 3.51357 38.2531 3.51795 38.2943 3.52673L43.8447 4.77276L47.4655 1.94286L41.6081 0.876709L37.7673 2.96075C37.7581 2.96513 37.7489 2.97391 37.7352 2.9783L37.6893 3.00462C37.3456 3.21083 37.0889 3.62764 37.0248 4.14536L36.9652 4.63675C36.9148 5.0404 36.9835 5.44843 37.1623 5.78188C37.231 5.90911 37.3089 6.01441 37.4006 6.10655C37.2081 6.33031 37.0752 6.63743 37.0293 6.98842L36.9652 7.47982C36.9148 7.88346 36.9835 8.28711 37.1623 8.62055C37.2264 8.7434 37.3043 8.8487 37.3914 8.94084C37.2035 9.1646 37.0752 9.46733 37.0293 9.81833L36.9652 10.3141Z" fill="white"/>
</svg>
