<svg width="117" height="117" viewBox="0 0 117 117" fill="none" xmlns="http://www.w3.org/2000/svg">
<g clip-path="url(#clip0_29_2541)">
<path d="M58.25 0C63.62 0 68.79 0.69 73.75 2.08C78.71 3.47 83.35 5.42 87.65 7.96C91.96 10.49 95.88 13.53 99.43 17.08C102.98 20.63 106.02 24.55 108.55 28.86C111.08 33.17 113.04 37.8 114.43 42.76C115.81 47.72 116.51 52.89 116.51 58.26C116.51 63.63 115.82 68.8 114.43 73.76C113.05 78.72 111.09 83.37 108.55 87.69C106.02 92.01 102.99 95.94 99.46 99.47C95.93 103 92 106.03 87.68 108.56C83.36 111.09 78.72 113.05 73.75 114.44C68.79 115.82 63.62 116.52 58.25 116.52C54.77 116.52 51.35 116.21 47.99 115.58C44.63 114.95 41.31 114.05 38.04 112.87H23.66C22.24 112.87 20.86 112.63 19.51 112.16C18.16 111.69 16.93 111.02 15.81 110.16C14.7 109.3 13.73 108.27 12.92 107.07C12.11 105.87 11.54 104.56 11.2 103.14C11.03 102.53 10.93 101.81 10.9 100.96C10.87 100.12 10.85 99.22 10.85 98.28C10.85 97.2 10.87 96.12 10.9 95.04C10.93 93.96 10.95 93 10.95 92.15C7.37 87.22 4.65 81.87 2.79 76.09C0.93 70.31 0 64.37 0 58.25C0 52.91 0.69 47.76 2.08 42.8C3.46 37.84 5.42 33.19 7.96 28.87C10.49 24.55 13.53 20.61 17.08 17.07C20.63 13.53 24.56 10.49 28.88 7.95C33.2 5.42 37.84 3.46 42.78 2.07C47.72 0.69 52.88 0 58.25 0ZM58.25 109.21C62.94 109.21 67.46 108.6 71.8 107.39C76.14 106.18 80.2 104.46 83.98 102.25C87.76 100.04 91.2 97.39 94.29 94.3C97.38 91.21 100.03 87.77 102.24 83.99C104.45 80.21 106.17 76.15 107.38 71.81C108.6 67.47 109.2 62.95 109.2 58.26C109.2 53.57 108.59 49.05 107.38 44.71C106.17 40.37 104.45 36.31 102.24 32.53C100.03 28.75 97.38 25.31 94.29 22.22C91.2 19.13 87.76 16.48 83.98 14.27C80.2 12.06 76.14 10.34 71.8 9.13C67.46 7.92 62.94 7.31 58.25 7.31C53.56 7.31 49.04 7.9 44.7 9.12C40.36 10.34 36.3 12.05 32.52 14.26C28.74 16.47 25.3 19.12 22.21 22.21C19.12 25.3 16.47 28.74 14.26 32.52C12.05 36.3 10.33 40.36 9.12 44.7C7.9 49.04 7.3 53.56 7.3 58.25C7.3 61.53 7.6 64.74 8.21 67.9C8.82 71.06 9.73 74.14 10.95 77.14V75.16C10.95 73.34 11.26 71.62 11.89 70.02C12.51 68.42 13.39 67.01 14.52 65.79C15.65 64.57 16.99 63.62 18.55 62.93C20.1 62.24 21.81 61.89 23.67 61.89C24.89 61.89 26.08 62.06 27.24 62.4C28.4 62.74 29.49 63.23 30.48 63.87C31.47 64.51 32.38 65.28 33.19 66.17C34 67.07 34.66 68.07 35.17 69.18H48.59C51.56 66.82 54.79 65.01 58.29 63.76C61.79 62.51 65.42 61.89 69.21 61.89H80.1C81.11 61.89 81.98 62.24 82.68 62.95C83.38 63.66 83.74 64.52 83.74 65.53C83.74 66.51 83.38 67.36 82.65 68.09C81.92 68.82 81.07 69.18 80.09 69.18C78.97 69.18 77.75 69.16 76.42 69.13C75.09 69.1 73.73 69.08 72.34 69.08C70.79 69.08 69.28 69.12 67.81 69.21C66.34 69.29 65.02 69.47 63.83 69.74C65.18 70.08 66.4 70.64 67.5 71.44C68.6 72.23 69.54 73.18 70.31 74.28C71.09 75.38 71.69 76.58 72.13 77.9C72.57 79.22 72.79 80.55 72.79 81.9C72.79 83.66 72.46 85.31 71.8 86.86C71.14 88.41 70.24 89.76 69.09 90.91C67.94 92.06 66.59 92.97 65.04 93.65C63.49 94.33 61.83 94.66 60.08 94.66H54.61C54.61 95.33 54.62 96.02 54.64 96.71C54.66 97.4 54.67 98.09 54.67 98.76C54.67 99.77 54.63 100.72 54.54 101.6C54.45 102.48 54.29 103.31 54.03 104.11C53.78 104.9 53.43 105.68 52.99 106.44C52.55 107.2 51.98 107.97 51.27 108.74C53.59 109.06 55.92 109.21 58.25 109.21ZM18.18 100.14C18.18 100.92 18.32 101.63 18.61 102.29C18.9 102.95 19.29 103.51 19.8 103.99C20.31 104.46 20.89 104.84 21.55 105.13C22.21 105.42 22.91 105.56 23.65 105.56H41.89C42.63 105.56 43.33 105.42 43.99 105.13C44.65 104.84 45.23 104.45 45.74 103.96C46.25 103.47 46.64 102.9 46.93 102.24C47.22 101.58 47.36 100.88 47.36 100.14V87.38H60.07C60.81 87.38 61.52 87.24 62.2 86.95C62.88 86.66 63.46 86.27 63.95 85.78C64.44 85.29 64.83 84.72 65.11 84.06C65.39 83.4 65.54 82.68 65.54 81.91C65.54 81.17 65.4 80.47 65.11 79.81C64.82 79.15 64.43 78.57 63.92 78.06C63.41 77.55 62.83 77.16 62.17 76.87C61.51 76.58 60.81 76.44 60.07 76.44H29.13V74.67C29.13 73.93 28.99 73.22 28.7 72.54C28.41 71.86 28.02 71.28 27.53 70.79C27.04 70.3 26.46 69.91 25.78 69.62C25.1 69.33 24.4 69.19 23.65 69.19C22.91 69.19 22.21 69.33 21.55 69.62C20.89 69.91 20.31 70.3 19.8 70.81C19.29 71.32 18.9 71.9 18.61 72.56C18.32 73.22 18.18 73.92 18.18 74.66V100.14ZM47.31 18.18C48.29 18.18 49.14 18.54 49.87 19.27C50.6 20 50.96 20.85 50.96 21.83C50.96 22.84 50.61 23.7 49.9 24.41C49.19 25.12 48.33 25.47 47.32 25.47C45.23 25.47 43.33 25.67 41.62 26.05C39.91 26.44 38.32 27 36.83 27.72C35.34 28.45 33.9 29.35 32.5 30.43C31.1 31.51 29.67 32.74 28.22 34.13C27.81 34.5 27.4 34.8 26.98 35.02C26.56 35.24 26.06 35.35 25.49 35.35C24.48 35.35 23.62 35 22.91 34.29C22.2 33.58 21.85 32.72 21.85 31.71C21.85 30.87 22.15 30.06 22.76 29.28C24.11 27.56 25.75 26 27.67 24.62C29.59 23.24 31.65 22.07 33.85 21.12C36.04 20.17 38.3 19.45 40.61 18.94C42.91 18.44 45.15 18.18 47.31 18.18ZM38.24 36.42C38.98 36.42 39.68 36.56 40.34 36.85C41 37.14 41.58 37.53 42.09 38.04C42.6 38.55 42.99 39.13 43.28 39.79C43.57 40.45 43.71 41.15 43.71 41.89V49.13C43.71 49.87 43.57 50.57 43.28 51.23C42.99 51.89 42.6 52.47 42.09 52.98C41.58 53.49 41 53.88 40.34 54.17C39.68 54.46 38.98 54.6 38.24 54.6C37.46 54.6 36.75 54.46 36.09 54.17C35.43 53.88 34.86 53.5 34.37 53C33.88 52.51 33.49 51.94 33.2 51.28C32.91 50.62 32.77 49.9 32.77 49.13V41.89C32.77 41.15 32.91 40.44 33.2 39.76C33.49 39.09 33.88 38.5 34.37 38.01C34.86 37.52 35.43 37.13 36.09 36.84C36.75 36.56 37.47 36.42 38.24 36.42ZM69.19 18.18C71.35 18.18 73.59 18.43 75.9 18.94C78.21 19.45 80.47 20.17 82.66 21.12C84.85 22.07 86.91 23.23 88.84 24.62C90.76 26 92.4 27.56 93.75 29.28C94.36 30.06 94.66 30.87 94.66 31.71C94.66 32.69 94.3 33.54 93.57 34.27C92.84 35 91.99 35.36 91.01 35.36C90.4 35.36 89.9 35.25 89.52 35.03C89.13 34.81 88.72 34.52 88.28 34.14C86.83 32.79 85.4 31.57 84 30.49C82.6 29.41 81.15 28.5 79.64 27.75C78.14 27.01 76.53 26.44 74.83 26.05C73.12 25.66 71.24 25.47 69.18 25.47C68.17 25.47 67.3 25.12 66.6 24.41C65.9 23.7 65.54 22.84 65.54 21.83C65.54 20.85 65.9 20 66.63 19.27C67.36 18.55 68.21 18.18 69.19 18.18ZM78.26 40.07C79 40.07 79.71 40.21 80.36 40.5C81.02 40.79 81.6 41.17 82.11 41.64C82.62 42.11 83.01 42.69 83.3 43.36C83.59 44.03 83.73 44.74 83.73 45.49C83.73 46.27 83.59 46.98 83.3 47.64C83.01 48.3 82.62 48.87 82.13 49.36C81.64 49.85 81.06 50.24 80.38 50.53C79.7 50.82 79 50.96 78.25 50.96H71.01C70.23 50.96 69.52 50.82 68.86 50.53C68.2 50.24 67.63 49.86 67.14 49.36C66.65 48.87 66.26 48.3 65.97 47.64C65.68 46.98 65.54 46.26 65.54 45.49C65.54 44.75 65.68 44.04 65.97 43.36C66.26 42.68 66.65 42.11 67.16 41.64C67.67 41.17 68.25 40.79 68.91 40.5C69.57 40.21 70.27 40.07 71.01 40.07H78.26Z" fill="black"/>
</g>
<defs>
<clipPath id="clip0_29_2541">
<rect width="116.5" height="116.5" fill="white"/>
</clipPath>
</defs>
</svg>
