<svg width="29" height="29" viewBox="0 0 29 29" fill="none" xmlns="http://www.w3.org/2000/svg">
<path d="M20.0265 0H8.12567C3.64011 0 0 3.64011 0 8.12567V20.0265C0 24.512 3.64011 28.1521 8.12567 28.1521H20.0265C24.512 28.1521 28.1521 24.512 28.1521 20.0265V8.12567C28.1521 3.64011 24.512 0 20.0265 0ZM25.5571 20.2378C25.5571 23.2145 23.1441 25.6334 20.1615 25.6334H7.98476C5.00809 25.6334 2.58918 23.2204 2.58918 20.2378V8.05521C2.58918 5.07854 5.00222 2.65963 7.98476 2.65963H20.1615C23.1382 2.65963 25.5571 5.07267 25.5571 8.05521V20.2378Z" fill="white"/>
<path d="M14.0732 6.83984C10.0398 6.83984 6.76953 10.1101 6.76953 14.1435C6.76953 18.177 10.0398 21.4473 14.0732 21.4473C18.1067 21.4473 21.3769 18.177 21.3769 14.1435C21.3769 10.1101 18.1067 6.83984 14.0732 6.83984ZM14.0732 18.8816C11.4606 18.8816 9.34109 16.7621 9.34109 14.1435C9.34109 11.5309 11.4606 9.41141 14.0732 9.41141C16.6859 9.41141 18.8054 11.5309 18.8054 14.1435C18.8113 16.7621 16.6918 18.8816 14.0732 18.8816Z" fill="white"/>
<path d="M21.6234 4.86133C20.684 4.86133 19.9208 5.62458 19.9208 6.56396C19.9208 7.50334 20.684 8.26659 21.6234 8.26659C22.5628 8.26659 23.326 7.50334 23.326 6.56396C23.326 5.62458 22.5628 4.86133 21.6234 4.86133Z" fill="white"/>
</svg>
