<svg width="289" height="286" viewBox="0 0 289 286" fill="none" xmlns="http://www.w3.org/2000/svg">
<path d="M104.3 198.5H74.3V201H71.8V198.5H69.3V196H84.3V191H81.8V188.5H79.3V183.5H76.8V181H96.8V183.5H84.3V188.5H96.8V191H89.3V196H99.3V193.5H101.8V196H104.3V198.5ZM94.3 211V213.5H91.8V203.5H81.8V206H79.3V203.5H76.8V201H96.8V211H94.3ZM136.1 211V213.5H133.6V196H123.6V198.5H126.1V203.5H121.1V198.5H116.1V201H113.6V203.5H108.6V206H106.1V203.5H108.6V201H111.1V198.5H113.6V193.5H116.1V183.5H118.6V186H121.1V196H123.6V193.5H133.6V181H131.1V178.5H136.1V181H138.6V211H136.1ZM177.9 208.5H147.9V211H145.4V208.5H142.9V206H157.9V196H152.9V198.5H150.4V186H147.9V183.5H170.4V188.5H167.9V191H165.4V193.5H167.9V196H160.4V198.5H162.9V206H170.4V203.5H175.4V206H177.9V208.5ZM155.4 193.5H162.9V191V188.5V186H155.4V188.5V193.5ZM212.2 213.5H194.7V203.5H192.2V201H212.2V208.5H209.7V211H212.2V213.5ZM199.7 211H207.2V208.5V206V203.5H199.7V206V211ZM209.7 196V198.5H207.2V181H204.7V178.5H209.7V181H212.2V196H209.7ZM184.7 193.5H182.2V186H184.7V183.5H194.7V186H197.2V193.5H194.7V196H184.7V193.5ZM187.2 193.5H192.2V191V188.5V186H187.2V188.5V193.5ZM60 271H57.5V263.5H60V261H72.5V263.5H75V271H72.5V273.5H60V271ZM62.5 271H70V268.5V266V263.5H62.5V266V271ZM45 256V258.5H42.5V256H45ZM45 256V253.5H47.5V251H50V248.5H52.5V241H55V243.5H57.5V248.5H55V251H57.5V253.5H60V258.5H57.5V256H55V253.5H50V256H45ZM72.5 256V258.5H70V251H60V248.5H70V241H67.5V238.5H72.5V241H75V256H72.5ZM109.3 271V273.5H106.8V263.5H94.3V266H91.8V263.5H89.3V261H111.8V271H109.3ZM81.8 258.5V261H79.3V258.5H81.8ZM81.8 258.5V256H84.3V253.5H86.8V251H89.3V248.5H91.8V246H81.8V243.5H96.8V246H106.8V241H104.3V238.5H109.3V241H111.8V256H109.3V258.5H106.8V253.5H96.8V251H106.8V248.5H94.3V251H91.8V253.5H89.3V256H86.8V258.5H81.8ZM152.9 261H150.4V263.5H145.4V266H137.9V263.5H135.4V248.5H132.9V246H145.4V243.5H147.9V246H150.4V248.5H140.4V253.5H145.4V251H147.9V253.5H155.4V243.5H152.9V241H157.9V243.5H160.4V268.5H157.9V271H155.4V256H140.4V261H150.4V258.5H152.9V261ZM165.4 271V273.5H162.9V241H160.4V238.5H165.4V241H167.9V271H165.4ZM204.7 268.5H174.7V271H172.2V268.5H169.7V266H197.2V263.5H202.2V266H204.7V268.5ZM199.7 256H192.2V253.5H182.2V256H177.2V258.5H172.2V256H177.2V253.5H179.7V251H182.2V248.5H184.7V241H187.2V243.5H189.7V248.5H187.2V251H197.2V253.5H199.7V256ZM241.5 268.5H211.5V271H209V268.5H206.5V266H234V263.5H239V266H241.5V268.5ZM234 258.5H216.5V256H214V246H211.5V243.5H229V241H231.5V243.5H234V246H219V248.5H231.5V251H219V256H229V253.5H231.5V256H234V258.5Z" fill="black"/>
<path d="M33.45 105H32.2V106.25H29.7V107.5H25.95V106.25H24.7V98.75H23.45V97.5H25.95V98.75H27.2V105H32.2V103.75H33.45V105ZM39.7 110V111.25H38.45V102.5H37.2V108.75H35.95V110H34.7V96.25H33.45V95H35.95V96.25H37.2V101.25H38.45V95H37.2V93.75H39.7V95H40.95V110H39.7ZM60.6 102.5H56.85V110H55.6V111.25H54.35V95H53.1V93.75H55.6V95H56.85V101.25H58.1V100H59.35V101.25H60.6V102.5ZM43.1 106.25V107.5H41.85V106.25H43.1ZM43.1 106.25V105H44.35V103.75H45.6V102.5H46.85V101.25H48.1V100H49.35V98.75H45.6V100H44.35V98.75H43.1V97.5H51.85V100H50.6V101.25H49.35V102.5H48.1V103.75H46.85V105H45.6V106.25H43.1ZM86.15 103.75H71.15V105H69.9V103.75H68.65V102.5H76.15V100H74.9V98.75H73.65V96.25H72.4V95H82.4V96.25H76.15V98.75H82.4V100H78.65V102.5H83.65V101.25H84.9V102.5H86.15V103.75ZM81.15 110V111.25H79.9V106.25H74.9V107.5H73.65V106.25H72.4V105H82.4V110H81.15ZM102.05 110V111.25H100.8V102.5H95.8V103.75H97.05V106.25H94.55V103.75H92.05V105H90.8V106.25H88.3V107.5H87.05V106.25H88.3V105H89.55V103.75H90.8V101.25H92.05V96.25H93.3V97.5H94.55V102.5H95.8V101.25H100.8V95H99.55V93.75H102.05V95H103.3V110H102.05ZM122.95 108.75H107.95V110H106.7V108.75H105.45V107.5H112.95V102.5H110.45V103.75H109.2V97.5H107.95V96.25H119.2V98.75H117.95V100H116.7V101.25H117.95V102.5H114.2V103.75H115.45V107.5H119.2V106.25H121.7V107.5H122.95V108.75ZM111.7 101.25H115.45V100V98.75V97.5H111.7V98.75V101.25ZM140.1 111.25H131.35V106.25H130.1V105H140.1V108.75H138.85V110H140.1V111.25ZM133.85 110H137.6V108.75V107.5V106.25H133.85V107.5V110ZM138.85 102.5V103.75H137.6V95H136.35V93.75H138.85V95H140.1V102.5H138.85ZM126.35 101.25H125.1V97.5H126.35V96.25H131.35V97.5H132.6V101.25H131.35V102.5H126.35V101.25ZM127.6 101.25H130.1V100V98.75V97.5H127.6V98.75V101.25ZM158.5 110V111.25H157.25V95H156V93.75H158.5V95H159.75V110H158.5ZM154.75 108.75V110H153.5V102.5H151V103.75H149.75V105H148.5V106.25H144.75V105H143.5V103.75H142.25V100H143.5V98.75H144.75V97.5H148.5V98.75H149.75V100H151V101.25H153.5V96.25H152.25V95H154.75V96.25H156V108.75H154.75ZM146 105H147.25V103.75H148.5V100H147.25V98.75H146V100H144.75V103.75H146V105ZM187.8 102.5H184.05V110H182.8V111.25H181.55V95H180.3V93.75H182.8V95H184.05V101.25H185.3V100H186.55V101.25H187.8V102.5ZM170.3 106.25V107.5H169.05V106.25H170.3ZM170.3 106.25V105H171.55V103.75H172.8V102.5H174.05V101.25H175.3V100H176.55V98.75H172.8V100H171.55V98.75H170.3V97.5H179.05V100H177.8V101.25H176.55V102.5H175.3V103.75H174.05V105H172.8V106.25H170.3ZM194.95 106.25H193.7V105H196.2V106.25H197.45V107.5H201.2V95H199.95V93.75H202.45V95H203.7V102.5H202.45V103.75H203.7V111.25H194.95V106.25ZM197.45 110H201.2V108.75H197.45V110ZM189.95 101.25H188.7V97.5H189.95V96.25H194.95V97.5H196.2V101.25H194.95V102.5H189.95V101.25ZM191.2 101.25H193.7V100V98.75V97.5H191.2V98.75V101.25ZM222.1 111.25H213.35V110H212.1V106.25H210.85V105H213.35V106.25H214.6V110H219.6V108.75H220.85V110H222.1V111.25ZM224.6 100H220.85V102.5H219.6V103.75H218.35V95H217.1V93.75H219.6V95H220.85V98.75H224.6V100ZM214.6 98.75H212.1V100H213.35V102.5H212.1V103.75H208.35V102.5H207.1V100H208.35V98.75H205.85V97.5H209.6V96.25H208.35V95H210.85V96.25H212.1V97.5H214.6V98.75ZM209.6 102.5H210.85V101.25V100H209.6V102.5ZM234.25 105H233V106.25H230.5V107.5H226.75V106.25H225.5V98.75H224.25V97.5H230.5V96.25H231.75V97.5H233V98.75H228V105H233V103.75H234.25V105ZM243 102.5H239.25V110H238V111.25H236.75V95H235.5V93.75H238V95H239.25V101.25H240.5V100H241.75V101.25H243V102.5ZM260.15 111.25H251.4V110H250.15V106.25H248.9V105H251.4V106.25H252.65V110H257.65V108.75H258.9V110H260.15V111.25ZM245.15 102.5V103.75H243.9V97.5H242.65V96.25H251.4V97.5H256.4V95H255.15V93.75H257.65V95H258.9V102.5H257.65V103.75H256.4V101.25H251.4V100H250.15V101.25H251.4V102.5H245.15ZM246.4 101.25H248.9V100V98.75V97.5H246.4V98.75V101.25ZM251.4 100H256.4V98.75H251.4V100ZM263.55 105H266.05V107.5H263.55V105ZM263.55 101.25H264.8V100H266.05V97.5H262.3V100H259.8V97.5H261.05V96.25H267.3V97.5H268.55V100H267.3V101.25H266.05V103.75H263.55V101.25Z" fill="black"/>
<g clip-path="url(#clip0_29_2540)">
<path d="M110.735 23.8314C111.536 23.2958 112.382 22.8894 113.27 22.6137C114.158 22.3381 115.055 22.1794 115.967 22.1369C116.877 22.0961 117.784 22.1762 118.686 22.3787C119.589 22.5813 120.455 22.891 121.284 23.3054C122.114 23.7222 122.889 24.2484 123.615 24.8872C124.34 25.5259 124.981 26.2612 125.539 27.0953C126.058 27.872 126.461 28.6466 126.752 29.4242C127.043 30.2018 127.239 30.9885 127.343 31.7826C127.449 32.5792 127.47 33.3891 127.403 34.2139C127.339 35.0372 127.209 35.8798 127.013 36.7443C126.917 37.1622 126.844 37.5723 126.798 37.9754C126.752 38.3786 126.746 38.7799 126.781 39.1755C126.818 39.5735 126.899 39.964 127.023 40.3512C127.146 40.7384 127.336 41.121 127.59 41.5006L129.713 44.6773C130.045 44.8567 130.351 45.0817 130.635 45.3442C130.915 45.6082 131.164 45.8972 131.379 46.2194C131.757 46.7838 132.007 47.3822 132.132 48.0146C132.256 48.6469 132.262 49.2682 132.154 49.8751C132.046 50.482 131.826 51.0557 131.497 51.5863C131.166 52.1186 130.729 52.5659 130.187 52.9283C129.645 53.2906 129.062 53.5248 128.441 53.6291C127.82 53.7334 127.208 53.7201 126.602 53.5869C125.995 53.4537 125.426 53.2093 124.891 52.8552C124.354 52.4986 123.897 52.0381 123.52 51.4737C123.306 51.154 123.134 50.8137 123.005 50.4552C122.877 50.0968 122.786 49.7274 122.731 49.3488L120.605 46.1697C119.642 44.7287 118.969 43.1768 118.585 41.5181C118.202 39.8594 118.118 38.1812 118.334 36.4861C118.394 36.0816 118.464 35.6838 118.55 35.2978C118.638 34.9102 118.722 34.5176 118.808 34.1168C118.894 33.7053 118.938 33.3038 118.935 32.9154C118.932 32.527 118.806 32.1414 118.553 31.7618C118.384 31.5096 118.18 31.3028 117.944 31.1424C117.709 30.9819 117.458 30.8714 117.191 30.8149C116.922 30.7559 116.651 30.7495 116.377 30.7916C116.101 30.8353 115.844 30.9386 115.599 31.1021C115.355 31.2657 115.161 31.4638 115.015 31.7023C114.869 31.9408 114.771 32.1941 114.725 32.4632C114.677 32.7338 114.681 33.0095 114.733 33.2893C114.786 33.5716 114.897 33.8368 115.068 34.0916L116.285 35.9121L109.296 40.5844L108.079 38.7638C107.521 37.9297 107.087 37.0525 106.781 36.1372C106.473 35.2194 106.283 34.3021 106.21 33.3786C106.139 32.4575 106.184 31.5385 106.347 30.6241C106.51 29.7096 106.782 28.8407 107.163 28.0189C107.544 27.1971 108.036 26.4274 108.634 25.709C109.233 24.9947 109.934 24.3669 110.735 23.8314ZM125.841 42.6695C125.486 42.1375 125.214 41.6071 125.026 41.0715C124.84 40.5384 124.718 39.9982 124.667 39.4543C124.613 38.912 124.619 38.3593 124.678 37.7992C124.739 37.2417 124.832 36.6699 124.955 36.0855C125.109 35.3864 125.214 34.7021 125.271 34.035C125.328 33.368 125.316 32.7113 125.237 32.0632C125.155 31.4168 125.001 30.7757 124.771 30.1415C124.541 29.5073 124.218 28.878 123.8 28.2536C123.136 27.2597 122.322 26.4416 121.362 25.8004C120.4 25.1607 119.385 24.7225 118.313 24.489C117.243 24.2539 116.153 24.2274 115.045 24.412C113.936 24.5966 112.907 25.0097 111.95 25.6495C110.986 26.294 110.211 27.0908 109.619 28.0389C109.03 28.9895 108.638 30.0028 108.448 31.0838C108.257 32.1623 108.271 33.2691 108.495 34.4026C108.718 35.536 109.163 36.5969 109.83 37.5934L113.317 35.262C112.978 34.7551 112.752 34.2196 112.639 33.6557C112.525 33.0919 112.516 32.538 112.612 31.9967C112.709 31.4554 112.904 30.9488 113.202 30.4752C113.5 30.0016 113.892 29.602 114.379 29.2765C114.856 28.9575 115.372 28.7534 115.922 28.6676C116.474 28.5802 117.015 28.5946 117.552 28.7126C118.089 28.8306 118.595 29.0485 119.078 29.3655C119.561 29.6824 119.967 30.0935 120.299 30.5905C120.75 31.2648 120.995 31.9429 121.035 32.6247C121.074 33.3066 121.015 34.0181 120.854 34.7582C120.653 35.6876 120.515 36.5819 120.441 37.4519C120.365 38.3193 120.378 39.1743 120.477 40.0185C120.577 40.8627 120.778 41.693 121.077 42.5193C121.376 43.3457 121.802 44.1701 122.355 44.9967L125.839 42.667L125.841 42.6695ZM128.968 51.1052C129.268 50.9047 129.508 50.6572 129.694 50.3635C129.879 50.0697 130.001 49.7535 130.061 49.4131C130.122 49.0727 130.117 48.7288 130.047 48.3787C129.976 48.0286 129.838 47.698 129.629 47.3858C129.42 47.0736 129.166 46.8174 128.866 46.6131C128.566 46.4087 128.25 46.2732 127.913 46.199C127.575 46.1248 127.236 46.1164 126.894 46.1754C126.552 46.2344 126.231 46.362 125.931 46.5624C125.624 46.7677 125.379 47.0184 125.193 47.3122C125.008 47.6059 124.886 47.9222 124.826 48.2625C124.765 48.6029 124.771 48.9494 124.844 49.3019C124.917 49.6545 125.058 49.9902 125.266 50.3023C125.475 50.6145 125.728 50.8682 126.024 51.0676C126.321 51.2669 126.637 51.4025 126.975 51.4767C127.312 51.5509 127.653 51.5577 127.998 51.4971C128.345 51.4349 128.668 51.3056 128.968 51.1052Z" fill="black"/>
</g>
<g clip-path="url(#clip1_29_2540)">
<path d="M171.777 29.0355C172.358 29.4055 172.868 29.842 173.304 30.3438C173.74 30.8456 174.101 31.3867 174.392 31.9714C174.68 32.5549 174.889 33.1716 175.016 33.8204C175.143 34.4692 175.19 35.1252 175.157 35.7868C175.123 36.4502 175.002 37.1088 174.793 37.7674C174.584 38.426 174.287 39.0568 173.902 39.6618C173.543 40.2251 173.152 40.7119 172.727 41.126C172.302 41.5401 171.843 41.8949 171.354 42.1915C170.863 42.4899 170.339 42.7366 169.78 42.9306C169.223 43.1257 168.634 43.2826 168.012 43.4032C167.711 43.4611 167.422 43.5314 167.145 43.6171C166.867 43.7028 166.603 43.8145 166.354 43.9515C166.105 44.0903 165.872 44.2554 165.654 44.4477C165.437 44.6399 165.241 44.8742 165.066 45.1495L163.598 47.4534C163.576 47.722 163.517 47.9874 163.427 48.2482C163.335 48.5078 163.217 48.7538 163.068 48.9874C162.808 49.3967 162.488 49.7331 162.11 49.9964C161.732 50.2597 161.327 50.4423 160.899 50.5464C160.471 50.6504 160.032 50.6714 159.59 50.6088C159.146 50.5452 158.728 50.3882 158.335 50.1378C157.942 49.8874 157.621 49.5735 157.374 49.1972C157.127 48.8209 156.959 48.4162 156.872 47.9813C156.785 47.5463 156.781 47.1033 156.859 46.6512C156.938 46.1973 157.107 45.7657 157.368 45.3564C157.516 45.1245 157.689 44.9141 157.887 44.7267C158.084 44.5394 158.3 44.3737 158.532 44.2286L160 41.9229C160.666 40.8779 161.488 39.9908 162.463 39.2625C163.438 38.5341 164.512 37.996 165.683 37.65C165.965 37.5724 166.246 37.5042 166.523 37.449C166.802 37.395 167.083 37.3374 167.37 37.2783C167.664 37.2161 167.94 37.1293 168.193 37.0156C168.446 36.902 168.662 36.7087 168.838 36.4334C168.954 36.2504 169.031 36.0573 169.068 35.8569C169.105 35.6566 169.105 35.4606 169.065 35.2697C169.027 35.0771 168.953 34.8976 168.846 34.7305C168.738 34.5624 168.597 34.4238 168.419 34.3108C168.242 34.1978 168.056 34.128 167.858 34.1012C167.66 34.0743 167.466 34.0832 167.277 34.1307C167.086 34.1771 166.907 34.2589 166.739 34.3733C166.569 34.4895 166.428 34.6387 166.31 34.8234L165.469 36.1438L160.4 32.915L161.241 31.5946C161.627 30.9896 162.076 30.4534 162.587 29.9894C163.099 29.5236 163.644 29.1354 164.228 28.8221C164.81 28.5107 165.424 28.2757 166.07 28.1189C166.715 27.962 167.362 27.8905 168.009 27.9031C168.656 27.9157 169.302 28.016 169.944 28.2013C170.584 28.3872 171.196 28.6654 171.777 29.0355ZM163.797 44.3418C164.043 43.956 164.312 43.6258 164.609 43.3486C164.904 43.0733 165.222 42.8382 165.563 42.6481C165.903 42.457 166.266 42.3013 166.65 42.179C167.032 42.0585 167.433 41.9549 167.851 41.8672C168.353 41.7667 168.831 41.6383 169.283 41.4838C169.736 41.3293 170.163 41.1323 170.564 40.894C170.963 40.6545 171.339 40.3689 171.687 40.0361C172.036 39.7033 172.355 39.3105 172.644 38.8577C173.103 38.1369 173.404 37.3687 173.547 36.5562C173.689 35.7426 173.684 34.9525 173.528 34.1836C173.374 33.4159 173.077 32.6949 172.638 32.0227C172.198 31.3504 171.631 30.7961 170.937 30.354C170.238 29.9086 169.494 29.6303 168.703 29.5163C167.911 29.4041 167.136 29.4395 166.373 29.6263C165.613 29.8112 164.893 30.1393 164.215 30.6116C163.538 31.084 162.972 31.6808 162.511 32.4035L165.04 34.0145C165.275 33.6469 165.56 33.3448 165.896 33.1085C166.233 32.8721 166.592 32.7066 166.974 32.6138C167.356 32.521 167.744 32.5032 168.14 32.5617C168.535 32.6202 168.91 32.7619 169.263 32.9868C169.609 33.2073 169.891 33.4862 170.105 33.8214C170.321 34.1577 170.468 34.5156 170.545 34.9009C170.622 35.2863 170.625 35.6804 170.557 36.0875C170.488 36.4945 170.336 36.8789 170.107 37.2393C169.795 37.7283 169.422 38.0839 168.987 38.3059C168.552 38.5279 168.07 38.6942 167.539 38.8017C166.873 38.9376 166.248 39.1048 165.658 39.3065C165.068 39.5064 164.512 39.7609 163.989 40.0688C163.465 40.3768 162.979 40.7474 162.525 41.1808C162.07 41.6143 161.653 42.1305 161.271 42.73L163.799 44.34L163.797 44.3418ZM159.177 48.8156C159.395 48.9541 159.626 49.0403 159.871 49.077C160.117 49.1138 160.359 49.1024 160.599 49.0441C160.839 48.9857 161.063 48.8839 161.272 48.7367C161.48 48.5895 161.657 48.4042 161.801 48.1778C161.946 47.9514 162.04 47.7111 162.087 47.4562C162.135 47.2012 162.133 46.9554 162.084 46.7131C162.035 46.4708 161.943 46.2467 161.806 46.0396C161.669 45.8326 161.493 45.6595 161.276 45.521C161.053 45.3792 160.819 45.2908 160.573 45.2541C160.327 45.2173 160.085 45.2287 159.845 45.287C159.605 45.3454 159.38 45.449 159.17 45.598C158.961 45.747 158.782 45.9359 158.637 46.1623C158.493 46.3887 158.4 46.6272 158.355 46.8785C158.31 47.1298 158.312 47.3757 158.36 47.618C158.409 47.8603 158.503 48.0855 158.642 48.2937C158.782 48.5029 158.96 48.6771 159.177 48.8156Z" fill="black"/>
</g>
<g clip-path="url(#clip2_29_2540)">
<path d="M142.486 0.544057C143.723 0.494094 144.922 0.61558 146.08 0.908666C147.238 1.20175 148.327 1.62893 149.355 2.19375C150.38 2.75872 151.32 3.45452 152.173 4.2813C153.026 5.10808 153.768 6.02818 154.399 7.03775C155.03 8.05117 155.526 9.14724 155.893 10.3335C156.26 11.5198 156.47 12.7549 156.522 14.0428C156.57 15.2419 156.493 16.3612 156.29 17.4083C156.088 18.4553 155.776 19.4489 155.357 20.3889C154.939 21.3327 154.419 22.2342 153.794 23.0937C153.172 23.953 152.464 24.7888 151.67 25.6049C151.285 25.9989 150.93 26.3994 150.61 26.8102C150.289 27.221 150.013 27.6569 149.787 28.1141C149.561 28.5751 149.387 29.0571 149.263 29.5642C149.139 30.0713 149.091 30.6178 149.114 31.2039L149.312 36.1084C149.556 36.5273 149.741 36.9794 149.875 37.4567C150.006 37.9342 150.084 38.4177 150.104 38.9151C150.14 39.7865 150.013 40.6103 149.726 41.3866C149.438 42.1629 149.028 42.8476 148.503 43.4404C147.978 44.0332 147.352 44.5143 146.636 44.8753C145.916 45.2365 145.138 45.434 144.301 45.4679C143.464 45.5017 142.669 45.3677 141.919 45.0659C141.168 44.7641 140.506 44.339 139.931 43.7867C139.356 43.2345 138.896 42.585 138.546 41.8382C138.197 41.0877 138.005 40.2767 137.97 39.4053C137.95 38.9117 137.989 38.4235 138.089 37.9444C138.188 37.4654 138.336 36.9998 138.529 36.5479L138.331 31.6395C138.241 29.4147 138.544 27.2629 139.235 25.188C139.926 23.1132 140.959 21.2177 142.333 19.5054C142.669 19.1017 143.013 18.7132 143.365 18.3475C143.721 17.9817 144.077 17.6081 144.44 17.2266C144.81 16.8331 145.127 16.4225 145.384 15.995C145.641 15.5675 145.762 15.0606 145.738 14.4745C145.722 14.0851 145.637 13.7216 145.487 13.3879C145.336 13.0541 145.135 12.7648 144.881 12.5241C144.626 12.2795 144.333 12.0905 144.004 11.9531C143.672 11.8159 143.321 11.7567 142.944 11.772C142.566 11.7872 142.221 11.8745 141.901 12.0381C141.581 12.2016 141.304 12.4136 141.074 12.6778C140.84 12.9422 140.659 13.2469 140.528 13.5882C140.398 13.9333 140.342 14.2986 140.358 14.6919L140.471 17.5028L129.681 17.9387L129.567 15.1278C129.515 13.84 129.628 12.588 129.905 11.3795C130.183 10.1672 130.589 9.03461 131.129 7.97392C131.669 6.91708 132.334 5.94014 133.125 5.04694C133.916 4.15374 134.797 3.38434 135.765 2.73889C136.733 2.09344 137.788 1.57965 138.926 1.19382C140.06 0.811993 141.25 0.59402 142.486 0.544057ZM146.415 31.3129C146.382 30.4916 146.44 29.7284 146.593 29.0155C146.746 28.3064 146.974 27.6329 147.283 27.0025C147.587 26.3723 147.964 25.77 148.404 25.1961C148.845 24.626 149.33 24.0619 149.857 23.5038C150.494 22.8408 151.067 22.1611 151.577 21.4685C152.087 20.7759 152.514 20.048 152.861 19.2847C153.205 18.5216 153.465 17.7155 153.639 16.8666C153.812 16.0176 153.879 15.1112 153.84 14.1472C153.778 12.6126 153.435 11.1705 152.813 9.82459C152.187 8.47882 151.369 7.3185 150.35 6.34392C149.335 5.36919 148.159 4.60955 146.82 4.06887C145.481 3.52818 144.077 3.29138 142.6 3.35107C141.111 3.41121 139.727 3.7645 138.444 4.40724C137.161 5.05384 136.052 5.90192 135.12 6.95919C134.187 8.0126 133.461 9.2353 132.946 10.6271C132.431 12.019 132.208 13.4801 132.27 15.0186L137.655 14.8011C137.623 14.0184 137.734 13.2801 137.988 12.5862C138.242 11.8924 138.603 11.2792 139.071 10.7505C139.539 10.2218 140.093 9.79773 140.737 9.47821C141.38 9.15869 142.078 8.98375 142.83 8.95338C143.567 8.92361 144.269 9.04587 144.929 9.32044C145.593 9.59486 146.176 9.97298 146.685 10.4622C147.194 10.9514 147.604 11.5296 147.92 12.2005C148.236 12.8713 148.407 13.5943 148.438 14.3616C148.48 15.4027 148.294 16.3101 147.88 17.0837C147.466 17.8574 146.925 18.5976 146.252 19.3007C145.409 20.1844 144.658 21.0721 143.994 21.9756C143.329 22.8753 142.77 23.8209 142.313 24.8126C141.856 25.8044 141.52 26.8491 141.294 27.9551C141.068 29.061 140.983 30.2501 141.034 31.5264L146.415 31.3091L146.415 31.3129ZM144.187 42.6531C144.65 42.6344 145.08 42.5244 145.48 42.3267C145.88 42.129 146.225 41.864 146.52 41.5316C146.814 41.1992 147.04 40.8193 147.197 40.3881C147.354 39.9569 147.424 39.5022 147.405 39.0202C147.385 38.5383 147.278 38.0869 147.087 37.6621C146.895 37.2372 146.639 36.8768 146.319 36.5692C145.999 36.2616 145.633 36.0253 145.219 35.8606C144.804 35.6958 144.367 35.6207 143.904 35.6394C143.43 35.6586 142.993 35.7689 142.593 35.9666C142.193 36.1643 141.848 36.4293 141.553 36.7617C141.259 37.0942 141.033 37.4779 140.877 37.9129C140.72 38.348 140.65 38.8104 140.669 39.2924C140.689 39.7743 140.796 40.2219 140.987 40.639C141.178 41.0561 141.434 41.4165 141.754 41.7241C142.074 42.0317 142.443 42.2679 142.862 42.4325C143.284 42.5969 143.725 42.6718 144.187 42.6531Z" fill="black"/>
</g>
<g clip-path="url(#clip3_29_2540)">
<path d="M18.1884 231.601C26.9209 231.601 34 224.527 34 215.8C34 207.074 26.9209 200 18.1884 200C9.45592 200 2.37683 207.074 2.37683 215.8C2.37683 224.527 9.45592 231.601 18.1884 231.601Z" fill="#FFFF00"/>
<path d="M24.7218 221.214L29.7533 223.728C30.1738 223.942 30.508 224.254 30.7596 224.655C31.0112 225.06 31.1388 225.499 31.1388 225.976C31.1388 226.321 31.075 226.644 30.9436 226.948C30.8121 227.252 30.6319 227.514 30.4066 227.743C30.1776 227.972 29.911 228.148 29.6031 228.28C29.2952 228.411 28.9685 228.475 28.6231 228.475C28.2326 228.475 27.8571 228.385 27.5041 228.208L23.7869 226.351C23.8319 226.501 23.907 226.711 24.0046 226.985C24.1023 227.259 24.2149 227.578 24.3388 227.942C24.4627 228.306 24.5979 228.692 24.7443 229.109C24.887 229.525 25.0335 229.942 25.1761 230.366C25.3188 230.79 25.4615 231.203 25.5967 231.6C25.7319 232.002 25.852 232.362 25.9534 232.689C26.0548 233.015 26.1374 233.293 26.1975 233.518C26.2575 233.747 26.2876 233.9 26.2876 233.987C26.2876 234.268 26.1899 234.505 25.9947 234.7C25.7994 234.895 25.5629 234.992 25.2813 234.992C25.056 234.992 24.857 234.929 24.6805 234.797L15.5675 228.017L6.45831 234.805C6.28183 234.936 6.08283 235 5.85754 235C5.57968 235 5.33937 234.902 5.14412 234.707C4.94887 234.512 4.85124 234.276 4.85124 233.994C4.85124 233.893 4.90381 233.657 5.0127 233.289C5.11784 232.921 5.25676 232.49 5.41822 231.991C5.57968 231.492 5.76367 230.955 5.96267 230.377C6.16168 229.799 6.35317 229.244 6.53716 228.715C6.71739 228.186 6.88261 227.706 7.0328 227.285C7.18299 226.861 7.28813 226.55 7.35571 226.355L3.63843 228.212C3.27797 228.389 2.90624 228.479 2.51574 228.479C2.17029 228.479 1.84362 228.415 1.53573 228.283C1.22783 228.152 0.961237 227.976 0.732192 227.747C0.503147 227.518 0.322915 227.252 0.195251 226.951C0.0638321 226.648 0 226.321 0 225.98C0 225.503 0.123909 225.064 0.375483 224.659C0.627057 224.254 0.961237 223.946 1.38178 223.732L6.41325 221.218L0.405522 216.734C0.135174 216.536 0 216.273 0 215.935C0 215.658 0.0976256 215.417 0.292877 215.222C0.488128 215.027 0.724682 214.93 1.00629 214.93H7.49089L4.74986 212.179C4.5058 211.935 4.32557 211.665 4.1979 211.369C4.07399 211.072 4.01016 210.75 4.01016 210.405C4.01016 210.059 4.07399 209.733 4.20541 209.425C4.33683 209.118 4.51331 208.851 4.74235 208.63C4.9714 208.408 5.23423 208.228 5.53838 208.101C5.84252 207.969 6.16919 207.906 6.52214 207.906C6.85632 207.906 7.17548 207.966 7.47962 208.086C7.78377 208.206 8.05411 208.39 8.29818 208.63L12.0155 212.344L14.6138 204.566C14.6889 204.36 14.8128 204.195 14.9855 204.071C15.1583 203.947 15.3498 203.883 15.5638 203.883C15.7778 203.883 15.9731 203.947 16.142 204.071C16.3147 204.198 16.4387 204.364 16.5137 204.566L19.1121 212.344L22.8294 208.63C23.0697 208.39 23.3438 208.206 23.6479 208.086C23.9521 207.966 24.2712 207.906 24.6054 207.906C24.9509 207.906 25.2775 207.969 25.5854 208.101C25.8933 208.232 26.1599 208.408 26.389 208.63C26.618 208.855 26.7982 209.118 26.9259 209.425C27.0573 209.733 27.1211 210.059 27.1211 210.405C27.1211 210.75 27.0573 211.069 26.9334 211.369C26.8095 211.669 26.6218 211.935 26.3814 212.179L23.6442 214.93H30.1288C30.4066 214.93 30.6469 215.027 30.8422 215.222C31.0374 215.417 31.1351 215.654 31.1351 215.935C31.1351 216.269 30.9999 216.536 30.7295 216.731L24.7218 221.214ZM2.51574 226.467C2.55329 226.467 2.69597 226.411 2.94379 226.299C3.19161 226.186 3.49199 226.043 3.85246 225.875C4.21292 225.702 4.59967 225.514 5.02021 225.308C5.44075 225.105 5.83876 224.907 6.21425 224.715C6.58973 224.524 6.92015 224.355 7.19801 224.212C7.47587 224.07 7.66361 223.969 7.75748 223.912C7.85135 223.856 7.91894 223.796 7.96775 223.732C8.01281 223.668 8.03909 223.578 8.03909 223.466C8.03909 223.372 8.01656 223.289 7.96775 223.214C7.96024 223.184 7.93396 223.158 7.89641 223.132C7.85886 223.106 7.81756 223.079 7.7725 223.057C7.72744 223.034 7.67863 223.012 7.63357 222.993C7.58851 222.974 7.55097 222.967 7.52093 222.967C7.47587 222.967 7.32568 223.023 7.08161 223.136C6.83379 223.248 6.52965 223.391 6.16543 223.563C5.80121 223.736 5.41447 223.924 4.99768 224.13C4.58089 224.336 4.19039 224.531 3.81491 224.723C3.44318 224.914 3.11651 225.083 2.8349 225.233C2.55704 225.383 2.37305 225.481 2.29045 225.526C2.19658 225.582 2.12899 225.646 2.08018 225.713C2.03512 225.785 2.00883 225.875 2.00883 225.987C2.00883 226.119 2.0614 226.231 2.16278 226.329C2.26792 226.419 2.38432 226.467 2.51574 226.467ZM15.5675 225.77C15.7928 225.77 15.9918 225.833 16.1683 225.965L23.31 231.285L20.4601 222.738C20.4225 222.637 20.4038 222.531 20.4038 222.43C20.4038 222.273 20.4413 222.122 20.5164 221.984C20.5915 221.845 20.6929 221.721 20.8243 221.62L27.0986 216.926H19.2585C19.0445 216.926 18.8493 216.866 18.6728 216.746C18.4963 216.626 18.3686 216.457 18.2973 216.243L15.5713 208.059L12.8453 216.243C12.7702 216.457 12.6463 216.626 12.4698 216.746C12.2933 216.866 12.0981 216.926 11.884 216.926H4.0402L10.3295 221.62C10.5999 221.815 10.7351 222.081 10.7351 222.415C10.7351 222.528 10.7163 222.633 10.6787 222.738L7.82882 231.285L14.9668 225.965C15.1432 225.833 15.346 225.77 15.5675 225.77ZM6.02275 210.42C6.02275 210.551 6.07532 210.667 6.1767 210.768L10.1869 214.776C10.2882 214.877 10.4121 214.93 10.5511 214.93C10.6825 214.93 10.7951 214.877 10.8928 214.776C10.9904 214.674 11.0392 214.558 11.0392 214.427C11.0392 214.277 10.9941 214.157 10.9003 214.063L6.89012 210.056C6.78874 209.954 6.66483 209.902 6.5259 209.902C6.38697 209.902 6.26681 209.954 6.16919 210.063C6.07156 210.172 6.02275 210.288 6.02275 210.42ZM24.6092 209.902C24.4702 209.902 24.3501 209.954 24.2449 210.056L20.2385 214.067C20.1372 214.168 20.0846 214.288 20.0846 214.431C20.0846 214.562 20.1372 214.678 20.2385 214.78C20.3399 214.881 20.4563 214.933 20.5877 214.933C20.7267 214.933 20.8468 214.881 20.952 214.78L24.9621 210.768C25.056 210.675 25.101 210.558 25.101 210.42C25.101 210.288 25.056 210.172 24.9621 210.063C24.8682 209.954 24.7518 209.902 24.6092 209.902ZM28.6231 226.467C28.7545 226.467 28.8709 226.419 28.9723 226.321C29.0737 226.224 29.1262 226.111 29.1262 225.98C29.1262 225.878 29.1037 225.788 29.0549 225.706C29.0098 225.627 28.9385 225.563 28.8446 225.518L23.8282 223.004H23.8019C23.7268 222.978 23.6592 222.963 23.5916 222.963C23.5165 222.963 23.4564 222.982 23.4114 223.019C23.3663 223.057 23.31 223.083 23.2424 223.102C23.2049 223.151 23.1711 223.203 23.1448 223.271C23.1185 223.334 23.1035 223.402 23.1035 223.466C23.1035 223.661 23.1973 223.811 23.3813 223.912L28.3978 226.411C28.4654 226.449 28.5367 226.467 28.6231 226.467Z" fill="black"/>
</g>
<g clip-path="url(#clip4_29_2540)">
<path d="M273.188 231.601C281.921 231.601 289 224.527 289 215.8C289 207.074 281.921 200 273.188 200C264.456 200 257.377 207.074 257.377 215.8C257.377 224.527 264.456 231.601 273.188 231.601Z" fill="#FFFF00"/>
<path d="M279.722 221.214L284.753 223.728C285.174 223.942 285.508 224.254 285.76 224.655C286.011 225.06 286.139 225.499 286.139 225.976C286.139 226.321 286.075 226.644 285.944 226.948C285.812 227.252 285.632 227.514 285.407 227.743C285.178 227.972 284.911 228.148 284.603 228.28C284.295 228.411 283.969 228.475 283.623 228.475C283.233 228.475 282.857 228.385 282.504 228.208L278.787 226.351C278.832 226.501 278.907 226.711 279.005 226.985C279.102 227.259 279.215 227.578 279.339 227.942C279.463 228.306 279.598 228.692 279.744 229.109C279.887 229.525 280.033 229.942 280.176 230.366C280.319 230.79 280.462 231.203 280.597 231.6C280.732 232.002 280.852 232.362 280.953 232.689C281.055 233.015 281.137 233.293 281.197 233.518C281.258 233.747 281.288 233.9 281.288 233.987C281.288 234.268 281.19 234.505 280.995 234.7C280.799 234.895 280.563 234.992 280.281 234.992C280.056 234.992 279.857 234.929 279.681 234.797L270.568 228.017L261.458 234.805C261.282 234.936 261.083 235 260.858 235C260.58 235 260.339 234.902 260.144 234.707C259.949 234.512 259.851 234.276 259.851 233.994C259.851 233.893 259.904 233.657 260.013 233.289C260.118 232.921 260.257 232.49 260.418 231.991C260.58 231.492 260.764 230.955 260.963 230.377C261.162 229.799 261.353 229.244 261.537 228.715C261.717 228.186 261.883 227.706 262.033 227.285C262.183 226.861 262.288 226.55 262.356 226.355L258.638 228.212C258.278 228.389 257.906 228.479 257.516 228.479C257.17 228.479 256.844 228.415 256.536 228.283C256.228 228.152 255.961 227.976 255.732 227.747C255.503 227.518 255.323 227.252 255.195 226.951C255.064 226.648 255 226.321 255 225.98C255 225.503 255.124 225.064 255.375 224.659C255.627 224.254 255.961 223.946 256.382 223.732L261.413 221.218L255.406 216.734C255.135 216.536 255 216.273 255 215.935C255 215.658 255.098 215.417 255.293 215.222C255.488 215.027 255.725 214.93 256.006 214.93H262.491L259.75 212.179C259.506 211.935 259.326 211.665 259.198 211.369C259.074 211.072 259.01 210.75 259.01 210.405C259.01 210.059 259.074 209.733 259.205 209.425C259.337 209.118 259.513 208.851 259.742 208.63C259.971 208.408 260.234 208.228 260.538 208.101C260.843 207.969 261.169 207.906 261.522 207.906C261.856 207.906 262.175 207.966 262.48 208.086C262.784 208.206 263.054 208.39 263.298 208.63L267.015 212.344L269.614 204.566C269.689 204.36 269.813 204.195 269.986 204.071C270.158 203.947 270.35 203.883 270.564 203.883C270.778 203.883 270.973 203.947 271.142 204.071C271.315 204.198 271.439 204.364 271.514 204.566L274.112 212.344L277.829 208.63C278.07 208.39 278.344 208.206 278.648 208.086C278.952 207.966 279.271 207.906 279.605 207.906C279.951 207.906 280.278 207.969 280.585 208.101C280.893 208.232 281.16 208.408 281.389 208.63C281.618 208.855 281.798 209.118 281.926 209.425C282.057 209.733 282.121 210.059 282.121 210.405C282.121 210.75 282.057 211.069 281.933 211.369C281.809 211.669 281.622 211.935 281.381 212.179L278.644 214.93H285.129C285.407 214.93 285.647 215.027 285.842 215.222C286.037 215.417 286.135 215.654 286.135 215.935C286.135 216.269 286 216.536 285.73 216.731L279.722 221.214ZM257.516 226.467C257.553 226.467 257.696 226.411 257.944 226.299C258.192 226.186 258.492 226.043 258.852 225.875C259.213 225.702 259.6 225.514 260.02 225.308C260.441 225.105 260.839 224.907 261.214 224.715C261.59 224.524 261.92 224.355 262.198 224.212C262.476 224.07 262.664 223.969 262.757 223.912C262.851 223.856 262.919 223.796 262.968 223.732C263.013 223.668 263.039 223.578 263.039 223.466C263.039 223.372 263.017 223.289 262.968 223.214C262.96 223.184 262.934 223.158 262.896 223.132C262.859 223.106 262.818 223.079 262.773 223.057C262.727 223.034 262.679 223.012 262.634 222.993C262.589 222.974 262.551 222.967 262.521 222.967C262.476 222.967 262.326 223.023 262.082 223.136C261.834 223.248 261.53 223.391 261.165 223.563C260.801 223.736 260.414 223.924 259.998 224.13C259.581 224.336 259.19 224.531 258.815 224.723C258.443 224.914 258.117 225.083 257.835 225.233C257.557 225.383 257.373 225.481 257.29 225.526C257.197 225.582 257.129 225.646 257.08 225.713C257.035 225.785 257.009 225.875 257.009 225.987C257.009 226.119 257.061 226.231 257.163 226.329C257.268 226.419 257.384 226.467 257.516 226.467ZM270.568 225.77C270.793 225.77 270.992 225.833 271.168 225.965L278.31 231.285L275.46 222.738C275.423 222.637 275.404 222.531 275.404 222.43C275.404 222.273 275.441 222.122 275.516 221.984C275.591 221.845 275.693 221.721 275.824 221.62L282.099 216.926H274.259C274.045 216.926 273.849 216.866 273.673 216.746C273.496 216.626 273.369 216.457 273.297 216.243L270.571 208.059L267.845 216.243C267.77 216.457 267.646 216.626 267.47 216.746C267.293 216.866 267.098 216.926 266.884 216.926H259.04L265.33 221.62C265.6 221.815 265.735 222.081 265.735 222.415C265.735 222.528 265.716 222.633 265.679 222.738L262.829 231.285L269.967 225.965C270.143 225.833 270.346 225.77 270.568 225.77ZM261.023 210.42C261.023 210.551 261.075 210.667 261.177 210.768L265.187 214.776C265.288 214.877 265.412 214.93 265.551 214.93C265.682 214.93 265.795 214.877 265.893 214.776C265.99 214.674 266.039 214.558 266.039 214.427C266.039 214.277 265.994 214.157 265.9 214.063L261.89 210.056C261.789 209.954 261.665 209.902 261.526 209.902C261.387 209.902 261.267 209.954 261.169 210.063C261.072 210.172 261.023 210.288 261.023 210.42ZM279.609 209.902C279.47 209.902 279.35 209.954 279.245 210.056L275.239 214.067C275.137 214.168 275.085 214.288 275.085 214.431C275.085 214.562 275.137 214.678 275.239 214.78C275.34 214.881 275.456 214.933 275.588 214.933C275.727 214.933 275.847 214.881 275.952 214.78L279.962 210.768C280.056 210.675 280.101 210.558 280.101 210.42C280.101 210.288 280.056 210.172 279.962 210.063C279.868 209.954 279.752 209.902 279.609 209.902ZM283.623 226.467C283.754 226.467 283.871 226.419 283.972 226.321C284.074 226.224 284.126 226.111 284.126 225.98C284.126 225.878 284.104 225.788 284.055 225.706C284.01 225.627 283.938 225.563 283.845 225.518L278.828 223.004H278.802C278.727 222.978 278.659 222.963 278.592 222.963C278.517 222.963 278.456 222.982 278.411 223.019C278.366 223.057 278.31 223.083 278.242 223.102C278.205 223.151 278.171 223.203 278.145 223.271C278.118 223.334 278.103 223.402 278.103 223.466C278.103 223.661 278.197 223.811 278.381 223.912L283.398 226.411C283.465 226.449 283.537 226.467 283.623 226.467Z" fill="black"/>
</g>
<defs>
<clipPath id="clip0_29_2540">
<rect width="21" height="35" fill="white" transform="translate(102 29.6709) rotate(-33.7634)"/>
</clipPath>
<clipPath id="clip1_29_2540">
<rect width="15.012" height="25.0201" fill="white" transform="translate(165.442 25) rotate(32.4974)"/>
</clipPath>
<clipPath id="clip2_29_2540">
<rect width="26.9763" height="44.9604" fill="white" transform="translate(129 1.08887) rotate(-2.31332)"/>
</clipPath>
<clipPath id="clip3_29_2540">
<rect width="34" height="35" fill="white" transform="translate(0 200)"/>
</clipPath>
<clipPath id="clip4_29_2540">
<rect width="34" height="35" fill="white" transform="translate(255 200)"/>
</clipPath>
</defs>
</svg>
